%TF.GenerationSoftware,KiCad,Pcbnew,(5.1.6-0)*%
%TF.CreationDate,2023-07-03T12:35:29-07:00*%
%TF.ProjectId,LM3886x2_inv_bal_servo,4c4d3338-3836-4783-925f-696e765f6261,rev?*%
%TF.SameCoordinates,Original*%
%TF.FileFunction,Legend,Bot*%
%TF.FilePolarity,Positive*%
%FSLAX46Y46*%
G04 Gerber Fmt 4.6, Leading zero omitted, Abs format (unit mm)*
G04 Created by KiCad (PCBNEW (5.1.6-0)) date 2023-07-03 12:35:29*
%MOMM*%
%LPD*%
G01*
G04 APERTURE LIST*
%ADD10C,0.150000*%
G04 APERTURE END LIST*
D10*
X66988095Y-81452380D02*
X66988095Y-82166666D01*
X67035714Y-82309523D01*
X67130952Y-82404761D01*
X67273809Y-82452380D01*
X67369047Y-82452380D01*
X66083333Y-81785714D02*
X66083333Y-82452380D01*
X66511904Y-81785714D02*
X66511904Y-82309523D01*
X66464285Y-82404761D01*
X66369047Y-82452380D01*
X66226190Y-82452380D01*
X66130952Y-82404761D01*
X66083333Y-82357142D01*
X65464285Y-82452380D02*
X65559523Y-82404761D01*
X65607142Y-82309523D01*
X65607142Y-81452380D01*
X65178571Y-81785714D02*
X64940476Y-82452380D01*
X64702380Y-81785714D02*
X64940476Y-82452380D01*
X65035714Y-82690476D01*
X65083333Y-82738095D01*
X65178571Y-82785714D01*
X63607142Y-81547619D02*
X63559523Y-81500000D01*
X63464285Y-81452380D01*
X63226190Y-81452380D01*
X63130952Y-81500000D01*
X63083333Y-81547619D01*
X63035714Y-81642857D01*
X63035714Y-81738095D01*
X63083333Y-81880952D01*
X63654761Y-82452380D01*
X63035714Y-82452380D01*
X62416666Y-81452380D02*
X62321428Y-81452380D01*
X62226190Y-81500000D01*
X62178571Y-81547619D01*
X62130952Y-81642857D01*
X62083333Y-81833333D01*
X62083333Y-82071428D01*
X62130952Y-82261904D01*
X62178571Y-82357142D01*
X62226190Y-82404761D01*
X62321428Y-82452380D01*
X62416666Y-82452380D01*
X62511904Y-82404761D01*
X62559523Y-82357142D01*
X62607142Y-82261904D01*
X62654761Y-82071428D01*
X62654761Y-81833333D01*
X62607142Y-81642857D01*
X62559523Y-81547619D01*
X62511904Y-81500000D01*
X62416666Y-81452380D01*
X61702380Y-81547619D02*
X61654761Y-81500000D01*
X61559523Y-81452380D01*
X61321428Y-81452380D01*
X61226190Y-81500000D01*
X61178571Y-81547619D01*
X61130952Y-81642857D01*
X61130952Y-81738095D01*
X61178571Y-81880952D01*
X61750000Y-82452380D01*
X61130952Y-82452380D01*
X60797619Y-81452380D02*
X60178571Y-81452380D01*
X60511904Y-81833333D01*
X60369047Y-81833333D01*
X60273809Y-81880952D01*
X60226190Y-81928571D01*
X60178571Y-82023809D01*
X60178571Y-82261904D01*
X60226190Y-82357142D01*
X60273809Y-82404761D01*
X60369047Y-82452380D01*
X60654761Y-82452380D01*
X60750000Y-82404761D01*
X60797619Y-82357142D01*
X64940476Y-80202380D02*
X65273809Y-79726190D01*
X65511904Y-80202380D02*
X65511904Y-79202380D01*
X65130952Y-79202380D01*
X65035714Y-79250000D01*
X64988095Y-79297619D01*
X64940476Y-79392857D01*
X64940476Y-79535714D01*
X64988095Y-79630952D01*
X65035714Y-79678571D01*
X65130952Y-79726190D01*
X65511904Y-79726190D01*
X64130952Y-80154761D02*
X64226190Y-80202380D01*
X64416666Y-80202380D01*
X64511904Y-80154761D01*
X64559523Y-80059523D01*
X64559523Y-79678571D01*
X64511904Y-79583333D01*
X64416666Y-79535714D01*
X64226190Y-79535714D01*
X64130952Y-79583333D01*
X64083333Y-79678571D01*
X64083333Y-79773809D01*
X64559523Y-79869047D01*
X63750000Y-79535714D02*
X63511904Y-80202380D01*
X63273809Y-79535714D01*
X62369047Y-80202380D02*
X62940476Y-80202380D01*
X62654761Y-80202380D02*
X62654761Y-79202380D01*
X62750000Y-79345238D01*
X62845238Y-79440476D01*
X62940476Y-79488095D01*
X61940476Y-80107142D02*
X61892857Y-80154761D01*
X61940476Y-80202380D01*
X61988095Y-80154761D01*
X61940476Y-80107142D01*
X61940476Y-80202380D01*
X61273809Y-79202380D02*
X61178571Y-79202380D01*
X61083333Y-79250000D01*
X61035714Y-79297619D01*
X60988095Y-79392857D01*
X60940476Y-79583333D01*
X60940476Y-79821428D01*
X60988095Y-80011904D01*
X61035714Y-80107142D01*
X61083333Y-80154761D01*
X61178571Y-80202380D01*
X61273809Y-80202380D01*
X61369047Y-80154761D01*
X61416666Y-80107142D01*
X61464285Y-80011904D01*
X61511904Y-79821428D01*
X61511904Y-79583333D01*
X61464285Y-79392857D01*
X61416666Y-79297619D01*
X61369047Y-79250000D01*
X61273809Y-79202380D01*
M02*
