%TF.GenerationSoftware,KiCad,Pcbnew,(5.1.6-0)*%
%TF.CreationDate,2023-07-03T12:35:29-07:00*%
%TF.ProjectId,LM3886x2_inv_bal_servo,4c4d3338-3836-4783-925f-696e765f6261,rev?*%
%TF.SameCoordinates,Original*%
%TF.FileFunction,Soldermask,Top*%
%TF.FilePolarity,Negative*%
%FSLAX46Y46*%
G04 Gerber Fmt 4.6, Leading zero omitted, Abs format (unit mm)*
G04 Created by KiCad (PCBNEW (5.1.6-0)) date 2023-07-03 12:35:29*
%MOMM*%
%LPD*%
G01*
G04 APERTURE LIST*
%ADD10C,0.900000*%
%ADD11C,6.500000*%
%ADD12O,1.900000X1.900000*%
%ADD13R,1.900000X1.900000*%
%ADD14C,2.600000*%
%ADD15C,2.100000*%
%ADD16C,2.400000*%
%ADD17R,1.300000X1.000000*%
%ADD18C,1.700000*%
%ADD19R,1.700000X1.700000*%
%ADD20C,2.500000*%
%ADD21R,2.500000X2.500000*%
G04 APERTURE END LIST*
D10*
%TO.C,H4*%
X180447056Y-54552944D03*
X178750000Y-53850000D03*
X177052944Y-54552944D03*
X176350000Y-56250000D03*
X177052944Y-57947056D03*
X178750000Y-58650000D03*
X180447056Y-57947056D03*
X181150000Y-56250000D03*
D11*
X178750000Y-56250000D03*
%TD*%
D10*
%TO.C,H3*%
X62947056Y-54552944D03*
X61250000Y-53850000D03*
X59552944Y-54552944D03*
X58850000Y-56250000D03*
X59552944Y-57947056D03*
X61250000Y-58650000D03*
X62947056Y-57947056D03*
X63650000Y-56250000D03*
D11*
X61250000Y-56250000D03*
%TD*%
D10*
%TO.C,H2*%
X180447056Y-104552944D03*
X178750000Y-103850000D03*
X177052944Y-104552944D03*
X176350000Y-106250000D03*
X177052944Y-107947056D03*
X178750000Y-108650000D03*
X180447056Y-107947056D03*
X181150000Y-106250000D03*
D11*
X178750000Y-106250000D03*
%TD*%
D10*
%TO.C,H1*%
X62947056Y-104552944D03*
X61250000Y-103850000D03*
X59552944Y-104552944D03*
X58850000Y-106250000D03*
X59552944Y-107947056D03*
X61250000Y-108650000D03*
X62947056Y-107947056D03*
X63650000Y-106250000D03*
D11*
X61250000Y-106250000D03*
%TD*%
%TO.C,R3*%
G36*
G01*
X173225000Y-83157456D02*
X173225000Y-81842544D01*
G75*
G02*
X173492544Y-81575000I267544J0D01*
G01*
X174482456Y-81575000D01*
G75*
G02*
X174750000Y-81842544I0J-267544D01*
G01*
X174750000Y-83157456D01*
G75*
G02*
X174482456Y-83425000I-267544J0D01*
G01*
X173492544Y-83425000D01*
G75*
G02*
X173225000Y-83157456I0J267544D01*
G01*
G37*
G36*
G01*
X170250000Y-83157456D02*
X170250000Y-81842544D01*
G75*
G02*
X170517544Y-81575000I267544J0D01*
G01*
X171507456Y-81575000D01*
G75*
G02*
X171775000Y-81842544I0J-267544D01*
G01*
X171775000Y-83157456D01*
G75*
G02*
X171507456Y-83425000I-267544J0D01*
G01*
X170517544Y-83425000D01*
G75*
G02*
X170250000Y-83157456I0J267544D01*
G01*
G37*
%TD*%
%TO.C,DNP4*%
G36*
G01*
X101157456Y-68025000D02*
X99842544Y-68025000D01*
G75*
G02*
X99575000Y-67757456I0J267544D01*
G01*
X99575000Y-66767544D01*
G75*
G02*
X99842544Y-66500000I267544J0D01*
G01*
X101157456Y-66500000D01*
G75*
G02*
X101425000Y-66767544I0J-267544D01*
G01*
X101425000Y-67757456D01*
G75*
G02*
X101157456Y-68025000I-267544J0D01*
G01*
G37*
G36*
G01*
X101157456Y-71000000D02*
X99842544Y-71000000D01*
G75*
G02*
X99575000Y-70732456I0J267544D01*
G01*
X99575000Y-69742544D01*
G75*
G02*
X99842544Y-69475000I267544J0D01*
G01*
X101157456Y-69475000D01*
G75*
G02*
X101425000Y-69742544I0J-267544D01*
G01*
X101425000Y-70732456D01*
G75*
G02*
X101157456Y-71000000I-267544J0D01*
G01*
G37*
%TD*%
%TO.C,DNP3*%
G36*
G01*
X138907456Y-68025000D02*
X137592544Y-68025000D01*
G75*
G02*
X137325000Y-67757456I0J267544D01*
G01*
X137325000Y-66767544D01*
G75*
G02*
X137592544Y-66500000I267544J0D01*
G01*
X138907456Y-66500000D01*
G75*
G02*
X139175000Y-66767544I0J-267544D01*
G01*
X139175000Y-67757456D01*
G75*
G02*
X138907456Y-68025000I-267544J0D01*
G01*
G37*
G36*
G01*
X138907456Y-71000000D02*
X137592544Y-71000000D01*
G75*
G02*
X137325000Y-70732456I0J267544D01*
G01*
X137325000Y-69742544D01*
G75*
G02*
X137592544Y-69475000I267544J0D01*
G01*
X138907456Y-69475000D01*
G75*
G02*
X139175000Y-69742544I0J-267544D01*
G01*
X139175000Y-70732456D01*
G75*
G02*
X138907456Y-71000000I-267544J0D01*
G01*
G37*
%TD*%
%TO.C,DNP2*%
G36*
G01*
X102675000Y-64228262D02*
X102675000Y-63271738D01*
G75*
G02*
X102946738Y-63000000I271738J0D01*
G01*
X103653262Y-63000000D01*
G75*
G02*
X103925000Y-63271738I0J-271738D01*
G01*
X103925000Y-64228262D01*
G75*
G02*
X103653262Y-64500000I-271738J0D01*
G01*
X102946738Y-64500000D01*
G75*
G02*
X102675000Y-64228262I0J271738D01*
G01*
G37*
G36*
G01*
X100625000Y-64228262D02*
X100625000Y-63271738D01*
G75*
G02*
X100896738Y-63000000I271738J0D01*
G01*
X101603262Y-63000000D01*
G75*
G02*
X101875000Y-63271738I0J-271738D01*
G01*
X101875000Y-64228262D01*
G75*
G02*
X101603262Y-64500000I-271738J0D01*
G01*
X100896738Y-64500000D01*
G75*
G02*
X100625000Y-64228262I0J271738D01*
G01*
G37*
%TD*%
%TO.C,DNP1*%
G36*
G01*
X140400000Y-64228262D02*
X140400000Y-63271738D01*
G75*
G02*
X140671738Y-63000000I271738J0D01*
G01*
X141378262Y-63000000D01*
G75*
G02*
X141650000Y-63271738I0J-271738D01*
G01*
X141650000Y-64228262D01*
G75*
G02*
X141378262Y-64500000I-271738J0D01*
G01*
X140671738Y-64500000D01*
G75*
G02*
X140400000Y-64228262I0J271738D01*
G01*
G37*
G36*
G01*
X138350000Y-64228262D02*
X138350000Y-63271738D01*
G75*
G02*
X138621738Y-63000000I271738J0D01*
G01*
X139328262Y-63000000D01*
G75*
G02*
X139600000Y-63271738I0J-271738D01*
G01*
X139600000Y-64228262D01*
G75*
G02*
X139328262Y-64500000I-271738J0D01*
G01*
X138621738Y-64500000D01*
G75*
G02*
X138350000Y-64228262I0J271738D01*
G01*
G37*
%TD*%
D12*
%TO.C,U5*%
X107000000Y-58750000D03*
X105300000Y-53670000D03*
X103600000Y-58750000D03*
X101900000Y-53670000D03*
X100200000Y-58750000D03*
X98500000Y-53670000D03*
X96800000Y-58750000D03*
X95100000Y-53670000D03*
X93400000Y-58750000D03*
X91700000Y-53670000D03*
D13*
X90000000Y-58750000D03*
%TD*%
D12*
%TO.C,U4*%
X144500000Y-58750000D03*
X142800000Y-53670000D03*
X141100000Y-58750000D03*
X139400000Y-53670000D03*
X137700000Y-58750000D03*
X136000000Y-53670000D03*
X134300000Y-58750000D03*
X132600000Y-53670000D03*
X130900000Y-58750000D03*
X129200000Y-53670000D03*
D13*
X127500000Y-58750000D03*
%TD*%
%TO.C,U3*%
G36*
G01*
X113550000Y-84230000D02*
X113550000Y-84580000D01*
G75*
G02*
X113375000Y-84755000I-175000J0D01*
G01*
X111675000Y-84755000D01*
G75*
G02*
X111500000Y-84580000I0J175000D01*
G01*
X111500000Y-84230000D01*
G75*
G02*
X111675000Y-84055000I175000J0D01*
G01*
X113375000Y-84055000D01*
G75*
G02*
X113550000Y-84230000I0J-175000D01*
G01*
G37*
G36*
G01*
X113550000Y-82960000D02*
X113550000Y-83310000D01*
G75*
G02*
X113375000Y-83485000I-175000J0D01*
G01*
X111675000Y-83485000D01*
G75*
G02*
X111500000Y-83310000I0J175000D01*
G01*
X111500000Y-82960000D01*
G75*
G02*
X111675000Y-82785000I175000J0D01*
G01*
X113375000Y-82785000D01*
G75*
G02*
X113550000Y-82960000I0J-175000D01*
G01*
G37*
G36*
G01*
X113550000Y-81690000D02*
X113550000Y-82040000D01*
G75*
G02*
X113375000Y-82215000I-175000J0D01*
G01*
X111675000Y-82215000D01*
G75*
G02*
X111500000Y-82040000I0J175000D01*
G01*
X111500000Y-81690000D01*
G75*
G02*
X111675000Y-81515000I175000J0D01*
G01*
X113375000Y-81515000D01*
G75*
G02*
X113550000Y-81690000I0J-175000D01*
G01*
G37*
G36*
G01*
X113550000Y-80420000D02*
X113550000Y-80770000D01*
G75*
G02*
X113375000Y-80945000I-175000J0D01*
G01*
X111675000Y-80945000D01*
G75*
G02*
X111500000Y-80770000I0J175000D01*
G01*
X111500000Y-80420000D01*
G75*
G02*
X111675000Y-80245000I175000J0D01*
G01*
X113375000Y-80245000D01*
G75*
G02*
X113550000Y-80420000I0J-175000D01*
G01*
G37*
G36*
G01*
X118500000Y-80420000D02*
X118500000Y-80770000D01*
G75*
G02*
X118325000Y-80945000I-175000J0D01*
G01*
X116625000Y-80945000D01*
G75*
G02*
X116450000Y-80770000I0J175000D01*
G01*
X116450000Y-80420000D01*
G75*
G02*
X116625000Y-80245000I175000J0D01*
G01*
X118325000Y-80245000D01*
G75*
G02*
X118500000Y-80420000I0J-175000D01*
G01*
G37*
G36*
G01*
X118500000Y-81690000D02*
X118500000Y-82040000D01*
G75*
G02*
X118325000Y-82215000I-175000J0D01*
G01*
X116625000Y-82215000D01*
G75*
G02*
X116450000Y-82040000I0J175000D01*
G01*
X116450000Y-81690000D01*
G75*
G02*
X116625000Y-81515000I175000J0D01*
G01*
X118325000Y-81515000D01*
G75*
G02*
X118500000Y-81690000I0J-175000D01*
G01*
G37*
G36*
G01*
X118500000Y-82960000D02*
X118500000Y-83310000D01*
G75*
G02*
X118325000Y-83485000I-175000J0D01*
G01*
X116625000Y-83485000D01*
G75*
G02*
X116450000Y-83310000I0J175000D01*
G01*
X116450000Y-82960000D01*
G75*
G02*
X116625000Y-82785000I175000J0D01*
G01*
X118325000Y-82785000D01*
G75*
G02*
X118500000Y-82960000I0J-175000D01*
G01*
G37*
G36*
G01*
X118500000Y-84230000D02*
X118500000Y-84580000D01*
G75*
G02*
X118325000Y-84755000I-175000J0D01*
G01*
X116625000Y-84755000D01*
G75*
G02*
X116450000Y-84580000I0J175000D01*
G01*
X116450000Y-84230000D01*
G75*
G02*
X116625000Y-84055000I175000J0D01*
G01*
X118325000Y-84055000D01*
G75*
G02*
X118500000Y-84230000I0J-175000D01*
G01*
G37*
%TD*%
%TO.C,U2*%
G36*
G01*
X166700000Y-56770000D02*
X166700000Y-56420000D01*
G75*
G02*
X166875000Y-56245000I175000J0D01*
G01*
X168575000Y-56245000D01*
G75*
G02*
X168750000Y-56420000I0J-175000D01*
G01*
X168750000Y-56770000D01*
G75*
G02*
X168575000Y-56945000I-175000J0D01*
G01*
X166875000Y-56945000D01*
G75*
G02*
X166700000Y-56770000I0J175000D01*
G01*
G37*
G36*
G01*
X166700000Y-58040000D02*
X166700000Y-57690000D01*
G75*
G02*
X166875000Y-57515000I175000J0D01*
G01*
X168575000Y-57515000D01*
G75*
G02*
X168750000Y-57690000I0J-175000D01*
G01*
X168750000Y-58040000D01*
G75*
G02*
X168575000Y-58215000I-175000J0D01*
G01*
X166875000Y-58215000D01*
G75*
G02*
X166700000Y-58040000I0J175000D01*
G01*
G37*
G36*
G01*
X166700000Y-59310000D02*
X166700000Y-58960000D01*
G75*
G02*
X166875000Y-58785000I175000J0D01*
G01*
X168575000Y-58785000D01*
G75*
G02*
X168750000Y-58960000I0J-175000D01*
G01*
X168750000Y-59310000D01*
G75*
G02*
X168575000Y-59485000I-175000J0D01*
G01*
X166875000Y-59485000D01*
G75*
G02*
X166700000Y-59310000I0J175000D01*
G01*
G37*
G36*
G01*
X166700000Y-60580000D02*
X166700000Y-60230000D01*
G75*
G02*
X166875000Y-60055000I175000J0D01*
G01*
X168575000Y-60055000D01*
G75*
G02*
X168750000Y-60230000I0J-175000D01*
G01*
X168750000Y-60580000D01*
G75*
G02*
X168575000Y-60755000I-175000J0D01*
G01*
X166875000Y-60755000D01*
G75*
G02*
X166700000Y-60580000I0J175000D01*
G01*
G37*
G36*
G01*
X161750000Y-60580000D02*
X161750000Y-60230000D01*
G75*
G02*
X161925000Y-60055000I175000J0D01*
G01*
X163625000Y-60055000D01*
G75*
G02*
X163800000Y-60230000I0J-175000D01*
G01*
X163800000Y-60580000D01*
G75*
G02*
X163625000Y-60755000I-175000J0D01*
G01*
X161925000Y-60755000D01*
G75*
G02*
X161750000Y-60580000I0J175000D01*
G01*
G37*
G36*
G01*
X161750000Y-59310000D02*
X161750000Y-58960000D01*
G75*
G02*
X161925000Y-58785000I175000J0D01*
G01*
X163625000Y-58785000D01*
G75*
G02*
X163800000Y-58960000I0J-175000D01*
G01*
X163800000Y-59310000D01*
G75*
G02*
X163625000Y-59485000I-175000J0D01*
G01*
X161925000Y-59485000D01*
G75*
G02*
X161750000Y-59310000I0J175000D01*
G01*
G37*
G36*
G01*
X161750000Y-58040000D02*
X161750000Y-57690000D01*
G75*
G02*
X161925000Y-57515000I175000J0D01*
G01*
X163625000Y-57515000D01*
G75*
G02*
X163800000Y-57690000I0J-175000D01*
G01*
X163800000Y-58040000D01*
G75*
G02*
X163625000Y-58215000I-175000J0D01*
G01*
X161925000Y-58215000D01*
G75*
G02*
X161750000Y-58040000I0J175000D01*
G01*
G37*
G36*
G01*
X161750000Y-56770000D02*
X161750000Y-56420000D01*
G75*
G02*
X161925000Y-56245000I175000J0D01*
G01*
X163625000Y-56245000D01*
G75*
G02*
X163800000Y-56420000I0J-175000D01*
G01*
X163800000Y-56770000D01*
G75*
G02*
X163625000Y-56945000I-175000J0D01*
G01*
X161925000Y-56945000D01*
G75*
G02*
X161750000Y-56770000I0J175000D01*
G01*
G37*
%TD*%
%TO.C,U1*%
G36*
G01*
X169200000Y-71270000D02*
X169200000Y-70920000D01*
G75*
G02*
X169375000Y-70745000I175000J0D01*
G01*
X171075000Y-70745000D01*
G75*
G02*
X171250000Y-70920000I0J-175000D01*
G01*
X171250000Y-71270000D01*
G75*
G02*
X171075000Y-71445000I-175000J0D01*
G01*
X169375000Y-71445000D01*
G75*
G02*
X169200000Y-71270000I0J175000D01*
G01*
G37*
G36*
G01*
X169200000Y-72540000D02*
X169200000Y-72190000D01*
G75*
G02*
X169375000Y-72015000I175000J0D01*
G01*
X171075000Y-72015000D01*
G75*
G02*
X171250000Y-72190000I0J-175000D01*
G01*
X171250000Y-72540000D01*
G75*
G02*
X171075000Y-72715000I-175000J0D01*
G01*
X169375000Y-72715000D01*
G75*
G02*
X169200000Y-72540000I0J175000D01*
G01*
G37*
G36*
G01*
X169200000Y-73810000D02*
X169200000Y-73460000D01*
G75*
G02*
X169375000Y-73285000I175000J0D01*
G01*
X171075000Y-73285000D01*
G75*
G02*
X171250000Y-73460000I0J-175000D01*
G01*
X171250000Y-73810000D01*
G75*
G02*
X171075000Y-73985000I-175000J0D01*
G01*
X169375000Y-73985000D01*
G75*
G02*
X169200000Y-73810000I0J175000D01*
G01*
G37*
G36*
G01*
X169200000Y-75080000D02*
X169200000Y-74730000D01*
G75*
G02*
X169375000Y-74555000I175000J0D01*
G01*
X171075000Y-74555000D01*
G75*
G02*
X171250000Y-74730000I0J-175000D01*
G01*
X171250000Y-75080000D01*
G75*
G02*
X171075000Y-75255000I-175000J0D01*
G01*
X169375000Y-75255000D01*
G75*
G02*
X169200000Y-75080000I0J175000D01*
G01*
G37*
G36*
G01*
X164250000Y-75080000D02*
X164250000Y-74730000D01*
G75*
G02*
X164425000Y-74555000I175000J0D01*
G01*
X166125000Y-74555000D01*
G75*
G02*
X166300000Y-74730000I0J-175000D01*
G01*
X166300000Y-75080000D01*
G75*
G02*
X166125000Y-75255000I-175000J0D01*
G01*
X164425000Y-75255000D01*
G75*
G02*
X164250000Y-75080000I0J175000D01*
G01*
G37*
G36*
G01*
X164250000Y-73810000D02*
X164250000Y-73460000D01*
G75*
G02*
X164425000Y-73285000I175000J0D01*
G01*
X166125000Y-73285000D01*
G75*
G02*
X166300000Y-73460000I0J-175000D01*
G01*
X166300000Y-73810000D01*
G75*
G02*
X166125000Y-73985000I-175000J0D01*
G01*
X164425000Y-73985000D01*
G75*
G02*
X164250000Y-73810000I0J175000D01*
G01*
G37*
G36*
G01*
X164250000Y-72540000D02*
X164250000Y-72190000D01*
G75*
G02*
X164425000Y-72015000I175000J0D01*
G01*
X166125000Y-72015000D01*
G75*
G02*
X166300000Y-72190000I0J-175000D01*
G01*
X166300000Y-72540000D01*
G75*
G02*
X166125000Y-72715000I-175000J0D01*
G01*
X164425000Y-72715000D01*
G75*
G02*
X164250000Y-72540000I0J175000D01*
G01*
G37*
G36*
G01*
X164250000Y-71270000D02*
X164250000Y-70920000D01*
G75*
G02*
X164425000Y-70745000I175000J0D01*
G01*
X166125000Y-70745000D01*
G75*
G02*
X166300000Y-70920000I0J-175000D01*
G01*
X166300000Y-71270000D01*
G75*
G02*
X166125000Y-71445000I-175000J0D01*
G01*
X164425000Y-71445000D01*
G75*
G02*
X164250000Y-71270000I0J175000D01*
G01*
G37*
%TD*%
%TO.C,R32*%
G36*
G01*
X101708608Y-99825000D02*
X98791392Y-99825000D01*
G75*
G02*
X98525000Y-99558608I0J266392D01*
G01*
X98525000Y-98466392D01*
G75*
G02*
X98791392Y-98200000I266392J0D01*
G01*
X101708608Y-98200000D01*
G75*
G02*
X101975000Y-98466392I0J-266392D01*
G01*
X101975000Y-99558608D01*
G75*
G02*
X101708608Y-99825000I-266392J0D01*
G01*
G37*
G36*
G01*
X101708608Y-105800000D02*
X98791392Y-105800000D01*
G75*
G02*
X98525000Y-105533608I0J266392D01*
G01*
X98525000Y-104441392D01*
G75*
G02*
X98791392Y-104175000I266392J0D01*
G01*
X101708608Y-104175000D01*
G75*
G02*
X101975000Y-104441392I0J-266392D01*
G01*
X101975000Y-105533608D01*
G75*
G02*
X101708608Y-105800000I-266392J0D01*
G01*
G37*
%TD*%
%TO.C,R31*%
G36*
G01*
X89708608Y-80325000D02*
X86791392Y-80325000D01*
G75*
G02*
X86525000Y-80058608I0J266392D01*
G01*
X86525000Y-78966392D01*
G75*
G02*
X86791392Y-78700000I266392J0D01*
G01*
X89708608Y-78700000D01*
G75*
G02*
X89975000Y-78966392I0J-266392D01*
G01*
X89975000Y-80058608D01*
G75*
G02*
X89708608Y-80325000I-266392J0D01*
G01*
G37*
G36*
G01*
X89708608Y-86300000D02*
X86791392Y-86300000D01*
G75*
G02*
X86525000Y-86033608I0J266392D01*
G01*
X86525000Y-84941392D01*
G75*
G02*
X86791392Y-84675000I266392J0D01*
G01*
X89708608Y-84675000D01*
G75*
G02*
X89975000Y-84941392I0J-266392D01*
G01*
X89975000Y-86033608D01*
G75*
G02*
X89708608Y-86300000I-266392J0D01*
G01*
G37*
%TD*%
%TO.C,R30*%
G36*
G01*
X94708608Y-70325000D02*
X91791392Y-70325000D01*
G75*
G02*
X91525000Y-70058608I0J266392D01*
G01*
X91525000Y-68966392D01*
G75*
G02*
X91791392Y-68700000I266392J0D01*
G01*
X94708608Y-68700000D01*
G75*
G02*
X94975000Y-68966392I0J-266392D01*
G01*
X94975000Y-70058608D01*
G75*
G02*
X94708608Y-70325000I-266392J0D01*
G01*
G37*
G36*
G01*
X94708608Y-76300000D02*
X91791392Y-76300000D01*
G75*
G02*
X91525000Y-76033608I0J266392D01*
G01*
X91525000Y-74941392D01*
G75*
G02*
X91791392Y-74675000I266392J0D01*
G01*
X94708608Y-74675000D01*
G75*
G02*
X94975000Y-74941392I0J-266392D01*
G01*
X94975000Y-76033608D01*
G75*
G02*
X94708608Y-76300000I-266392J0D01*
G01*
G37*
%TD*%
%TO.C,R29*%
G36*
G01*
X132208608Y-70325000D02*
X129291392Y-70325000D01*
G75*
G02*
X129025000Y-70058608I0J266392D01*
G01*
X129025000Y-68966392D01*
G75*
G02*
X129291392Y-68700000I266392J0D01*
G01*
X132208608Y-68700000D01*
G75*
G02*
X132475000Y-68966392I0J-266392D01*
G01*
X132475000Y-70058608D01*
G75*
G02*
X132208608Y-70325000I-266392J0D01*
G01*
G37*
G36*
G01*
X132208608Y-76300000D02*
X129291392Y-76300000D01*
G75*
G02*
X129025000Y-76033608I0J266392D01*
G01*
X129025000Y-74941392D01*
G75*
G02*
X129291392Y-74675000I266392J0D01*
G01*
X132208608Y-74675000D01*
G75*
G02*
X132475000Y-74941392I0J-266392D01*
G01*
X132475000Y-76033608D01*
G75*
G02*
X132208608Y-76300000I-266392J0D01*
G01*
G37*
%TD*%
%TO.C,R28*%
G36*
G01*
X98157456Y-71025000D02*
X96842544Y-71025000D01*
G75*
G02*
X96575000Y-70757456I0J267544D01*
G01*
X96575000Y-69767544D01*
G75*
G02*
X96842544Y-69500000I267544J0D01*
G01*
X98157456Y-69500000D01*
G75*
G02*
X98425000Y-69767544I0J-267544D01*
G01*
X98425000Y-70757456D01*
G75*
G02*
X98157456Y-71025000I-267544J0D01*
G01*
G37*
G36*
G01*
X98157456Y-74000000D02*
X96842544Y-74000000D01*
G75*
G02*
X96575000Y-73732456I0J267544D01*
G01*
X96575000Y-72742544D01*
G75*
G02*
X96842544Y-72475000I267544J0D01*
G01*
X98157456Y-72475000D01*
G75*
G02*
X98425000Y-72742544I0J-267544D01*
G01*
X98425000Y-73732456D01*
G75*
G02*
X98157456Y-74000000I-267544J0D01*
G01*
G37*
%TD*%
%TO.C,R27*%
G36*
G01*
X125157456Y-71775000D02*
X123842544Y-71775000D01*
G75*
G02*
X123575000Y-71507456I0J267544D01*
G01*
X123575000Y-70517544D01*
G75*
G02*
X123842544Y-70250000I267544J0D01*
G01*
X125157456Y-70250000D01*
G75*
G02*
X125425000Y-70517544I0J-267544D01*
G01*
X125425000Y-71507456D01*
G75*
G02*
X125157456Y-71775000I-267544J0D01*
G01*
G37*
G36*
G01*
X125157456Y-74750000D02*
X123842544Y-74750000D01*
G75*
G02*
X123575000Y-74482456I0J267544D01*
G01*
X123575000Y-73492544D01*
G75*
G02*
X123842544Y-73225000I267544J0D01*
G01*
X125157456Y-73225000D01*
G75*
G02*
X125425000Y-73492544I0J-267544D01*
G01*
X125425000Y-74482456D01*
G75*
G02*
X125157456Y-74750000I-267544J0D01*
G01*
G37*
%TD*%
%TO.C,R26*%
G36*
G01*
X104157456Y-68025000D02*
X102842544Y-68025000D01*
G75*
G02*
X102575000Y-67757456I0J267544D01*
G01*
X102575000Y-66767544D01*
G75*
G02*
X102842544Y-66500000I267544J0D01*
G01*
X104157456Y-66500000D01*
G75*
G02*
X104425000Y-66767544I0J-267544D01*
G01*
X104425000Y-67757456D01*
G75*
G02*
X104157456Y-68025000I-267544J0D01*
G01*
G37*
G36*
G01*
X104157456Y-71000000D02*
X102842544Y-71000000D01*
G75*
G02*
X102575000Y-70732456I0J267544D01*
G01*
X102575000Y-69742544D01*
G75*
G02*
X102842544Y-69475000I267544J0D01*
G01*
X104157456Y-69475000D01*
G75*
G02*
X104425000Y-69742544I0J-267544D01*
G01*
X104425000Y-70732456D01*
G75*
G02*
X104157456Y-71000000I-267544J0D01*
G01*
G37*
%TD*%
%TO.C,R25*%
G36*
G01*
X141907456Y-68025000D02*
X140592544Y-68025000D01*
G75*
G02*
X140325000Y-67757456I0J267544D01*
G01*
X140325000Y-66767544D01*
G75*
G02*
X140592544Y-66500000I267544J0D01*
G01*
X141907456Y-66500000D01*
G75*
G02*
X142175000Y-66767544I0J-267544D01*
G01*
X142175000Y-67757456D01*
G75*
G02*
X141907456Y-68025000I-267544J0D01*
G01*
G37*
G36*
G01*
X141907456Y-71000000D02*
X140592544Y-71000000D01*
G75*
G02*
X140325000Y-70732456I0J267544D01*
G01*
X140325000Y-69742544D01*
G75*
G02*
X140592544Y-69475000I267544J0D01*
G01*
X141907456Y-69475000D01*
G75*
G02*
X142175000Y-69742544I0J-267544D01*
G01*
X142175000Y-70732456D01*
G75*
G02*
X141907456Y-71000000I-267544J0D01*
G01*
G37*
%TD*%
%TO.C,R24*%
G36*
G01*
X69525000Y-51592544D02*
X69525000Y-52907456D01*
G75*
G02*
X69257456Y-53175000I-267544J0D01*
G01*
X68267544Y-53175000D01*
G75*
G02*
X68000000Y-52907456I0J267544D01*
G01*
X68000000Y-51592544D01*
G75*
G02*
X68267544Y-51325000I267544J0D01*
G01*
X69257456Y-51325000D01*
G75*
G02*
X69525000Y-51592544I0J-267544D01*
G01*
G37*
G36*
G01*
X72500000Y-51592544D02*
X72500000Y-52907456D01*
G75*
G02*
X72232456Y-53175000I-267544J0D01*
G01*
X71242544Y-53175000D01*
G75*
G02*
X70975000Y-52907456I0J267544D01*
G01*
X70975000Y-51592544D01*
G75*
G02*
X71242544Y-51325000I267544J0D01*
G01*
X72232456Y-51325000D01*
G75*
G02*
X72500000Y-51592544I0J-267544D01*
G01*
G37*
%TD*%
%TO.C,R23*%
G36*
G01*
X110157456Y-68025000D02*
X108842544Y-68025000D01*
G75*
G02*
X108575000Y-67757456I0J267544D01*
G01*
X108575000Y-66767544D01*
G75*
G02*
X108842544Y-66500000I267544J0D01*
G01*
X110157456Y-66500000D01*
G75*
G02*
X110425000Y-66767544I0J-267544D01*
G01*
X110425000Y-67757456D01*
G75*
G02*
X110157456Y-68025000I-267544J0D01*
G01*
G37*
G36*
G01*
X110157456Y-71000000D02*
X108842544Y-71000000D01*
G75*
G02*
X108575000Y-70732456I0J267544D01*
G01*
X108575000Y-69742544D01*
G75*
G02*
X108842544Y-69475000I267544J0D01*
G01*
X110157456Y-69475000D01*
G75*
G02*
X110425000Y-69742544I0J-267544D01*
G01*
X110425000Y-70732456D01*
G75*
G02*
X110157456Y-71000000I-267544J0D01*
G01*
G37*
%TD*%
%TO.C,R22*%
G36*
G01*
X147907456Y-68025000D02*
X146592544Y-68025000D01*
G75*
G02*
X146325000Y-67757456I0J267544D01*
G01*
X146325000Y-66767544D01*
G75*
G02*
X146592544Y-66500000I267544J0D01*
G01*
X147907456Y-66500000D01*
G75*
G02*
X148175000Y-66767544I0J-267544D01*
G01*
X148175000Y-67757456D01*
G75*
G02*
X147907456Y-68025000I-267544J0D01*
G01*
G37*
G36*
G01*
X147907456Y-71000000D02*
X146592544Y-71000000D01*
G75*
G02*
X146325000Y-70732456I0J267544D01*
G01*
X146325000Y-69742544D01*
G75*
G02*
X146592544Y-69475000I267544J0D01*
G01*
X147907456Y-69475000D01*
G75*
G02*
X148175000Y-69742544I0J-267544D01*
G01*
X148175000Y-70732456D01*
G75*
G02*
X147907456Y-71000000I-267544J0D01*
G01*
G37*
%TD*%
%TO.C,R21*%
G36*
G01*
X105842544Y-69475000D02*
X107157456Y-69475000D01*
G75*
G02*
X107425000Y-69742544I0J-267544D01*
G01*
X107425000Y-70732456D01*
G75*
G02*
X107157456Y-71000000I-267544J0D01*
G01*
X105842544Y-71000000D01*
G75*
G02*
X105575000Y-70732456I0J267544D01*
G01*
X105575000Y-69742544D01*
G75*
G02*
X105842544Y-69475000I267544J0D01*
G01*
G37*
G36*
G01*
X105842544Y-66500000D02*
X107157456Y-66500000D01*
G75*
G02*
X107425000Y-66767544I0J-267544D01*
G01*
X107425000Y-67757456D01*
G75*
G02*
X107157456Y-68025000I-267544J0D01*
G01*
X105842544Y-68025000D01*
G75*
G02*
X105575000Y-67757456I0J267544D01*
G01*
X105575000Y-66767544D01*
G75*
G02*
X105842544Y-66500000I267544J0D01*
G01*
G37*
%TD*%
%TO.C,R20*%
G36*
G01*
X143592544Y-69475000D02*
X144907456Y-69475000D01*
G75*
G02*
X145175000Y-69742544I0J-267544D01*
G01*
X145175000Y-70732456D01*
G75*
G02*
X144907456Y-71000000I-267544J0D01*
G01*
X143592544Y-71000000D01*
G75*
G02*
X143325000Y-70732456I0J267544D01*
G01*
X143325000Y-69742544D01*
G75*
G02*
X143592544Y-69475000I267544J0D01*
G01*
G37*
G36*
G01*
X143592544Y-66500000D02*
X144907456Y-66500000D01*
G75*
G02*
X145175000Y-66767544I0J-267544D01*
G01*
X145175000Y-67757456D01*
G75*
G02*
X144907456Y-68025000I-267544J0D01*
G01*
X143592544Y-68025000D01*
G75*
G02*
X143325000Y-67757456I0J267544D01*
G01*
X143325000Y-66767544D01*
G75*
G02*
X143592544Y-66500000I267544J0D01*
G01*
G37*
%TD*%
%TO.C,R19*%
G36*
G01*
X111842544Y-69475000D02*
X113157456Y-69475000D01*
G75*
G02*
X113425000Y-69742544I0J-267544D01*
G01*
X113425000Y-70732456D01*
G75*
G02*
X113157456Y-71000000I-267544J0D01*
G01*
X111842544Y-71000000D01*
G75*
G02*
X111575000Y-70732456I0J267544D01*
G01*
X111575000Y-69742544D01*
G75*
G02*
X111842544Y-69475000I267544J0D01*
G01*
G37*
G36*
G01*
X111842544Y-66500000D02*
X113157456Y-66500000D01*
G75*
G02*
X113425000Y-66767544I0J-267544D01*
G01*
X113425000Y-67757456D01*
G75*
G02*
X113157456Y-68025000I-267544J0D01*
G01*
X111842544Y-68025000D01*
G75*
G02*
X111575000Y-67757456I0J267544D01*
G01*
X111575000Y-66767544D01*
G75*
G02*
X111842544Y-66500000I267544J0D01*
G01*
G37*
%TD*%
%TO.C,R18*%
G36*
G01*
X149592544Y-69475000D02*
X150907456Y-69475000D01*
G75*
G02*
X151175000Y-69742544I0J-267544D01*
G01*
X151175000Y-70732456D01*
G75*
G02*
X150907456Y-71000000I-267544J0D01*
G01*
X149592544Y-71000000D01*
G75*
G02*
X149325000Y-70732456I0J267544D01*
G01*
X149325000Y-69742544D01*
G75*
G02*
X149592544Y-69475000I267544J0D01*
G01*
G37*
G36*
G01*
X149592544Y-66500000D02*
X150907456Y-66500000D01*
G75*
G02*
X151175000Y-66767544I0J-267544D01*
G01*
X151175000Y-67757456D01*
G75*
G02*
X150907456Y-68025000I-267544J0D01*
G01*
X149592544Y-68025000D01*
G75*
G02*
X149325000Y-67757456I0J267544D01*
G01*
X149325000Y-66767544D01*
G75*
G02*
X149592544Y-66500000I267544J0D01*
G01*
G37*
%TD*%
%TO.C,R17*%
G36*
G01*
X155342544Y-56975000D02*
X156657456Y-56975000D01*
G75*
G02*
X156925000Y-57242544I0J-267544D01*
G01*
X156925000Y-58232456D01*
G75*
G02*
X156657456Y-58500000I-267544J0D01*
G01*
X155342544Y-58500000D01*
G75*
G02*
X155075000Y-58232456I0J267544D01*
G01*
X155075000Y-57242544D01*
G75*
G02*
X155342544Y-56975000I267544J0D01*
G01*
G37*
G36*
G01*
X155342544Y-54000000D02*
X156657456Y-54000000D01*
G75*
G02*
X156925000Y-54267544I0J-267544D01*
G01*
X156925000Y-55257456D01*
G75*
G02*
X156657456Y-55525000I-267544J0D01*
G01*
X155342544Y-55525000D01*
G75*
G02*
X155075000Y-55257456I0J267544D01*
G01*
X155075000Y-54267544D01*
G75*
G02*
X155342544Y-54000000I267544J0D01*
G01*
G37*
%TD*%
%TO.C,R16*%
G36*
G01*
X156775000Y-60342544D02*
X156775000Y-61657456D01*
G75*
G02*
X156507456Y-61925000I-267544J0D01*
G01*
X155517544Y-61925000D01*
G75*
G02*
X155250000Y-61657456I0J267544D01*
G01*
X155250000Y-60342544D01*
G75*
G02*
X155517544Y-60075000I267544J0D01*
G01*
X156507456Y-60075000D01*
G75*
G02*
X156775000Y-60342544I0J-267544D01*
G01*
G37*
G36*
G01*
X159750000Y-60342544D02*
X159750000Y-61657456D01*
G75*
G02*
X159482456Y-61925000I-267544J0D01*
G01*
X158492544Y-61925000D01*
G75*
G02*
X158225000Y-61657456I0J267544D01*
G01*
X158225000Y-60342544D01*
G75*
G02*
X158492544Y-60075000I267544J0D01*
G01*
X159482456Y-60075000D01*
G75*
G02*
X159750000Y-60342544I0J-267544D01*
G01*
G37*
%TD*%
%TO.C,R15*%
G36*
G01*
X159657456Y-55525000D02*
X158342544Y-55525000D01*
G75*
G02*
X158075000Y-55257456I0J267544D01*
G01*
X158075000Y-54267544D01*
G75*
G02*
X158342544Y-54000000I267544J0D01*
G01*
X159657456Y-54000000D01*
G75*
G02*
X159925000Y-54267544I0J-267544D01*
G01*
X159925000Y-55257456D01*
G75*
G02*
X159657456Y-55525000I-267544J0D01*
G01*
G37*
G36*
G01*
X159657456Y-58500000D02*
X158342544Y-58500000D01*
G75*
G02*
X158075000Y-58232456I0J267544D01*
G01*
X158075000Y-57242544D01*
G75*
G02*
X158342544Y-56975000I267544J0D01*
G01*
X159657456Y-56975000D01*
G75*
G02*
X159925000Y-57242544I0J-267544D01*
G01*
X159925000Y-58232456D01*
G75*
G02*
X159657456Y-58500000I-267544J0D01*
G01*
G37*
%TD*%
%TO.C,R14*%
G36*
G01*
X170842544Y-59225000D02*
X172157456Y-59225000D01*
G75*
G02*
X172425000Y-59492544I0J-267544D01*
G01*
X172425000Y-60482456D01*
G75*
G02*
X172157456Y-60750000I-267544J0D01*
G01*
X170842544Y-60750000D01*
G75*
G02*
X170575000Y-60482456I0J267544D01*
G01*
X170575000Y-59492544D01*
G75*
G02*
X170842544Y-59225000I267544J0D01*
G01*
G37*
G36*
G01*
X170842544Y-56250000D02*
X172157456Y-56250000D01*
G75*
G02*
X172425000Y-56517544I0J-267544D01*
G01*
X172425000Y-57507456D01*
G75*
G02*
X172157456Y-57775000I-267544J0D01*
G01*
X170842544Y-57775000D01*
G75*
G02*
X170575000Y-57507456I0J267544D01*
G01*
X170575000Y-56517544D01*
G75*
G02*
X170842544Y-56250000I267544J0D01*
G01*
G37*
%TD*%
%TO.C,R13*%
G36*
G01*
X156157456Y-68025000D02*
X154842544Y-68025000D01*
G75*
G02*
X154575000Y-67757456I0J267544D01*
G01*
X154575000Y-66767544D01*
G75*
G02*
X154842544Y-66500000I267544J0D01*
G01*
X156157456Y-66500000D01*
G75*
G02*
X156425000Y-66767544I0J-267544D01*
G01*
X156425000Y-67757456D01*
G75*
G02*
X156157456Y-68025000I-267544J0D01*
G01*
G37*
G36*
G01*
X156157456Y-71000000D02*
X154842544Y-71000000D01*
G75*
G02*
X154575000Y-70732456I0J267544D01*
G01*
X154575000Y-69742544D01*
G75*
G02*
X154842544Y-69475000I267544J0D01*
G01*
X156157456Y-69475000D01*
G75*
G02*
X156425000Y-69742544I0J-267544D01*
G01*
X156425000Y-70732456D01*
G75*
G02*
X156157456Y-71000000I-267544J0D01*
G01*
G37*
%TD*%
%TO.C,R12*%
G36*
G01*
X176342544Y-70725000D02*
X177657456Y-70725000D01*
G75*
G02*
X177925000Y-70992544I0J-267544D01*
G01*
X177925000Y-71982456D01*
G75*
G02*
X177657456Y-72250000I-267544J0D01*
G01*
X176342544Y-72250000D01*
G75*
G02*
X176075000Y-71982456I0J267544D01*
G01*
X176075000Y-70992544D01*
G75*
G02*
X176342544Y-70725000I267544J0D01*
G01*
G37*
G36*
G01*
X176342544Y-67750000D02*
X177657456Y-67750000D01*
G75*
G02*
X177925000Y-68017544I0J-267544D01*
G01*
X177925000Y-69007456D01*
G75*
G02*
X177657456Y-69275000I-267544J0D01*
G01*
X176342544Y-69275000D01*
G75*
G02*
X176075000Y-69007456I0J267544D01*
G01*
X176075000Y-68017544D01*
G75*
G02*
X176342544Y-67750000I267544J0D01*
G01*
G37*
%TD*%
%TO.C,R11*%
G36*
G01*
X157842544Y-69475000D02*
X159157456Y-69475000D01*
G75*
G02*
X159425000Y-69742544I0J-267544D01*
G01*
X159425000Y-70732456D01*
G75*
G02*
X159157456Y-71000000I-267544J0D01*
G01*
X157842544Y-71000000D01*
G75*
G02*
X157575000Y-70732456I0J267544D01*
G01*
X157575000Y-69742544D01*
G75*
G02*
X157842544Y-69475000I267544J0D01*
G01*
G37*
G36*
G01*
X157842544Y-66500000D02*
X159157456Y-66500000D01*
G75*
G02*
X159425000Y-66767544I0J-267544D01*
G01*
X159425000Y-67757456D01*
G75*
G02*
X159157456Y-68025000I-267544J0D01*
G01*
X157842544Y-68025000D01*
G75*
G02*
X157575000Y-67757456I0J267544D01*
G01*
X157575000Y-66767544D01*
G75*
G02*
X157842544Y-66500000I267544J0D01*
G01*
G37*
%TD*%
%TO.C,R10*%
G36*
G01*
X173342544Y-73725000D02*
X174657456Y-73725000D01*
G75*
G02*
X174925000Y-73992544I0J-267544D01*
G01*
X174925000Y-74982456D01*
G75*
G02*
X174657456Y-75250000I-267544J0D01*
G01*
X173342544Y-75250000D01*
G75*
G02*
X173075000Y-74982456I0J267544D01*
G01*
X173075000Y-73992544D01*
G75*
G02*
X173342544Y-73725000I267544J0D01*
G01*
G37*
G36*
G01*
X173342544Y-70750000D02*
X174657456Y-70750000D01*
G75*
G02*
X174925000Y-71017544I0J-267544D01*
G01*
X174925000Y-72007456D01*
G75*
G02*
X174657456Y-72275000I-267544J0D01*
G01*
X173342544Y-72275000D01*
G75*
G02*
X173075000Y-72007456I0J267544D01*
G01*
X173075000Y-71017544D01*
G75*
G02*
X173342544Y-70750000I267544J0D01*
G01*
G37*
%TD*%
%TO.C,R9*%
G36*
G01*
X160842544Y-72475000D02*
X162157456Y-72475000D01*
G75*
G02*
X162425000Y-72742544I0J-267544D01*
G01*
X162425000Y-73732456D01*
G75*
G02*
X162157456Y-74000000I-267544J0D01*
G01*
X160842544Y-74000000D01*
G75*
G02*
X160575000Y-73732456I0J267544D01*
G01*
X160575000Y-72742544D01*
G75*
G02*
X160842544Y-72475000I267544J0D01*
G01*
G37*
G36*
G01*
X160842544Y-69500000D02*
X162157456Y-69500000D01*
G75*
G02*
X162425000Y-69767544I0J-267544D01*
G01*
X162425000Y-70757456D01*
G75*
G02*
X162157456Y-71025000I-267544J0D01*
G01*
X160842544Y-71025000D01*
G75*
G02*
X160575000Y-70757456I0J267544D01*
G01*
X160575000Y-69767544D01*
G75*
G02*
X160842544Y-69500000I267544J0D01*
G01*
G37*
%TD*%
%TO.C,R8*%
G36*
G01*
X163725000Y-83157456D02*
X163725000Y-81842544D01*
G75*
G02*
X163992544Y-81575000I267544J0D01*
G01*
X164982456Y-81575000D01*
G75*
G02*
X165250000Y-81842544I0J-267544D01*
G01*
X165250000Y-83157456D01*
G75*
G02*
X164982456Y-83425000I-267544J0D01*
G01*
X163992544Y-83425000D01*
G75*
G02*
X163725000Y-83157456I0J267544D01*
G01*
G37*
G36*
G01*
X160750000Y-83157456D02*
X160750000Y-81842544D01*
G75*
G02*
X161017544Y-81575000I267544J0D01*
G01*
X162007456Y-81575000D01*
G75*
G02*
X162275000Y-81842544I0J-267544D01*
G01*
X162275000Y-83157456D01*
G75*
G02*
X162007456Y-83425000I-267544J0D01*
G01*
X161017544Y-83425000D01*
G75*
G02*
X160750000Y-83157456I0J267544D01*
G01*
G37*
%TD*%
%TO.C,R7*%
G36*
G01*
X170592544Y-88725000D02*
X171907456Y-88725000D01*
G75*
G02*
X172175000Y-88992544I0J-267544D01*
G01*
X172175000Y-89982456D01*
G75*
G02*
X171907456Y-90250000I-267544J0D01*
G01*
X170592544Y-90250000D01*
G75*
G02*
X170325000Y-89982456I0J267544D01*
G01*
X170325000Y-88992544D01*
G75*
G02*
X170592544Y-88725000I267544J0D01*
G01*
G37*
G36*
G01*
X170592544Y-85750000D02*
X171907456Y-85750000D01*
G75*
G02*
X172175000Y-86017544I0J-267544D01*
G01*
X172175000Y-87007456D01*
G75*
G02*
X171907456Y-87275000I-267544J0D01*
G01*
X170592544Y-87275000D01*
G75*
G02*
X170325000Y-87007456I0J267544D01*
G01*
X170325000Y-86017544D01*
G75*
G02*
X170592544Y-85750000I267544J0D01*
G01*
G37*
%TD*%
%TO.C,R6*%
G36*
G01*
X164907456Y-87275000D02*
X163592544Y-87275000D01*
G75*
G02*
X163325000Y-87007456I0J267544D01*
G01*
X163325000Y-86017544D01*
G75*
G02*
X163592544Y-85750000I267544J0D01*
G01*
X164907456Y-85750000D01*
G75*
G02*
X165175000Y-86017544I0J-267544D01*
G01*
X165175000Y-87007456D01*
G75*
G02*
X164907456Y-87275000I-267544J0D01*
G01*
G37*
G36*
G01*
X164907456Y-90250000D02*
X163592544Y-90250000D01*
G75*
G02*
X163325000Y-89982456I0J267544D01*
G01*
X163325000Y-88992544D01*
G75*
G02*
X163592544Y-88725000I267544J0D01*
G01*
X164907456Y-88725000D01*
G75*
G02*
X165175000Y-88992544I0J-267544D01*
G01*
X165175000Y-89982456D01*
G75*
G02*
X164907456Y-90250000I-267544J0D01*
G01*
G37*
%TD*%
%TO.C,R5*%
G36*
G01*
X167092544Y-88725000D02*
X168407456Y-88725000D01*
G75*
G02*
X168675000Y-88992544I0J-267544D01*
G01*
X168675000Y-89982456D01*
G75*
G02*
X168407456Y-90250000I-267544J0D01*
G01*
X167092544Y-90250000D01*
G75*
G02*
X166825000Y-89982456I0J267544D01*
G01*
X166825000Y-88992544D01*
G75*
G02*
X167092544Y-88725000I267544J0D01*
G01*
G37*
G36*
G01*
X167092544Y-85750000D02*
X168407456Y-85750000D01*
G75*
G02*
X168675000Y-86017544I0J-267544D01*
G01*
X168675000Y-87007456D01*
G75*
G02*
X168407456Y-87275000I-267544J0D01*
G01*
X167092544Y-87275000D01*
G75*
G02*
X166825000Y-87007456I0J267544D01*
G01*
X166825000Y-86017544D01*
G75*
G02*
X167092544Y-85750000I267544J0D01*
G01*
G37*
%TD*%
%TO.C,R2*%
G36*
G01*
X172092544Y-96225000D02*
X173407456Y-96225000D01*
G75*
G02*
X173675000Y-96492544I0J-267544D01*
G01*
X173675000Y-97482456D01*
G75*
G02*
X173407456Y-97750000I-267544J0D01*
G01*
X172092544Y-97750000D01*
G75*
G02*
X171825000Y-97482456I0J267544D01*
G01*
X171825000Y-96492544D01*
G75*
G02*
X172092544Y-96225000I267544J0D01*
G01*
G37*
G36*
G01*
X172092544Y-93250000D02*
X173407456Y-93250000D01*
G75*
G02*
X173675000Y-93517544I0J-267544D01*
G01*
X173675000Y-94507456D01*
G75*
G02*
X173407456Y-94775000I-267544J0D01*
G01*
X172092544Y-94775000D01*
G75*
G02*
X171825000Y-94507456I0J267544D01*
G01*
X171825000Y-93517544D01*
G75*
G02*
X172092544Y-93250000I267544J0D01*
G01*
G37*
%TD*%
%TO.C,R1*%
G36*
G01*
X162092544Y-96225000D02*
X163407456Y-96225000D01*
G75*
G02*
X163675000Y-96492544I0J-267544D01*
G01*
X163675000Y-97482456D01*
G75*
G02*
X163407456Y-97750000I-267544J0D01*
G01*
X162092544Y-97750000D01*
G75*
G02*
X161825000Y-97482456I0J267544D01*
G01*
X161825000Y-96492544D01*
G75*
G02*
X162092544Y-96225000I267544J0D01*
G01*
G37*
G36*
G01*
X162092544Y-93250000D02*
X163407456Y-93250000D01*
G75*
G02*
X163675000Y-93517544I0J-267544D01*
G01*
X163675000Y-94507456D01*
G75*
G02*
X163407456Y-94775000I-267544J0D01*
G01*
X162092544Y-94775000D01*
G75*
G02*
X161825000Y-94507456I0J267544D01*
G01*
X161825000Y-93517544D01*
G75*
G02*
X162092544Y-93250000I267544J0D01*
G01*
G37*
%TD*%
D14*
%TO.C,L1*%
X106150000Y-105060000D03*
X118850000Y-97440000D03*
%TD*%
D15*
%TO.C,J4*%
X146000000Y-87500000D03*
X142500000Y-87500000D03*
X139000000Y-87500000D03*
%TD*%
D16*
%TO.C,J3*%
X78750000Y-105000000D03*
X73750000Y-105000000D03*
X68750000Y-105000000D03*
%TD*%
%TO.C,J2*%
X92500000Y-105000000D03*
X87500000Y-105000000D03*
%TD*%
D15*
%TO.C,J1*%
X171250000Y-105000000D03*
X167750000Y-105000000D03*
X164250000Y-105000000D03*
%TD*%
D17*
%TO.C,D4*%
X105500000Y-80350000D03*
X105500000Y-83650000D03*
%TD*%
%TO.C,D3*%
X121250000Y-80350000D03*
X121250000Y-83650000D03*
%TD*%
%TO.C,D2*%
X108750000Y-83650000D03*
X108750000Y-80350000D03*
%TD*%
%TO.C,D1*%
X124500000Y-83650000D03*
X124500000Y-80350000D03*
%TD*%
D18*
%TO.C,C20*%
X88250000Y-90000000D03*
X93250000Y-90000000D03*
%TD*%
%TO.C,C19*%
X108500000Y-90000000D03*
X103500000Y-90000000D03*
%TD*%
%TO.C,C18*%
X120000000Y-90000000D03*
X125000000Y-90000000D03*
%TD*%
%TO.C,C17*%
X69500000Y-56700000D03*
D19*
X69500000Y-60500000D03*
%TD*%
D18*
%TO.C,C16*%
X177750000Y-94500000D03*
X177750000Y-89500000D03*
%TD*%
%TO.C,C15*%
X157750000Y-94500000D03*
X157750000Y-89500000D03*
%TD*%
%TO.C,C14*%
G36*
G01*
X170157456Y-94775000D02*
X168842544Y-94775000D01*
G75*
G02*
X168575000Y-94507456I0J267544D01*
G01*
X168575000Y-93517544D01*
G75*
G02*
X168842544Y-93250000I267544J0D01*
G01*
X170157456Y-93250000D01*
G75*
G02*
X170425000Y-93517544I0J-267544D01*
G01*
X170425000Y-94507456D01*
G75*
G02*
X170157456Y-94775000I-267544J0D01*
G01*
G37*
G36*
G01*
X170157456Y-97750000D02*
X168842544Y-97750000D01*
G75*
G02*
X168575000Y-97482456I0J267544D01*
G01*
X168575000Y-96492544D01*
G75*
G02*
X168842544Y-96225000I267544J0D01*
G01*
X170157456Y-96225000D01*
G75*
G02*
X170425000Y-96492544I0J-267544D01*
G01*
X170425000Y-97482456D01*
G75*
G02*
X170157456Y-97750000I-267544J0D01*
G01*
G37*
%TD*%
%TO.C,C13*%
G36*
G01*
X165342544Y-96225000D02*
X166657456Y-96225000D01*
G75*
G02*
X166925000Y-96492544I0J-267544D01*
G01*
X166925000Y-97482456D01*
G75*
G02*
X166657456Y-97750000I-267544J0D01*
G01*
X165342544Y-97750000D01*
G75*
G02*
X165075000Y-97482456I0J267544D01*
G01*
X165075000Y-96492544D01*
G75*
G02*
X165342544Y-96225000I267544J0D01*
G01*
G37*
G36*
G01*
X165342544Y-93250000D02*
X166657456Y-93250000D01*
G75*
G02*
X166925000Y-93517544I0J-267544D01*
G01*
X166925000Y-94507456D01*
G75*
G02*
X166657456Y-94775000I-267544J0D01*
G01*
X165342544Y-94775000D01*
G75*
G02*
X165075000Y-94507456I0J267544D01*
G01*
X165075000Y-93517544D01*
G75*
G02*
X165342544Y-93250000I267544J0D01*
G01*
G37*
%TD*%
D20*
%TO.C,C12*%
X65750000Y-71500000D03*
D21*
X73250000Y-71500000D03*
%TD*%
D20*
%TO.C,C11*%
X65750000Y-88500000D03*
D21*
X73250000Y-88500000D03*
%TD*%
%TO.C,C10*%
G36*
G01*
X81107456Y-57025000D02*
X78892544Y-57025000D01*
G75*
G02*
X78625000Y-56757456I0J267544D01*
G01*
X78625000Y-55767544D01*
G75*
G02*
X78892544Y-55500000I267544J0D01*
G01*
X81107456Y-55500000D01*
G75*
G02*
X81375000Y-55767544I0J-267544D01*
G01*
X81375000Y-56757456D01*
G75*
G02*
X81107456Y-57025000I-267544J0D01*
G01*
G37*
G36*
G01*
X81107456Y-60000000D02*
X78892544Y-60000000D01*
G75*
G02*
X78625000Y-59732456I0J267544D01*
G01*
X78625000Y-58742544D01*
G75*
G02*
X78892544Y-58475000I267544J0D01*
G01*
X81107456Y-58475000D01*
G75*
G02*
X81375000Y-58742544I0J-267544D01*
G01*
X81375000Y-59732456D01*
G75*
G02*
X81107456Y-60000000I-267544J0D01*
G01*
G37*
%TD*%
%TO.C,C9*%
G36*
G01*
X86107456Y-60025000D02*
X83892544Y-60025000D01*
G75*
G02*
X83625000Y-59757456I0J267544D01*
G01*
X83625000Y-58767544D01*
G75*
G02*
X83892544Y-58500000I267544J0D01*
G01*
X86107456Y-58500000D01*
G75*
G02*
X86375000Y-58767544I0J-267544D01*
G01*
X86375000Y-59757456D01*
G75*
G02*
X86107456Y-60025000I-267544J0D01*
G01*
G37*
G36*
G01*
X86107456Y-63000000D02*
X83892544Y-63000000D01*
G75*
G02*
X83625000Y-62732456I0J267544D01*
G01*
X83625000Y-61742544D01*
G75*
G02*
X83892544Y-61475000I267544J0D01*
G01*
X86107456Y-61475000D01*
G75*
G02*
X86375000Y-61742544I0J-267544D01*
G01*
X86375000Y-62732456D01*
G75*
G02*
X86107456Y-63000000I-267544J0D01*
G01*
G37*
%TD*%
%TO.C,C8*%
G36*
G01*
X118607456Y-57025000D02*
X116392544Y-57025000D01*
G75*
G02*
X116125000Y-56757456I0J267544D01*
G01*
X116125000Y-55767544D01*
G75*
G02*
X116392544Y-55500000I267544J0D01*
G01*
X118607456Y-55500000D01*
G75*
G02*
X118875000Y-55767544I0J-267544D01*
G01*
X118875000Y-56757456D01*
G75*
G02*
X118607456Y-57025000I-267544J0D01*
G01*
G37*
G36*
G01*
X118607456Y-60000000D02*
X116392544Y-60000000D01*
G75*
G02*
X116125000Y-59732456I0J267544D01*
G01*
X116125000Y-58742544D01*
G75*
G02*
X116392544Y-58475000I267544J0D01*
G01*
X118607456Y-58475000D01*
G75*
G02*
X118875000Y-58742544I0J-267544D01*
G01*
X118875000Y-59732456D01*
G75*
G02*
X118607456Y-60000000I-267544J0D01*
G01*
G37*
%TD*%
%TO.C,C7*%
G36*
G01*
X123607456Y-60025000D02*
X121392544Y-60025000D01*
G75*
G02*
X121125000Y-59757456I0J267544D01*
G01*
X121125000Y-58767544D01*
G75*
G02*
X121392544Y-58500000I267544J0D01*
G01*
X123607456Y-58500000D01*
G75*
G02*
X123875000Y-58767544I0J-267544D01*
G01*
X123875000Y-59757456D01*
G75*
G02*
X123607456Y-60025000I-267544J0D01*
G01*
G37*
G36*
G01*
X123607456Y-63000000D02*
X121392544Y-63000000D01*
G75*
G02*
X121125000Y-62732456I0J267544D01*
G01*
X121125000Y-61742544D01*
G75*
G02*
X121392544Y-61475000I267544J0D01*
G01*
X123607456Y-61475000D01*
G75*
G02*
X123875000Y-61742544I0J-267544D01*
G01*
X123875000Y-62732456D01*
G75*
G02*
X123607456Y-63000000I-267544J0D01*
G01*
G37*
%TD*%
%TO.C,C6*%
G36*
G01*
X116725000Y-77907456D02*
X116725000Y-76592544D01*
G75*
G02*
X116992544Y-76325000I267544J0D01*
G01*
X117982456Y-76325000D01*
G75*
G02*
X118250000Y-76592544I0J-267544D01*
G01*
X118250000Y-77907456D01*
G75*
G02*
X117982456Y-78175000I-267544J0D01*
G01*
X116992544Y-78175000D01*
G75*
G02*
X116725000Y-77907456I0J267544D01*
G01*
G37*
G36*
G01*
X113750000Y-77907456D02*
X113750000Y-76592544D01*
G75*
G02*
X114017544Y-76325000I267544J0D01*
G01*
X115007456Y-76325000D01*
G75*
G02*
X115275000Y-76592544I0J-267544D01*
G01*
X115275000Y-77907456D01*
G75*
G02*
X115007456Y-78175000I-267544J0D01*
G01*
X114017544Y-78175000D01*
G75*
G02*
X113750000Y-77907456I0J267544D01*
G01*
G37*
%TD*%
%TO.C,C5*%
G36*
G01*
X114725000Y-88657456D02*
X114725000Y-87342544D01*
G75*
G02*
X114992544Y-87075000I267544J0D01*
G01*
X115982456Y-87075000D01*
G75*
G02*
X116250000Y-87342544I0J-267544D01*
G01*
X116250000Y-88657456D01*
G75*
G02*
X115982456Y-88925000I-267544J0D01*
G01*
X114992544Y-88925000D01*
G75*
G02*
X114725000Y-88657456I0J267544D01*
G01*
G37*
G36*
G01*
X111750000Y-88657456D02*
X111750000Y-87342544D01*
G75*
G02*
X112017544Y-87075000I267544J0D01*
G01*
X113007456Y-87075000D01*
G75*
G02*
X113275000Y-87342544I0J-267544D01*
G01*
X113275000Y-88657456D01*
G75*
G02*
X113007456Y-88925000I-267544J0D01*
G01*
X112017544Y-88925000D01*
G75*
G02*
X111750000Y-88657456I0J267544D01*
G01*
G37*
%TD*%
%TO.C,C4*%
G36*
G01*
X163525000Y-62842544D02*
X163525000Y-64157456D01*
G75*
G02*
X163257456Y-64425000I-267544J0D01*
G01*
X162267544Y-64425000D01*
G75*
G02*
X162000000Y-64157456I0J267544D01*
G01*
X162000000Y-62842544D01*
G75*
G02*
X162267544Y-62575000I267544J0D01*
G01*
X163257456Y-62575000D01*
G75*
G02*
X163525000Y-62842544I0J-267544D01*
G01*
G37*
G36*
G01*
X166500000Y-62842544D02*
X166500000Y-64157456D01*
G75*
G02*
X166232456Y-64425000I-267544J0D01*
G01*
X165242544Y-64425000D01*
G75*
G02*
X164975000Y-64157456I0J267544D01*
G01*
X164975000Y-62842544D01*
G75*
G02*
X165242544Y-62575000I267544J0D01*
G01*
X166232456Y-62575000D01*
G75*
G02*
X166500000Y-62842544I0J-267544D01*
G01*
G37*
%TD*%
%TO.C,C3*%
G36*
G01*
X165525000Y-52842544D02*
X165525000Y-54157456D01*
G75*
G02*
X165257456Y-54425000I-267544J0D01*
G01*
X164267544Y-54425000D01*
G75*
G02*
X164000000Y-54157456I0J267544D01*
G01*
X164000000Y-52842544D01*
G75*
G02*
X164267544Y-52575000I267544J0D01*
G01*
X165257456Y-52575000D01*
G75*
G02*
X165525000Y-52842544I0J-267544D01*
G01*
G37*
G36*
G01*
X168500000Y-52842544D02*
X168500000Y-54157456D01*
G75*
G02*
X168232456Y-54425000I-267544J0D01*
G01*
X167242544Y-54425000D01*
G75*
G02*
X166975000Y-54157456I0J267544D01*
G01*
X166975000Y-52842544D01*
G75*
G02*
X167242544Y-52575000I267544J0D01*
G01*
X168232456Y-52575000D01*
G75*
G02*
X168500000Y-52842544I0J-267544D01*
G01*
G37*
%TD*%
%TO.C,C2*%
G36*
G01*
X166025000Y-77342544D02*
X166025000Y-78657456D01*
G75*
G02*
X165757456Y-78925000I-267544J0D01*
G01*
X164767544Y-78925000D01*
G75*
G02*
X164500000Y-78657456I0J267544D01*
G01*
X164500000Y-77342544D01*
G75*
G02*
X164767544Y-77075000I267544J0D01*
G01*
X165757456Y-77075000D01*
G75*
G02*
X166025000Y-77342544I0J-267544D01*
G01*
G37*
G36*
G01*
X169000000Y-77342544D02*
X169000000Y-78657456D01*
G75*
G02*
X168732456Y-78925000I-267544J0D01*
G01*
X167742544Y-78925000D01*
G75*
G02*
X167475000Y-78657456I0J267544D01*
G01*
X167475000Y-77342544D01*
G75*
G02*
X167742544Y-77075000I267544J0D01*
G01*
X168732456Y-77075000D01*
G75*
G02*
X169000000Y-77342544I0J-267544D01*
G01*
G37*
%TD*%
%TO.C,C1*%
G36*
G01*
X168275000Y-67342544D02*
X168275000Y-68657456D01*
G75*
G02*
X168007456Y-68925000I-267544J0D01*
G01*
X167017544Y-68925000D01*
G75*
G02*
X166750000Y-68657456I0J267544D01*
G01*
X166750000Y-67342544D01*
G75*
G02*
X167017544Y-67075000I267544J0D01*
G01*
X168007456Y-67075000D01*
G75*
G02*
X168275000Y-67342544I0J-267544D01*
G01*
G37*
G36*
G01*
X171250000Y-67342544D02*
X171250000Y-68657456D01*
G75*
G02*
X170982456Y-68925000I-267544J0D01*
G01*
X169992544Y-68925000D01*
G75*
G02*
X169725000Y-68657456I0J267544D01*
G01*
X169725000Y-67342544D01*
G75*
G02*
X169992544Y-67075000I267544J0D01*
G01*
X170982456Y-67075000D01*
G75*
G02*
X171250000Y-67342544I0J-267544D01*
G01*
G37*
%TD*%
M02*
