%TF.GenerationSoftware,KiCad,Pcbnew,(5.1.6-0)*%
%TF.CreationDate,2023-07-03T12:35:29-07:00*%
%TF.ProjectId,LM3886x2_inv_bal_servo,4c4d3338-3836-4783-925f-696e765f6261,rev?*%
%TF.SameCoordinates,Original*%
%TF.FileFunction,Paste,Top*%
%TF.FilePolarity,Positive*%
%FSLAX46Y46*%
G04 Gerber Fmt 4.6, Leading zero omitted, Abs format (unit mm)*
G04 Created by KiCad (PCBNEW (5.1.6-0)) date 2023-07-03 12:35:29*
%MOMM*%
%LPD*%
G01*
G04 APERTURE LIST*
%ADD10R,1.200000X0.900000*%
G04 APERTURE END LIST*
%TO.C,R3*%
G36*
G01*
X173275000Y-83125000D02*
X173275000Y-81875000D01*
G75*
G02*
X173525000Y-81625000I250000J0D01*
G01*
X174450000Y-81625000D01*
G75*
G02*
X174700000Y-81875000I0J-250000D01*
G01*
X174700000Y-83125000D01*
G75*
G02*
X174450000Y-83375000I-250000J0D01*
G01*
X173525000Y-83375000D01*
G75*
G02*
X173275000Y-83125000I0J250000D01*
G01*
G37*
G36*
G01*
X170300000Y-83125000D02*
X170300000Y-81875000D01*
G75*
G02*
X170550000Y-81625000I250000J0D01*
G01*
X171475000Y-81625000D01*
G75*
G02*
X171725000Y-81875000I0J-250000D01*
G01*
X171725000Y-83125000D01*
G75*
G02*
X171475000Y-83375000I-250000J0D01*
G01*
X170550000Y-83375000D01*
G75*
G02*
X170300000Y-83125000I0J250000D01*
G01*
G37*
%TD*%
%TO.C,DNP4*%
G36*
G01*
X101125000Y-67975000D02*
X99875000Y-67975000D01*
G75*
G02*
X99625000Y-67725000I0J250000D01*
G01*
X99625000Y-66800000D01*
G75*
G02*
X99875000Y-66550000I250000J0D01*
G01*
X101125000Y-66550000D01*
G75*
G02*
X101375000Y-66800000I0J-250000D01*
G01*
X101375000Y-67725000D01*
G75*
G02*
X101125000Y-67975000I-250000J0D01*
G01*
G37*
G36*
G01*
X101125000Y-70950000D02*
X99875000Y-70950000D01*
G75*
G02*
X99625000Y-70700000I0J250000D01*
G01*
X99625000Y-69775000D01*
G75*
G02*
X99875000Y-69525000I250000J0D01*
G01*
X101125000Y-69525000D01*
G75*
G02*
X101375000Y-69775000I0J-250000D01*
G01*
X101375000Y-70700000D01*
G75*
G02*
X101125000Y-70950000I-250000J0D01*
G01*
G37*
%TD*%
%TO.C,DNP3*%
G36*
G01*
X138875000Y-67975000D02*
X137625000Y-67975000D01*
G75*
G02*
X137375000Y-67725000I0J250000D01*
G01*
X137375000Y-66800000D01*
G75*
G02*
X137625000Y-66550000I250000J0D01*
G01*
X138875000Y-66550000D01*
G75*
G02*
X139125000Y-66800000I0J-250000D01*
G01*
X139125000Y-67725000D01*
G75*
G02*
X138875000Y-67975000I-250000J0D01*
G01*
G37*
G36*
G01*
X138875000Y-70950000D02*
X137625000Y-70950000D01*
G75*
G02*
X137375000Y-70700000I0J250000D01*
G01*
X137375000Y-69775000D01*
G75*
G02*
X137625000Y-69525000I250000J0D01*
G01*
X138875000Y-69525000D01*
G75*
G02*
X139125000Y-69775000I0J-250000D01*
G01*
X139125000Y-70700000D01*
G75*
G02*
X138875000Y-70950000I-250000J0D01*
G01*
G37*
%TD*%
%TO.C,DNP2*%
G36*
G01*
X102725000Y-64200001D02*
X102725000Y-63299999D01*
G75*
G02*
X102974999Y-63050000I249999J0D01*
G01*
X103625001Y-63050000D01*
G75*
G02*
X103875000Y-63299999I0J-249999D01*
G01*
X103875000Y-64200001D01*
G75*
G02*
X103625001Y-64450000I-249999J0D01*
G01*
X102974999Y-64450000D01*
G75*
G02*
X102725000Y-64200001I0J249999D01*
G01*
G37*
G36*
G01*
X100675000Y-64200001D02*
X100675000Y-63299999D01*
G75*
G02*
X100924999Y-63050000I249999J0D01*
G01*
X101575001Y-63050000D01*
G75*
G02*
X101825000Y-63299999I0J-249999D01*
G01*
X101825000Y-64200001D01*
G75*
G02*
X101575001Y-64450000I-249999J0D01*
G01*
X100924999Y-64450000D01*
G75*
G02*
X100675000Y-64200001I0J249999D01*
G01*
G37*
%TD*%
%TO.C,DNP1*%
G36*
G01*
X140450000Y-64200001D02*
X140450000Y-63299999D01*
G75*
G02*
X140699999Y-63050000I249999J0D01*
G01*
X141350001Y-63050000D01*
G75*
G02*
X141600000Y-63299999I0J-249999D01*
G01*
X141600000Y-64200001D01*
G75*
G02*
X141350001Y-64450000I-249999J0D01*
G01*
X140699999Y-64450000D01*
G75*
G02*
X140450000Y-64200001I0J249999D01*
G01*
G37*
G36*
G01*
X138400000Y-64200001D02*
X138400000Y-63299999D01*
G75*
G02*
X138649999Y-63050000I249999J0D01*
G01*
X139300001Y-63050000D01*
G75*
G02*
X139550000Y-63299999I0J-249999D01*
G01*
X139550000Y-64200001D01*
G75*
G02*
X139300001Y-64450000I-249999J0D01*
G01*
X138649999Y-64450000D01*
G75*
G02*
X138400000Y-64200001I0J249999D01*
G01*
G37*
%TD*%
%TO.C,U3*%
G36*
G01*
X113500000Y-84255000D02*
X113500000Y-84555000D01*
G75*
G02*
X113350000Y-84705000I-150000J0D01*
G01*
X111700000Y-84705000D01*
G75*
G02*
X111550000Y-84555000I0J150000D01*
G01*
X111550000Y-84255000D01*
G75*
G02*
X111700000Y-84105000I150000J0D01*
G01*
X113350000Y-84105000D01*
G75*
G02*
X113500000Y-84255000I0J-150000D01*
G01*
G37*
G36*
G01*
X113500000Y-82985000D02*
X113500000Y-83285000D01*
G75*
G02*
X113350000Y-83435000I-150000J0D01*
G01*
X111700000Y-83435000D01*
G75*
G02*
X111550000Y-83285000I0J150000D01*
G01*
X111550000Y-82985000D01*
G75*
G02*
X111700000Y-82835000I150000J0D01*
G01*
X113350000Y-82835000D01*
G75*
G02*
X113500000Y-82985000I0J-150000D01*
G01*
G37*
G36*
G01*
X113500000Y-81715000D02*
X113500000Y-82015000D01*
G75*
G02*
X113350000Y-82165000I-150000J0D01*
G01*
X111700000Y-82165000D01*
G75*
G02*
X111550000Y-82015000I0J150000D01*
G01*
X111550000Y-81715000D01*
G75*
G02*
X111700000Y-81565000I150000J0D01*
G01*
X113350000Y-81565000D01*
G75*
G02*
X113500000Y-81715000I0J-150000D01*
G01*
G37*
G36*
G01*
X113500000Y-80445000D02*
X113500000Y-80745000D01*
G75*
G02*
X113350000Y-80895000I-150000J0D01*
G01*
X111700000Y-80895000D01*
G75*
G02*
X111550000Y-80745000I0J150000D01*
G01*
X111550000Y-80445000D01*
G75*
G02*
X111700000Y-80295000I150000J0D01*
G01*
X113350000Y-80295000D01*
G75*
G02*
X113500000Y-80445000I0J-150000D01*
G01*
G37*
G36*
G01*
X118450000Y-80445000D02*
X118450000Y-80745000D01*
G75*
G02*
X118300000Y-80895000I-150000J0D01*
G01*
X116650000Y-80895000D01*
G75*
G02*
X116500000Y-80745000I0J150000D01*
G01*
X116500000Y-80445000D01*
G75*
G02*
X116650000Y-80295000I150000J0D01*
G01*
X118300000Y-80295000D01*
G75*
G02*
X118450000Y-80445000I0J-150000D01*
G01*
G37*
G36*
G01*
X118450000Y-81715000D02*
X118450000Y-82015000D01*
G75*
G02*
X118300000Y-82165000I-150000J0D01*
G01*
X116650000Y-82165000D01*
G75*
G02*
X116500000Y-82015000I0J150000D01*
G01*
X116500000Y-81715000D01*
G75*
G02*
X116650000Y-81565000I150000J0D01*
G01*
X118300000Y-81565000D01*
G75*
G02*
X118450000Y-81715000I0J-150000D01*
G01*
G37*
G36*
G01*
X118450000Y-82985000D02*
X118450000Y-83285000D01*
G75*
G02*
X118300000Y-83435000I-150000J0D01*
G01*
X116650000Y-83435000D01*
G75*
G02*
X116500000Y-83285000I0J150000D01*
G01*
X116500000Y-82985000D01*
G75*
G02*
X116650000Y-82835000I150000J0D01*
G01*
X118300000Y-82835000D01*
G75*
G02*
X118450000Y-82985000I0J-150000D01*
G01*
G37*
G36*
G01*
X118450000Y-84255000D02*
X118450000Y-84555000D01*
G75*
G02*
X118300000Y-84705000I-150000J0D01*
G01*
X116650000Y-84705000D01*
G75*
G02*
X116500000Y-84555000I0J150000D01*
G01*
X116500000Y-84255000D01*
G75*
G02*
X116650000Y-84105000I150000J0D01*
G01*
X118300000Y-84105000D01*
G75*
G02*
X118450000Y-84255000I0J-150000D01*
G01*
G37*
%TD*%
%TO.C,U2*%
G36*
G01*
X166750000Y-56745000D02*
X166750000Y-56445000D01*
G75*
G02*
X166900000Y-56295000I150000J0D01*
G01*
X168550000Y-56295000D01*
G75*
G02*
X168700000Y-56445000I0J-150000D01*
G01*
X168700000Y-56745000D01*
G75*
G02*
X168550000Y-56895000I-150000J0D01*
G01*
X166900000Y-56895000D01*
G75*
G02*
X166750000Y-56745000I0J150000D01*
G01*
G37*
G36*
G01*
X166750000Y-58015000D02*
X166750000Y-57715000D01*
G75*
G02*
X166900000Y-57565000I150000J0D01*
G01*
X168550000Y-57565000D01*
G75*
G02*
X168700000Y-57715000I0J-150000D01*
G01*
X168700000Y-58015000D01*
G75*
G02*
X168550000Y-58165000I-150000J0D01*
G01*
X166900000Y-58165000D01*
G75*
G02*
X166750000Y-58015000I0J150000D01*
G01*
G37*
G36*
G01*
X166750000Y-59285000D02*
X166750000Y-58985000D01*
G75*
G02*
X166900000Y-58835000I150000J0D01*
G01*
X168550000Y-58835000D01*
G75*
G02*
X168700000Y-58985000I0J-150000D01*
G01*
X168700000Y-59285000D01*
G75*
G02*
X168550000Y-59435000I-150000J0D01*
G01*
X166900000Y-59435000D01*
G75*
G02*
X166750000Y-59285000I0J150000D01*
G01*
G37*
G36*
G01*
X166750000Y-60555000D02*
X166750000Y-60255000D01*
G75*
G02*
X166900000Y-60105000I150000J0D01*
G01*
X168550000Y-60105000D01*
G75*
G02*
X168700000Y-60255000I0J-150000D01*
G01*
X168700000Y-60555000D01*
G75*
G02*
X168550000Y-60705000I-150000J0D01*
G01*
X166900000Y-60705000D01*
G75*
G02*
X166750000Y-60555000I0J150000D01*
G01*
G37*
G36*
G01*
X161800000Y-60555000D02*
X161800000Y-60255000D01*
G75*
G02*
X161950000Y-60105000I150000J0D01*
G01*
X163600000Y-60105000D01*
G75*
G02*
X163750000Y-60255000I0J-150000D01*
G01*
X163750000Y-60555000D01*
G75*
G02*
X163600000Y-60705000I-150000J0D01*
G01*
X161950000Y-60705000D01*
G75*
G02*
X161800000Y-60555000I0J150000D01*
G01*
G37*
G36*
G01*
X161800000Y-59285000D02*
X161800000Y-58985000D01*
G75*
G02*
X161950000Y-58835000I150000J0D01*
G01*
X163600000Y-58835000D01*
G75*
G02*
X163750000Y-58985000I0J-150000D01*
G01*
X163750000Y-59285000D01*
G75*
G02*
X163600000Y-59435000I-150000J0D01*
G01*
X161950000Y-59435000D01*
G75*
G02*
X161800000Y-59285000I0J150000D01*
G01*
G37*
G36*
G01*
X161800000Y-58015000D02*
X161800000Y-57715000D01*
G75*
G02*
X161950000Y-57565000I150000J0D01*
G01*
X163600000Y-57565000D01*
G75*
G02*
X163750000Y-57715000I0J-150000D01*
G01*
X163750000Y-58015000D01*
G75*
G02*
X163600000Y-58165000I-150000J0D01*
G01*
X161950000Y-58165000D01*
G75*
G02*
X161800000Y-58015000I0J150000D01*
G01*
G37*
G36*
G01*
X161800000Y-56745000D02*
X161800000Y-56445000D01*
G75*
G02*
X161950000Y-56295000I150000J0D01*
G01*
X163600000Y-56295000D01*
G75*
G02*
X163750000Y-56445000I0J-150000D01*
G01*
X163750000Y-56745000D01*
G75*
G02*
X163600000Y-56895000I-150000J0D01*
G01*
X161950000Y-56895000D01*
G75*
G02*
X161800000Y-56745000I0J150000D01*
G01*
G37*
%TD*%
%TO.C,U1*%
G36*
G01*
X169250000Y-71245000D02*
X169250000Y-70945000D01*
G75*
G02*
X169400000Y-70795000I150000J0D01*
G01*
X171050000Y-70795000D01*
G75*
G02*
X171200000Y-70945000I0J-150000D01*
G01*
X171200000Y-71245000D01*
G75*
G02*
X171050000Y-71395000I-150000J0D01*
G01*
X169400000Y-71395000D01*
G75*
G02*
X169250000Y-71245000I0J150000D01*
G01*
G37*
G36*
G01*
X169250000Y-72515000D02*
X169250000Y-72215000D01*
G75*
G02*
X169400000Y-72065000I150000J0D01*
G01*
X171050000Y-72065000D01*
G75*
G02*
X171200000Y-72215000I0J-150000D01*
G01*
X171200000Y-72515000D01*
G75*
G02*
X171050000Y-72665000I-150000J0D01*
G01*
X169400000Y-72665000D01*
G75*
G02*
X169250000Y-72515000I0J150000D01*
G01*
G37*
G36*
G01*
X169250000Y-73785000D02*
X169250000Y-73485000D01*
G75*
G02*
X169400000Y-73335000I150000J0D01*
G01*
X171050000Y-73335000D01*
G75*
G02*
X171200000Y-73485000I0J-150000D01*
G01*
X171200000Y-73785000D01*
G75*
G02*
X171050000Y-73935000I-150000J0D01*
G01*
X169400000Y-73935000D01*
G75*
G02*
X169250000Y-73785000I0J150000D01*
G01*
G37*
G36*
G01*
X169250000Y-75055000D02*
X169250000Y-74755000D01*
G75*
G02*
X169400000Y-74605000I150000J0D01*
G01*
X171050000Y-74605000D01*
G75*
G02*
X171200000Y-74755000I0J-150000D01*
G01*
X171200000Y-75055000D01*
G75*
G02*
X171050000Y-75205000I-150000J0D01*
G01*
X169400000Y-75205000D01*
G75*
G02*
X169250000Y-75055000I0J150000D01*
G01*
G37*
G36*
G01*
X164300000Y-75055000D02*
X164300000Y-74755000D01*
G75*
G02*
X164450000Y-74605000I150000J0D01*
G01*
X166100000Y-74605000D01*
G75*
G02*
X166250000Y-74755000I0J-150000D01*
G01*
X166250000Y-75055000D01*
G75*
G02*
X166100000Y-75205000I-150000J0D01*
G01*
X164450000Y-75205000D01*
G75*
G02*
X164300000Y-75055000I0J150000D01*
G01*
G37*
G36*
G01*
X164300000Y-73785000D02*
X164300000Y-73485000D01*
G75*
G02*
X164450000Y-73335000I150000J0D01*
G01*
X166100000Y-73335000D01*
G75*
G02*
X166250000Y-73485000I0J-150000D01*
G01*
X166250000Y-73785000D01*
G75*
G02*
X166100000Y-73935000I-150000J0D01*
G01*
X164450000Y-73935000D01*
G75*
G02*
X164300000Y-73785000I0J150000D01*
G01*
G37*
G36*
G01*
X164300000Y-72515000D02*
X164300000Y-72215000D01*
G75*
G02*
X164450000Y-72065000I150000J0D01*
G01*
X166100000Y-72065000D01*
G75*
G02*
X166250000Y-72215000I0J-150000D01*
G01*
X166250000Y-72515000D01*
G75*
G02*
X166100000Y-72665000I-150000J0D01*
G01*
X164450000Y-72665000D01*
G75*
G02*
X164300000Y-72515000I0J150000D01*
G01*
G37*
G36*
G01*
X164300000Y-71245000D02*
X164300000Y-70945000D01*
G75*
G02*
X164450000Y-70795000I150000J0D01*
G01*
X166100000Y-70795000D01*
G75*
G02*
X166250000Y-70945000I0J-150000D01*
G01*
X166250000Y-71245000D01*
G75*
G02*
X166100000Y-71395000I-150000J0D01*
G01*
X164450000Y-71395000D01*
G75*
G02*
X164300000Y-71245000I0J150000D01*
G01*
G37*
%TD*%
%TO.C,R32*%
G36*
G01*
X101675001Y-99775000D02*
X98824999Y-99775000D01*
G75*
G02*
X98575000Y-99525001I0J249999D01*
G01*
X98575000Y-98499999D01*
G75*
G02*
X98824999Y-98250000I249999J0D01*
G01*
X101675001Y-98250000D01*
G75*
G02*
X101925000Y-98499999I0J-249999D01*
G01*
X101925000Y-99525001D01*
G75*
G02*
X101675001Y-99775000I-249999J0D01*
G01*
G37*
G36*
G01*
X101675001Y-105750000D02*
X98824999Y-105750000D01*
G75*
G02*
X98575000Y-105500001I0J249999D01*
G01*
X98575000Y-104474999D01*
G75*
G02*
X98824999Y-104225000I249999J0D01*
G01*
X101675001Y-104225000D01*
G75*
G02*
X101925000Y-104474999I0J-249999D01*
G01*
X101925000Y-105500001D01*
G75*
G02*
X101675001Y-105750000I-249999J0D01*
G01*
G37*
%TD*%
%TO.C,R31*%
G36*
G01*
X89675001Y-80275000D02*
X86824999Y-80275000D01*
G75*
G02*
X86575000Y-80025001I0J249999D01*
G01*
X86575000Y-78999999D01*
G75*
G02*
X86824999Y-78750000I249999J0D01*
G01*
X89675001Y-78750000D01*
G75*
G02*
X89925000Y-78999999I0J-249999D01*
G01*
X89925000Y-80025001D01*
G75*
G02*
X89675001Y-80275000I-249999J0D01*
G01*
G37*
G36*
G01*
X89675001Y-86250000D02*
X86824999Y-86250000D01*
G75*
G02*
X86575000Y-86000001I0J249999D01*
G01*
X86575000Y-84974999D01*
G75*
G02*
X86824999Y-84725000I249999J0D01*
G01*
X89675001Y-84725000D01*
G75*
G02*
X89925000Y-84974999I0J-249999D01*
G01*
X89925000Y-86000001D01*
G75*
G02*
X89675001Y-86250000I-249999J0D01*
G01*
G37*
%TD*%
%TO.C,R30*%
G36*
G01*
X94675001Y-70275000D02*
X91824999Y-70275000D01*
G75*
G02*
X91575000Y-70025001I0J249999D01*
G01*
X91575000Y-68999999D01*
G75*
G02*
X91824999Y-68750000I249999J0D01*
G01*
X94675001Y-68750000D01*
G75*
G02*
X94925000Y-68999999I0J-249999D01*
G01*
X94925000Y-70025001D01*
G75*
G02*
X94675001Y-70275000I-249999J0D01*
G01*
G37*
G36*
G01*
X94675001Y-76250000D02*
X91824999Y-76250000D01*
G75*
G02*
X91575000Y-76000001I0J249999D01*
G01*
X91575000Y-74974999D01*
G75*
G02*
X91824999Y-74725000I249999J0D01*
G01*
X94675001Y-74725000D01*
G75*
G02*
X94925000Y-74974999I0J-249999D01*
G01*
X94925000Y-76000001D01*
G75*
G02*
X94675001Y-76250000I-249999J0D01*
G01*
G37*
%TD*%
%TO.C,R29*%
G36*
G01*
X132175001Y-70275000D02*
X129324999Y-70275000D01*
G75*
G02*
X129075000Y-70025001I0J249999D01*
G01*
X129075000Y-68999999D01*
G75*
G02*
X129324999Y-68750000I249999J0D01*
G01*
X132175001Y-68750000D01*
G75*
G02*
X132425000Y-68999999I0J-249999D01*
G01*
X132425000Y-70025001D01*
G75*
G02*
X132175001Y-70275000I-249999J0D01*
G01*
G37*
G36*
G01*
X132175001Y-76250000D02*
X129324999Y-76250000D01*
G75*
G02*
X129075000Y-76000001I0J249999D01*
G01*
X129075000Y-74974999D01*
G75*
G02*
X129324999Y-74725000I249999J0D01*
G01*
X132175001Y-74725000D01*
G75*
G02*
X132425000Y-74974999I0J-249999D01*
G01*
X132425000Y-76000001D01*
G75*
G02*
X132175001Y-76250000I-249999J0D01*
G01*
G37*
%TD*%
%TO.C,R28*%
G36*
G01*
X98125000Y-70975000D02*
X96875000Y-70975000D01*
G75*
G02*
X96625000Y-70725000I0J250000D01*
G01*
X96625000Y-69800000D01*
G75*
G02*
X96875000Y-69550000I250000J0D01*
G01*
X98125000Y-69550000D01*
G75*
G02*
X98375000Y-69800000I0J-250000D01*
G01*
X98375000Y-70725000D01*
G75*
G02*
X98125000Y-70975000I-250000J0D01*
G01*
G37*
G36*
G01*
X98125000Y-73950000D02*
X96875000Y-73950000D01*
G75*
G02*
X96625000Y-73700000I0J250000D01*
G01*
X96625000Y-72775000D01*
G75*
G02*
X96875000Y-72525000I250000J0D01*
G01*
X98125000Y-72525000D01*
G75*
G02*
X98375000Y-72775000I0J-250000D01*
G01*
X98375000Y-73700000D01*
G75*
G02*
X98125000Y-73950000I-250000J0D01*
G01*
G37*
%TD*%
%TO.C,R27*%
G36*
G01*
X125125000Y-71725000D02*
X123875000Y-71725000D01*
G75*
G02*
X123625000Y-71475000I0J250000D01*
G01*
X123625000Y-70550000D01*
G75*
G02*
X123875000Y-70300000I250000J0D01*
G01*
X125125000Y-70300000D01*
G75*
G02*
X125375000Y-70550000I0J-250000D01*
G01*
X125375000Y-71475000D01*
G75*
G02*
X125125000Y-71725000I-250000J0D01*
G01*
G37*
G36*
G01*
X125125000Y-74700000D02*
X123875000Y-74700000D01*
G75*
G02*
X123625000Y-74450000I0J250000D01*
G01*
X123625000Y-73525000D01*
G75*
G02*
X123875000Y-73275000I250000J0D01*
G01*
X125125000Y-73275000D01*
G75*
G02*
X125375000Y-73525000I0J-250000D01*
G01*
X125375000Y-74450000D01*
G75*
G02*
X125125000Y-74700000I-250000J0D01*
G01*
G37*
%TD*%
%TO.C,R26*%
G36*
G01*
X104125000Y-67975000D02*
X102875000Y-67975000D01*
G75*
G02*
X102625000Y-67725000I0J250000D01*
G01*
X102625000Y-66800000D01*
G75*
G02*
X102875000Y-66550000I250000J0D01*
G01*
X104125000Y-66550000D01*
G75*
G02*
X104375000Y-66800000I0J-250000D01*
G01*
X104375000Y-67725000D01*
G75*
G02*
X104125000Y-67975000I-250000J0D01*
G01*
G37*
G36*
G01*
X104125000Y-70950000D02*
X102875000Y-70950000D01*
G75*
G02*
X102625000Y-70700000I0J250000D01*
G01*
X102625000Y-69775000D01*
G75*
G02*
X102875000Y-69525000I250000J0D01*
G01*
X104125000Y-69525000D01*
G75*
G02*
X104375000Y-69775000I0J-250000D01*
G01*
X104375000Y-70700000D01*
G75*
G02*
X104125000Y-70950000I-250000J0D01*
G01*
G37*
%TD*%
%TO.C,R25*%
G36*
G01*
X141875000Y-67975000D02*
X140625000Y-67975000D01*
G75*
G02*
X140375000Y-67725000I0J250000D01*
G01*
X140375000Y-66800000D01*
G75*
G02*
X140625000Y-66550000I250000J0D01*
G01*
X141875000Y-66550000D01*
G75*
G02*
X142125000Y-66800000I0J-250000D01*
G01*
X142125000Y-67725000D01*
G75*
G02*
X141875000Y-67975000I-250000J0D01*
G01*
G37*
G36*
G01*
X141875000Y-70950000D02*
X140625000Y-70950000D01*
G75*
G02*
X140375000Y-70700000I0J250000D01*
G01*
X140375000Y-69775000D01*
G75*
G02*
X140625000Y-69525000I250000J0D01*
G01*
X141875000Y-69525000D01*
G75*
G02*
X142125000Y-69775000I0J-250000D01*
G01*
X142125000Y-70700000D01*
G75*
G02*
X141875000Y-70950000I-250000J0D01*
G01*
G37*
%TD*%
%TO.C,R24*%
G36*
G01*
X69475000Y-51625000D02*
X69475000Y-52875000D01*
G75*
G02*
X69225000Y-53125000I-250000J0D01*
G01*
X68300000Y-53125000D01*
G75*
G02*
X68050000Y-52875000I0J250000D01*
G01*
X68050000Y-51625000D01*
G75*
G02*
X68300000Y-51375000I250000J0D01*
G01*
X69225000Y-51375000D01*
G75*
G02*
X69475000Y-51625000I0J-250000D01*
G01*
G37*
G36*
G01*
X72450000Y-51625000D02*
X72450000Y-52875000D01*
G75*
G02*
X72200000Y-53125000I-250000J0D01*
G01*
X71275000Y-53125000D01*
G75*
G02*
X71025000Y-52875000I0J250000D01*
G01*
X71025000Y-51625000D01*
G75*
G02*
X71275000Y-51375000I250000J0D01*
G01*
X72200000Y-51375000D01*
G75*
G02*
X72450000Y-51625000I0J-250000D01*
G01*
G37*
%TD*%
%TO.C,R23*%
G36*
G01*
X110125000Y-67975000D02*
X108875000Y-67975000D01*
G75*
G02*
X108625000Y-67725000I0J250000D01*
G01*
X108625000Y-66800000D01*
G75*
G02*
X108875000Y-66550000I250000J0D01*
G01*
X110125000Y-66550000D01*
G75*
G02*
X110375000Y-66800000I0J-250000D01*
G01*
X110375000Y-67725000D01*
G75*
G02*
X110125000Y-67975000I-250000J0D01*
G01*
G37*
G36*
G01*
X110125000Y-70950000D02*
X108875000Y-70950000D01*
G75*
G02*
X108625000Y-70700000I0J250000D01*
G01*
X108625000Y-69775000D01*
G75*
G02*
X108875000Y-69525000I250000J0D01*
G01*
X110125000Y-69525000D01*
G75*
G02*
X110375000Y-69775000I0J-250000D01*
G01*
X110375000Y-70700000D01*
G75*
G02*
X110125000Y-70950000I-250000J0D01*
G01*
G37*
%TD*%
%TO.C,R22*%
G36*
G01*
X147875000Y-67975000D02*
X146625000Y-67975000D01*
G75*
G02*
X146375000Y-67725000I0J250000D01*
G01*
X146375000Y-66800000D01*
G75*
G02*
X146625000Y-66550000I250000J0D01*
G01*
X147875000Y-66550000D01*
G75*
G02*
X148125000Y-66800000I0J-250000D01*
G01*
X148125000Y-67725000D01*
G75*
G02*
X147875000Y-67975000I-250000J0D01*
G01*
G37*
G36*
G01*
X147875000Y-70950000D02*
X146625000Y-70950000D01*
G75*
G02*
X146375000Y-70700000I0J250000D01*
G01*
X146375000Y-69775000D01*
G75*
G02*
X146625000Y-69525000I250000J0D01*
G01*
X147875000Y-69525000D01*
G75*
G02*
X148125000Y-69775000I0J-250000D01*
G01*
X148125000Y-70700000D01*
G75*
G02*
X147875000Y-70950000I-250000J0D01*
G01*
G37*
%TD*%
%TO.C,R21*%
G36*
G01*
X105875000Y-69525000D02*
X107125000Y-69525000D01*
G75*
G02*
X107375000Y-69775000I0J-250000D01*
G01*
X107375000Y-70700000D01*
G75*
G02*
X107125000Y-70950000I-250000J0D01*
G01*
X105875000Y-70950000D01*
G75*
G02*
X105625000Y-70700000I0J250000D01*
G01*
X105625000Y-69775000D01*
G75*
G02*
X105875000Y-69525000I250000J0D01*
G01*
G37*
G36*
G01*
X105875000Y-66550000D02*
X107125000Y-66550000D01*
G75*
G02*
X107375000Y-66800000I0J-250000D01*
G01*
X107375000Y-67725000D01*
G75*
G02*
X107125000Y-67975000I-250000J0D01*
G01*
X105875000Y-67975000D01*
G75*
G02*
X105625000Y-67725000I0J250000D01*
G01*
X105625000Y-66800000D01*
G75*
G02*
X105875000Y-66550000I250000J0D01*
G01*
G37*
%TD*%
%TO.C,R20*%
G36*
G01*
X143625000Y-69525000D02*
X144875000Y-69525000D01*
G75*
G02*
X145125000Y-69775000I0J-250000D01*
G01*
X145125000Y-70700000D01*
G75*
G02*
X144875000Y-70950000I-250000J0D01*
G01*
X143625000Y-70950000D01*
G75*
G02*
X143375000Y-70700000I0J250000D01*
G01*
X143375000Y-69775000D01*
G75*
G02*
X143625000Y-69525000I250000J0D01*
G01*
G37*
G36*
G01*
X143625000Y-66550000D02*
X144875000Y-66550000D01*
G75*
G02*
X145125000Y-66800000I0J-250000D01*
G01*
X145125000Y-67725000D01*
G75*
G02*
X144875000Y-67975000I-250000J0D01*
G01*
X143625000Y-67975000D01*
G75*
G02*
X143375000Y-67725000I0J250000D01*
G01*
X143375000Y-66800000D01*
G75*
G02*
X143625000Y-66550000I250000J0D01*
G01*
G37*
%TD*%
%TO.C,R19*%
G36*
G01*
X111875000Y-69525000D02*
X113125000Y-69525000D01*
G75*
G02*
X113375000Y-69775000I0J-250000D01*
G01*
X113375000Y-70700000D01*
G75*
G02*
X113125000Y-70950000I-250000J0D01*
G01*
X111875000Y-70950000D01*
G75*
G02*
X111625000Y-70700000I0J250000D01*
G01*
X111625000Y-69775000D01*
G75*
G02*
X111875000Y-69525000I250000J0D01*
G01*
G37*
G36*
G01*
X111875000Y-66550000D02*
X113125000Y-66550000D01*
G75*
G02*
X113375000Y-66800000I0J-250000D01*
G01*
X113375000Y-67725000D01*
G75*
G02*
X113125000Y-67975000I-250000J0D01*
G01*
X111875000Y-67975000D01*
G75*
G02*
X111625000Y-67725000I0J250000D01*
G01*
X111625000Y-66800000D01*
G75*
G02*
X111875000Y-66550000I250000J0D01*
G01*
G37*
%TD*%
%TO.C,R18*%
G36*
G01*
X149625000Y-69525000D02*
X150875000Y-69525000D01*
G75*
G02*
X151125000Y-69775000I0J-250000D01*
G01*
X151125000Y-70700000D01*
G75*
G02*
X150875000Y-70950000I-250000J0D01*
G01*
X149625000Y-70950000D01*
G75*
G02*
X149375000Y-70700000I0J250000D01*
G01*
X149375000Y-69775000D01*
G75*
G02*
X149625000Y-69525000I250000J0D01*
G01*
G37*
G36*
G01*
X149625000Y-66550000D02*
X150875000Y-66550000D01*
G75*
G02*
X151125000Y-66800000I0J-250000D01*
G01*
X151125000Y-67725000D01*
G75*
G02*
X150875000Y-67975000I-250000J0D01*
G01*
X149625000Y-67975000D01*
G75*
G02*
X149375000Y-67725000I0J250000D01*
G01*
X149375000Y-66800000D01*
G75*
G02*
X149625000Y-66550000I250000J0D01*
G01*
G37*
%TD*%
%TO.C,R17*%
G36*
G01*
X155375000Y-57025000D02*
X156625000Y-57025000D01*
G75*
G02*
X156875000Y-57275000I0J-250000D01*
G01*
X156875000Y-58200000D01*
G75*
G02*
X156625000Y-58450000I-250000J0D01*
G01*
X155375000Y-58450000D01*
G75*
G02*
X155125000Y-58200000I0J250000D01*
G01*
X155125000Y-57275000D01*
G75*
G02*
X155375000Y-57025000I250000J0D01*
G01*
G37*
G36*
G01*
X155375000Y-54050000D02*
X156625000Y-54050000D01*
G75*
G02*
X156875000Y-54300000I0J-250000D01*
G01*
X156875000Y-55225000D01*
G75*
G02*
X156625000Y-55475000I-250000J0D01*
G01*
X155375000Y-55475000D01*
G75*
G02*
X155125000Y-55225000I0J250000D01*
G01*
X155125000Y-54300000D01*
G75*
G02*
X155375000Y-54050000I250000J0D01*
G01*
G37*
%TD*%
%TO.C,R16*%
G36*
G01*
X156725000Y-60375000D02*
X156725000Y-61625000D01*
G75*
G02*
X156475000Y-61875000I-250000J0D01*
G01*
X155550000Y-61875000D01*
G75*
G02*
X155300000Y-61625000I0J250000D01*
G01*
X155300000Y-60375000D01*
G75*
G02*
X155550000Y-60125000I250000J0D01*
G01*
X156475000Y-60125000D01*
G75*
G02*
X156725000Y-60375000I0J-250000D01*
G01*
G37*
G36*
G01*
X159700000Y-60375000D02*
X159700000Y-61625000D01*
G75*
G02*
X159450000Y-61875000I-250000J0D01*
G01*
X158525000Y-61875000D01*
G75*
G02*
X158275000Y-61625000I0J250000D01*
G01*
X158275000Y-60375000D01*
G75*
G02*
X158525000Y-60125000I250000J0D01*
G01*
X159450000Y-60125000D01*
G75*
G02*
X159700000Y-60375000I0J-250000D01*
G01*
G37*
%TD*%
%TO.C,R15*%
G36*
G01*
X159625000Y-55475000D02*
X158375000Y-55475000D01*
G75*
G02*
X158125000Y-55225000I0J250000D01*
G01*
X158125000Y-54300000D01*
G75*
G02*
X158375000Y-54050000I250000J0D01*
G01*
X159625000Y-54050000D01*
G75*
G02*
X159875000Y-54300000I0J-250000D01*
G01*
X159875000Y-55225000D01*
G75*
G02*
X159625000Y-55475000I-250000J0D01*
G01*
G37*
G36*
G01*
X159625000Y-58450000D02*
X158375000Y-58450000D01*
G75*
G02*
X158125000Y-58200000I0J250000D01*
G01*
X158125000Y-57275000D01*
G75*
G02*
X158375000Y-57025000I250000J0D01*
G01*
X159625000Y-57025000D01*
G75*
G02*
X159875000Y-57275000I0J-250000D01*
G01*
X159875000Y-58200000D01*
G75*
G02*
X159625000Y-58450000I-250000J0D01*
G01*
G37*
%TD*%
%TO.C,R14*%
G36*
G01*
X170875000Y-59275000D02*
X172125000Y-59275000D01*
G75*
G02*
X172375000Y-59525000I0J-250000D01*
G01*
X172375000Y-60450000D01*
G75*
G02*
X172125000Y-60700000I-250000J0D01*
G01*
X170875000Y-60700000D01*
G75*
G02*
X170625000Y-60450000I0J250000D01*
G01*
X170625000Y-59525000D01*
G75*
G02*
X170875000Y-59275000I250000J0D01*
G01*
G37*
G36*
G01*
X170875000Y-56300000D02*
X172125000Y-56300000D01*
G75*
G02*
X172375000Y-56550000I0J-250000D01*
G01*
X172375000Y-57475000D01*
G75*
G02*
X172125000Y-57725000I-250000J0D01*
G01*
X170875000Y-57725000D01*
G75*
G02*
X170625000Y-57475000I0J250000D01*
G01*
X170625000Y-56550000D01*
G75*
G02*
X170875000Y-56300000I250000J0D01*
G01*
G37*
%TD*%
%TO.C,R13*%
G36*
G01*
X156125000Y-67975000D02*
X154875000Y-67975000D01*
G75*
G02*
X154625000Y-67725000I0J250000D01*
G01*
X154625000Y-66800000D01*
G75*
G02*
X154875000Y-66550000I250000J0D01*
G01*
X156125000Y-66550000D01*
G75*
G02*
X156375000Y-66800000I0J-250000D01*
G01*
X156375000Y-67725000D01*
G75*
G02*
X156125000Y-67975000I-250000J0D01*
G01*
G37*
G36*
G01*
X156125000Y-70950000D02*
X154875000Y-70950000D01*
G75*
G02*
X154625000Y-70700000I0J250000D01*
G01*
X154625000Y-69775000D01*
G75*
G02*
X154875000Y-69525000I250000J0D01*
G01*
X156125000Y-69525000D01*
G75*
G02*
X156375000Y-69775000I0J-250000D01*
G01*
X156375000Y-70700000D01*
G75*
G02*
X156125000Y-70950000I-250000J0D01*
G01*
G37*
%TD*%
%TO.C,R12*%
G36*
G01*
X176375000Y-70775000D02*
X177625000Y-70775000D01*
G75*
G02*
X177875000Y-71025000I0J-250000D01*
G01*
X177875000Y-71950000D01*
G75*
G02*
X177625000Y-72200000I-250000J0D01*
G01*
X176375000Y-72200000D01*
G75*
G02*
X176125000Y-71950000I0J250000D01*
G01*
X176125000Y-71025000D01*
G75*
G02*
X176375000Y-70775000I250000J0D01*
G01*
G37*
G36*
G01*
X176375000Y-67800000D02*
X177625000Y-67800000D01*
G75*
G02*
X177875000Y-68050000I0J-250000D01*
G01*
X177875000Y-68975000D01*
G75*
G02*
X177625000Y-69225000I-250000J0D01*
G01*
X176375000Y-69225000D01*
G75*
G02*
X176125000Y-68975000I0J250000D01*
G01*
X176125000Y-68050000D01*
G75*
G02*
X176375000Y-67800000I250000J0D01*
G01*
G37*
%TD*%
%TO.C,R11*%
G36*
G01*
X157875000Y-69525000D02*
X159125000Y-69525000D01*
G75*
G02*
X159375000Y-69775000I0J-250000D01*
G01*
X159375000Y-70700000D01*
G75*
G02*
X159125000Y-70950000I-250000J0D01*
G01*
X157875000Y-70950000D01*
G75*
G02*
X157625000Y-70700000I0J250000D01*
G01*
X157625000Y-69775000D01*
G75*
G02*
X157875000Y-69525000I250000J0D01*
G01*
G37*
G36*
G01*
X157875000Y-66550000D02*
X159125000Y-66550000D01*
G75*
G02*
X159375000Y-66800000I0J-250000D01*
G01*
X159375000Y-67725000D01*
G75*
G02*
X159125000Y-67975000I-250000J0D01*
G01*
X157875000Y-67975000D01*
G75*
G02*
X157625000Y-67725000I0J250000D01*
G01*
X157625000Y-66800000D01*
G75*
G02*
X157875000Y-66550000I250000J0D01*
G01*
G37*
%TD*%
%TO.C,R10*%
G36*
G01*
X173375000Y-73775000D02*
X174625000Y-73775000D01*
G75*
G02*
X174875000Y-74025000I0J-250000D01*
G01*
X174875000Y-74950000D01*
G75*
G02*
X174625000Y-75200000I-250000J0D01*
G01*
X173375000Y-75200000D01*
G75*
G02*
X173125000Y-74950000I0J250000D01*
G01*
X173125000Y-74025000D01*
G75*
G02*
X173375000Y-73775000I250000J0D01*
G01*
G37*
G36*
G01*
X173375000Y-70800000D02*
X174625000Y-70800000D01*
G75*
G02*
X174875000Y-71050000I0J-250000D01*
G01*
X174875000Y-71975000D01*
G75*
G02*
X174625000Y-72225000I-250000J0D01*
G01*
X173375000Y-72225000D01*
G75*
G02*
X173125000Y-71975000I0J250000D01*
G01*
X173125000Y-71050000D01*
G75*
G02*
X173375000Y-70800000I250000J0D01*
G01*
G37*
%TD*%
%TO.C,R9*%
G36*
G01*
X160875000Y-72525000D02*
X162125000Y-72525000D01*
G75*
G02*
X162375000Y-72775000I0J-250000D01*
G01*
X162375000Y-73700000D01*
G75*
G02*
X162125000Y-73950000I-250000J0D01*
G01*
X160875000Y-73950000D01*
G75*
G02*
X160625000Y-73700000I0J250000D01*
G01*
X160625000Y-72775000D01*
G75*
G02*
X160875000Y-72525000I250000J0D01*
G01*
G37*
G36*
G01*
X160875000Y-69550000D02*
X162125000Y-69550000D01*
G75*
G02*
X162375000Y-69800000I0J-250000D01*
G01*
X162375000Y-70725000D01*
G75*
G02*
X162125000Y-70975000I-250000J0D01*
G01*
X160875000Y-70975000D01*
G75*
G02*
X160625000Y-70725000I0J250000D01*
G01*
X160625000Y-69800000D01*
G75*
G02*
X160875000Y-69550000I250000J0D01*
G01*
G37*
%TD*%
%TO.C,R8*%
G36*
G01*
X163775000Y-83125000D02*
X163775000Y-81875000D01*
G75*
G02*
X164025000Y-81625000I250000J0D01*
G01*
X164950000Y-81625000D01*
G75*
G02*
X165200000Y-81875000I0J-250000D01*
G01*
X165200000Y-83125000D01*
G75*
G02*
X164950000Y-83375000I-250000J0D01*
G01*
X164025000Y-83375000D01*
G75*
G02*
X163775000Y-83125000I0J250000D01*
G01*
G37*
G36*
G01*
X160800000Y-83125000D02*
X160800000Y-81875000D01*
G75*
G02*
X161050000Y-81625000I250000J0D01*
G01*
X161975000Y-81625000D01*
G75*
G02*
X162225000Y-81875000I0J-250000D01*
G01*
X162225000Y-83125000D01*
G75*
G02*
X161975000Y-83375000I-250000J0D01*
G01*
X161050000Y-83375000D01*
G75*
G02*
X160800000Y-83125000I0J250000D01*
G01*
G37*
%TD*%
%TO.C,R7*%
G36*
G01*
X170625000Y-88775000D02*
X171875000Y-88775000D01*
G75*
G02*
X172125000Y-89025000I0J-250000D01*
G01*
X172125000Y-89950000D01*
G75*
G02*
X171875000Y-90200000I-250000J0D01*
G01*
X170625000Y-90200000D01*
G75*
G02*
X170375000Y-89950000I0J250000D01*
G01*
X170375000Y-89025000D01*
G75*
G02*
X170625000Y-88775000I250000J0D01*
G01*
G37*
G36*
G01*
X170625000Y-85800000D02*
X171875000Y-85800000D01*
G75*
G02*
X172125000Y-86050000I0J-250000D01*
G01*
X172125000Y-86975000D01*
G75*
G02*
X171875000Y-87225000I-250000J0D01*
G01*
X170625000Y-87225000D01*
G75*
G02*
X170375000Y-86975000I0J250000D01*
G01*
X170375000Y-86050000D01*
G75*
G02*
X170625000Y-85800000I250000J0D01*
G01*
G37*
%TD*%
%TO.C,R6*%
G36*
G01*
X164875000Y-87225000D02*
X163625000Y-87225000D01*
G75*
G02*
X163375000Y-86975000I0J250000D01*
G01*
X163375000Y-86050000D01*
G75*
G02*
X163625000Y-85800000I250000J0D01*
G01*
X164875000Y-85800000D01*
G75*
G02*
X165125000Y-86050000I0J-250000D01*
G01*
X165125000Y-86975000D01*
G75*
G02*
X164875000Y-87225000I-250000J0D01*
G01*
G37*
G36*
G01*
X164875000Y-90200000D02*
X163625000Y-90200000D01*
G75*
G02*
X163375000Y-89950000I0J250000D01*
G01*
X163375000Y-89025000D01*
G75*
G02*
X163625000Y-88775000I250000J0D01*
G01*
X164875000Y-88775000D01*
G75*
G02*
X165125000Y-89025000I0J-250000D01*
G01*
X165125000Y-89950000D01*
G75*
G02*
X164875000Y-90200000I-250000J0D01*
G01*
G37*
%TD*%
%TO.C,R5*%
G36*
G01*
X167125000Y-88775000D02*
X168375000Y-88775000D01*
G75*
G02*
X168625000Y-89025000I0J-250000D01*
G01*
X168625000Y-89950000D01*
G75*
G02*
X168375000Y-90200000I-250000J0D01*
G01*
X167125000Y-90200000D01*
G75*
G02*
X166875000Y-89950000I0J250000D01*
G01*
X166875000Y-89025000D01*
G75*
G02*
X167125000Y-88775000I250000J0D01*
G01*
G37*
G36*
G01*
X167125000Y-85800000D02*
X168375000Y-85800000D01*
G75*
G02*
X168625000Y-86050000I0J-250000D01*
G01*
X168625000Y-86975000D01*
G75*
G02*
X168375000Y-87225000I-250000J0D01*
G01*
X167125000Y-87225000D01*
G75*
G02*
X166875000Y-86975000I0J250000D01*
G01*
X166875000Y-86050000D01*
G75*
G02*
X167125000Y-85800000I250000J0D01*
G01*
G37*
%TD*%
%TO.C,R2*%
G36*
G01*
X172125000Y-96275000D02*
X173375000Y-96275000D01*
G75*
G02*
X173625000Y-96525000I0J-250000D01*
G01*
X173625000Y-97450000D01*
G75*
G02*
X173375000Y-97700000I-250000J0D01*
G01*
X172125000Y-97700000D01*
G75*
G02*
X171875000Y-97450000I0J250000D01*
G01*
X171875000Y-96525000D01*
G75*
G02*
X172125000Y-96275000I250000J0D01*
G01*
G37*
G36*
G01*
X172125000Y-93300000D02*
X173375000Y-93300000D01*
G75*
G02*
X173625000Y-93550000I0J-250000D01*
G01*
X173625000Y-94475000D01*
G75*
G02*
X173375000Y-94725000I-250000J0D01*
G01*
X172125000Y-94725000D01*
G75*
G02*
X171875000Y-94475000I0J250000D01*
G01*
X171875000Y-93550000D01*
G75*
G02*
X172125000Y-93300000I250000J0D01*
G01*
G37*
%TD*%
%TO.C,R1*%
G36*
G01*
X162125000Y-96275000D02*
X163375000Y-96275000D01*
G75*
G02*
X163625000Y-96525000I0J-250000D01*
G01*
X163625000Y-97450000D01*
G75*
G02*
X163375000Y-97700000I-250000J0D01*
G01*
X162125000Y-97700000D01*
G75*
G02*
X161875000Y-97450000I0J250000D01*
G01*
X161875000Y-96525000D01*
G75*
G02*
X162125000Y-96275000I250000J0D01*
G01*
G37*
G36*
G01*
X162125000Y-93300000D02*
X163375000Y-93300000D01*
G75*
G02*
X163625000Y-93550000I0J-250000D01*
G01*
X163625000Y-94475000D01*
G75*
G02*
X163375000Y-94725000I-250000J0D01*
G01*
X162125000Y-94725000D01*
G75*
G02*
X161875000Y-94475000I0J250000D01*
G01*
X161875000Y-93550000D01*
G75*
G02*
X162125000Y-93300000I250000J0D01*
G01*
G37*
%TD*%
D10*
%TO.C,D4*%
X105500000Y-80350000D03*
X105500000Y-83650000D03*
%TD*%
%TO.C,D3*%
X121250000Y-80350000D03*
X121250000Y-83650000D03*
%TD*%
%TO.C,D2*%
X108750000Y-83650000D03*
X108750000Y-80350000D03*
%TD*%
%TO.C,D1*%
X124500000Y-83650000D03*
X124500000Y-80350000D03*
%TD*%
%TO.C,C14*%
G36*
G01*
X170125000Y-94725000D02*
X168875000Y-94725000D01*
G75*
G02*
X168625000Y-94475000I0J250000D01*
G01*
X168625000Y-93550000D01*
G75*
G02*
X168875000Y-93300000I250000J0D01*
G01*
X170125000Y-93300000D01*
G75*
G02*
X170375000Y-93550000I0J-250000D01*
G01*
X170375000Y-94475000D01*
G75*
G02*
X170125000Y-94725000I-250000J0D01*
G01*
G37*
G36*
G01*
X170125000Y-97700000D02*
X168875000Y-97700000D01*
G75*
G02*
X168625000Y-97450000I0J250000D01*
G01*
X168625000Y-96525000D01*
G75*
G02*
X168875000Y-96275000I250000J0D01*
G01*
X170125000Y-96275000D01*
G75*
G02*
X170375000Y-96525000I0J-250000D01*
G01*
X170375000Y-97450000D01*
G75*
G02*
X170125000Y-97700000I-250000J0D01*
G01*
G37*
%TD*%
%TO.C,C13*%
G36*
G01*
X165375000Y-96275000D02*
X166625000Y-96275000D01*
G75*
G02*
X166875000Y-96525000I0J-250000D01*
G01*
X166875000Y-97450000D01*
G75*
G02*
X166625000Y-97700000I-250000J0D01*
G01*
X165375000Y-97700000D01*
G75*
G02*
X165125000Y-97450000I0J250000D01*
G01*
X165125000Y-96525000D01*
G75*
G02*
X165375000Y-96275000I250000J0D01*
G01*
G37*
G36*
G01*
X165375000Y-93300000D02*
X166625000Y-93300000D01*
G75*
G02*
X166875000Y-93550000I0J-250000D01*
G01*
X166875000Y-94475000D01*
G75*
G02*
X166625000Y-94725000I-250000J0D01*
G01*
X165375000Y-94725000D01*
G75*
G02*
X165125000Y-94475000I0J250000D01*
G01*
X165125000Y-93550000D01*
G75*
G02*
X165375000Y-93300000I250000J0D01*
G01*
G37*
%TD*%
%TO.C,C10*%
G36*
G01*
X81075000Y-56975000D02*
X78925000Y-56975000D01*
G75*
G02*
X78675000Y-56725000I0J250000D01*
G01*
X78675000Y-55800000D01*
G75*
G02*
X78925000Y-55550000I250000J0D01*
G01*
X81075000Y-55550000D01*
G75*
G02*
X81325000Y-55800000I0J-250000D01*
G01*
X81325000Y-56725000D01*
G75*
G02*
X81075000Y-56975000I-250000J0D01*
G01*
G37*
G36*
G01*
X81075000Y-59950000D02*
X78925000Y-59950000D01*
G75*
G02*
X78675000Y-59700000I0J250000D01*
G01*
X78675000Y-58775000D01*
G75*
G02*
X78925000Y-58525000I250000J0D01*
G01*
X81075000Y-58525000D01*
G75*
G02*
X81325000Y-58775000I0J-250000D01*
G01*
X81325000Y-59700000D01*
G75*
G02*
X81075000Y-59950000I-250000J0D01*
G01*
G37*
%TD*%
%TO.C,C9*%
G36*
G01*
X86075000Y-59975000D02*
X83925000Y-59975000D01*
G75*
G02*
X83675000Y-59725000I0J250000D01*
G01*
X83675000Y-58800000D01*
G75*
G02*
X83925000Y-58550000I250000J0D01*
G01*
X86075000Y-58550000D01*
G75*
G02*
X86325000Y-58800000I0J-250000D01*
G01*
X86325000Y-59725000D01*
G75*
G02*
X86075000Y-59975000I-250000J0D01*
G01*
G37*
G36*
G01*
X86075000Y-62950000D02*
X83925000Y-62950000D01*
G75*
G02*
X83675000Y-62700000I0J250000D01*
G01*
X83675000Y-61775000D01*
G75*
G02*
X83925000Y-61525000I250000J0D01*
G01*
X86075000Y-61525000D01*
G75*
G02*
X86325000Y-61775000I0J-250000D01*
G01*
X86325000Y-62700000D01*
G75*
G02*
X86075000Y-62950000I-250000J0D01*
G01*
G37*
%TD*%
%TO.C,C8*%
G36*
G01*
X118575000Y-56975000D02*
X116425000Y-56975000D01*
G75*
G02*
X116175000Y-56725000I0J250000D01*
G01*
X116175000Y-55800000D01*
G75*
G02*
X116425000Y-55550000I250000J0D01*
G01*
X118575000Y-55550000D01*
G75*
G02*
X118825000Y-55800000I0J-250000D01*
G01*
X118825000Y-56725000D01*
G75*
G02*
X118575000Y-56975000I-250000J0D01*
G01*
G37*
G36*
G01*
X118575000Y-59950000D02*
X116425000Y-59950000D01*
G75*
G02*
X116175000Y-59700000I0J250000D01*
G01*
X116175000Y-58775000D01*
G75*
G02*
X116425000Y-58525000I250000J0D01*
G01*
X118575000Y-58525000D01*
G75*
G02*
X118825000Y-58775000I0J-250000D01*
G01*
X118825000Y-59700000D01*
G75*
G02*
X118575000Y-59950000I-250000J0D01*
G01*
G37*
%TD*%
%TO.C,C7*%
G36*
G01*
X123575000Y-59975000D02*
X121425000Y-59975000D01*
G75*
G02*
X121175000Y-59725000I0J250000D01*
G01*
X121175000Y-58800000D01*
G75*
G02*
X121425000Y-58550000I250000J0D01*
G01*
X123575000Y-58550000D01*
G75*
G02*
X123825000Y-58800000I0J-250000D01*
G01*
X123825000Y-59725000D01*
G75*
G02*
X123575000Y-59975000I-250000J0D01*
G01*
G37*
G36*
G01*
X123575000Y-62950000D02*
X121425000Y-62950000D01*
G75*
G02*
X121175000Y-62700000I0J250000D01*
G01*
X121175000Y-61775000D01*
G75*
G02*
X121425000Y-61525000I250000J0D01*
G01*
X123575000Y-61525000D01*
G75*
G02*
X123825000Y-61775000I0J-250000D01*
G01*
X123825000Y-62700000D01*
G75*
G02*
X123575000Y-62950000I-250000J0D01*
G01*
G37*
%TD*%
%TO.C,C6*%
G36*
G01*
X116775000Y-77875000D02*
X116775000Y-76625000D01*
G75*
G02*
X117025000Y-76375000I250000J0D01*
G01*
X117950000Y-76375000D01*
G75*
G02*
X118200000Y-76625000I0J-250000D01*
G01*
X118200000Y-77875000D01*
G75*
G02*
X117950000Y-78125000I-250000J0D01*
G01*
X117025000Y-78125000D01*
G75*
G02*
X116775000Y-77875000I0J250000D01*
G01*
G37*
G36*
G01*
X113800000Y-77875000D02*
X113800000Y-76625000D01*
G75*
G02*
X114050000Y-76375000I250000J0D01*
G01*
X114975000Y-76375000D01*
G75*
G02*
X115225000Y-76625000I0J-250000D01*
G01*
X115225000Y-77875000D01*
G75*
G02*
X114975000Y-78125000I-250000J0D01*
G01*
X114050000Y-78125000D01*
G75*
G02*
X113800000Y-77875000I0J250000D01*
G01*
G37*
%TD*%
%TO.C,C5*%
G36*
G01*
X114775000Y-88625000D02*
X114775000Y-87375000D01*
G75*
G02*
X115025000Y-87125000I250000J0D01*
G01*
X115950000Y-87125000D01*
G75*
G02*
X116200000Y-87375000I0J-250000D01*
G01*
X116200000Y-88625000D01*
G75*
G02*
X115950000Y-88875000I-250000J0D01*
G01*
X115025000Y-88875000D01*
G75*
G02*
X114775000Y-88625000I0J250000D01*
G01*
G37*
G36*
G01*
X111800000Y-88625000D02*
X111800000Y-87375000D01*
G75*
G02*
X112050000Y-87125000I250000J0D01*
G01*
X112975000Y-87125000D01*
G75*
G02*
X113225000Y-87375000I0J-250000D01*
G01*
X113225000Y-88625000D01*
G75*
G02*
X112975000Y-88875000I-250000J0D01*
G01*
X112050000Y-88875000D01*
G75*
G02*
X111800000Y-88625000I0J250000D01*
G01*
G37*
%TD*%
%TO.C,C4*%
G36*
G01*
X163475000Y-62875000D02*
X163475000Y-64125000D01*
G75*
G02*
X163225000Y-64375000I-250000J0D01*
G01*
X162300000Y-64375000D01*
G75*
G02*
X162050000Y-64125000I0J250000D01*
G01*
X162050000Y-62875000D01*
G75*
G02*
X162300000Y-62625000I250000J0D01*
G01*
X163225000Y-62625000D01*
G75*
G02*
X163475000Y-62875000I0J-250000D01*
G01*
G37*
G36*
G01*
X166450000Y-62875000D02*
X166450000Y-64125000D01*
G75*
G02*
X166200000Y-64375000I-250000J0D01*
G01*
X165275000Y-64375000D01*
G75*
G02*
X165025000Y-64125000I0J250000D01*
G01*
X165025000Y-62875000D01*
G75*
G02*
X165275000Y-62625000I250000J0D01*
G01*
X166200000Y-62625000D01*
G75*
G02*
X166450000Y-62875000I0J-250000D01*
G01*
G37*
%TD*%
%TO.C,C3*%
G36*
G01*
X165475000Y-52875000D02*
X165475000Y-54125000D01*
G75*
G02*
X165225000Y-54375000I-250000J0D01*
G01*
X164300000Y-54375000D01*
G75*
G02*
X164050000Y-54125000I0J250000D01*
G01*
X164050000Y-52875000D01*
G75*
G02*
X164300000Y-52625000I250000J0D01*
G01*
X165225000Y-52625000D01*
G75*
G02*
X165475000Y-52875000I0J-250000D01*
G01*
G37*
G36*
G01*
X168450000Y-52875000D02*
X168450000Y-54125000D01*
G75*
G02*
X168200000Y-54375000I-250000J0D01*
G01*
X167275000Y-54375000D01*
G75*
G02*
X167025000Y-54125000I0J250000D01*
G01*
X167025000Y-52875000D01*
G75*
G02*
X167275000Y-52625000I250000J0D01*
G01*
X168200000Y-52625000D01*
G75*
G02*
X168450000Y-52875000I0J-250000D01*
G01*
G37*
%TD*%
%TO.C,C2*%
G36*
G01*
X165975000Y-77375000D02*
X165975000Y-78625000D01*
G75*
G02*
X165725000Y-78875000I-250000J0D01*
G01*
X164800000Y-78875000D01*
G75*
G02*
X164550000Y-78625000I0J250000D01*
G01*
X164550000Y-77375000D01*
G75*
G02*
X164800000Y-77125000I250000J0D01*
G01*
X165725000Y-77125000D01*
G75*
G02*
X165975000Y-77375000I0J-250000D01*
G01*
G37*
G36*
G01*
X168950000Y-77375000D02*
X168950000Y-78625000D01*
G75*
G02*
X168700000Y-78875000I-250000J0D01*
G01*
X167775000Y-78875000D01*
G75*
G02*
X167525000Y-78625000I0J250000D01*
G01*
X167525000Y-77375000D01*
G75*
G02*
X167775000Y-77125000I250000J0D01*
G01*
X168700000Y-77125000D01*
G75*
G02*
X168950000Y-77375000I0J-250000D01*
G01*
G37*
%TD*%
%TO.C,C1*%
G36*
G01*
X168225000Y-67375000D02*
X168225000Y-68625000D01*
G75*
G02*
X167975000Y-68875000I-250000J0D01*
G01*
X167050000Y-68875000D01*
G75*
G02*
X166800000Y-68625000I0J250000D01*
G01*
X166800000Y-67375000D01*
G75*
G02*
X167050000Y-67125000I250000J0D01*
G01*
X167975000Y-67125000D01*
G75*
G02*
X168225000Y-67375000I0J-250000D01*
G01*
G37*
G36*
G01*
X171200000Y-67375000D02*
X171200000Y-68625000D01*
G75*
G02*
X170950000Y-68875000I-250000J0D01*
G01*
X170025000Y-68875000D01*
G75*
G02*
X169775000Y-68625000I0J250000D01*
G01*
X169775000Y-67375000D01*
G75*
G02*
X170025000Y-67125000I250000J0D01*
G01*
X170950000Y-67125000D01*
G75*
G02*
X171200000Y-67375000I0J-250000D01*
G01*
G37*
%TD*%
M02*
