%TF.GenerationSoftware,KiCad,Pcbnew,(5.1.6-0)*%
%TF.CreationDate,2023-07-03T12:35:29-07:00*%
%TF.ProjectId,LM3886x2_inv_bal_servo,4c4d3338-3836-4783-925f-696e765f6261,rev?*%
%TF.SameCoordinates,Original*%
%TF.FileFunction,Copper,L2,Bot*%
%TF.FilePolarity,Positive*%
%FSLAX46Y46*%
G04 Gerber Fmt 4.6, Leading zero omitted, Abs format (unit mm)*
G04 Created by KiCad (PCBNEW (5.1.6-0)) date 2023-07-03 12:35:29*
%MOMM*%
%LPD*%
G01*
G04 APERTURE LIST*
%TA.AperFunction,ComponentPad*%
%ADD10C,0.800000*%
%TD*%
%TA.AperFunction,ComponentPad*%
%ADD11C,6.400000*%
%TD*%
%TA.AperFunction,ComponentPad*%
%ADD12O,1.800000X1.800000*%
%TD*%
%TA.AperFunction,ComponentPad*%
%ADD13R,1.800000X1.800000*%
%TD*%
%TA.AperFunction,ComponentPad*%
%ADD14C,2.500000*%
%TD*%
%TA.AperFunction,ComponentPad*%
%ADD15C,2.000000*%
%TD*%
%TA.AperFunction,ComponentPad*%
%ADD16C,2.300000*%
%TD*%
%TA.AperFunction,ComponentPad*%
%ADD17C,1.600000*%
%TD*%
%TA.AperFunction,ComponentPad*%
%ADD18R,1.600000X1.600000*%
%TD*%
%TA.AperFunction,ComponentPad*%
%ADD19C,2.400000*%
%TD*%
%TA.AperFunction,ComponentPad*%
%ADD20R,2.400000X2.400000*%
%TD*%
%TA.AperFunction,ViaPad*%
%ADD21C,0.700000*%
%TD*%
%TA.AperFunction,Conductor*%
%ADD22C,0.500000*%
%TD*%
%TA.AperFunction,Conductor*%
%ADD23C,0.300000*%
%TD*%
G04 APERTURE END LIST*
D10*
%TO.P,H4,1*%
%TO.N,N/C*%
X180447056Y-54552944D03*
X178750000Y-53850000D03*
X177052944Y-54552944D03*
X176350000Y-56250000D03*
X177052944Y-57947056D03*
X178750000Y-58650000D03*
X180447056Y-57947056D03*
X181150000Y-56250000D03*
D11*
X178750000Y-56250000D03*
%TD*%
D10*
%TO.P,H3,1*%
%TO.N,N/C*%
X62947056Y-54552944D03*
X61250000Y-53850000D03*
X59552944Y-54552944D03*
X58850000Y-56250000D03*
X59552944Y-57947056D03*
X61250000Y-58650000D03*
X62947056Y-57947056D03*
X63650000Y-56250000D03*
D11*
X61250000Y-56250000D03*
%TD*%
D10*
%TO.P,H2,1*%
%TO.N,N/C*%
X180447056Y-104552944D03*
X178750000Y-103850000D03*
X177052944Y-104552944D03*
X176350000Y-106250000D03*
X177052944Y-107947056D03*
X178750000Y-108650000D03*
X180447056Y-107947056D03*
X181150000Y-106250000D03*
D11*
X178750000Y-106250000D03*
%TD*%
D10*
%TO.P,H1,1*%
%TO.N,N/C*%
X62947056Y-104552944D03*
X61250000Y-103850000D03*
X59552944Y-104552944D03*
X58850000Y-106250000D03*
X59552944Y-107947056D03*
X61250000Y-108650000D03*
X62947056Y-107947056D03*
X63650000Y-106250000D03*
D11*
X61250000Y-106250000D03*
%TD*%
D12*
%TO.P,U5,11*%
%TO.N,N/C*%
X107000000Y-58750000D03*
%TO.P,U5,10*%
%TO.N,/U5NINV*%
X105300000Y-53670000D03*
%TO.P,U5,9*%
%TO.N,/U5INV*%
X103600000Y-58750000D03*
%TO.P,U5,8*%
%TO.N,MUTE*%
X101900000Y-53670000D03*
%TO.P,U5,7*%
%TO.N,GND*%
X100200000Y-58750000D03*
%TO.P,U5,6*%
%TO.N,N/C*%
X98500000Y-53670000D03*
%TO.P,U5,5*%
%TO.N,+36V*%
X96800000Y-58750000D03*
%TO.P,U5,4*%
%TO.N,-36V*%
X95100000Y-53670000D03*
%TO.P,U5,3*%
%TO.N,/U5OUT*%
X93400000Y-58750000D03*
%TO.P,U5,2*%
%TO.N,N/C*%
X91700000Y-53670000D03*
D13*
%TO.P,U5,1*%
%TO.N,+36V*%
X90000000Y-58750000D03*
%TD*%
D12*
%TO.P,U4,11*%
%TO.N,N/C*%
X144500000Y-58750000D03*
%TO.P,U4,10*%
%TO.N,/U4NINV*%
X142800000Y-53670000D03*
%TO.P,U4,9*%
%TO.N,/U4INV*%
X141100000Y-58750000D03*
%TO.P,U4,8*%
%TO.N,MUTE*%
X139400000Y-53670000D03*
%TO.P,U4,7*%
%TO.N,GND*%
X137700000Y-58750000D03*
%TO.P,U4,6*%
%TO.N,N/C*%
X136000000Y-53670000D03*
%TO.P,U4,5*%
%TO.N,+36V*%
X134300000Y-58750000D03*
%TO.P,U4,4*%
%TO.N,-36V*%
X132600000Y-53670000D03*
%TO.P,U4,3*%
%TO.N,/U4OUT*%
X130900000Y-58750000D03*
%TO.P,U4,2*%
%TO.N,N/C*%
X129200000Y-53670000D03*
D13*
%TO.P,U4,1*%
%TO.N,+36V*%
X127500000Y-58750000D03*
%TD*%
D14*
%TO.P,L1,2*%
%TO.N,/OUTCONN*%
X106150000Y-105060000D03*
%TO.P,L1,1*%
%TO.N,/SOUT*%
X118850000Y-97440000D03*
%TD*%
D15*
%TO.P,J4,3*%
%TO.N,+15V*%
X146000000Y-87500000D03*
%TO.P,J4,2*%
%TO.N,GND*%
X142500000Y-87500000D03*
%TO.P,J4,1*%
%TO.N,-15V*%
X139000000Y-87500000D03*
%TD*%
D16*
%TO.P,J3,3*%
%TO.N,+36V*%
X78750000Y-105000000D03*
%TO.P,J3,2*%
%TO.N,GND*%
X73750000Y-105000000D03*
%TO.P,J3,1*%
%TO.N,-36V*%
X68750000Y-105000000D03*
%TD*%
%TO.P,J2,2*%
%TO.N,/OUTCONN*%
X92500000Y-105000000D03*
%TO.P,J2,1*%
%TO.N,GND*%
X87500000Y-105000000D03*
%TD*%
D15*
%TO.P,J1,3*%
%TO.N,/SIG-*%
X171250000Y-105000000D03*
%TO.P,J1,2*%
%TO.N,/SIG+*%
X167750000Y-105000000D03*
%TO.P,J1,1*%
%TO.N,GND*%
X164250000Y-105000000D03*
%TD*%
D17*
%TO.P,C20,2*%
%TO.N,Net-(C20-Pad2)*%
X88250000Y-90000000D03*
%TO.P,C20,1*%
%TO.N,/SOUT*%
X93250000Y-90000000D03*
%TD*%
%TO.P,C19,2*%
%TO.N,/SRVOUT2*%
X108500000Y-90000000D03*
%TO.P,C19,1*%
%TO.N,Net-(C19-Pad1)*%
X103500000Y-90000000D03*
%TD*%
%TO.P,C18,2*%
%TO.N,/SRVOUT1*%
X120000000Y-90000000D03*
%TO.P,C18,1*%
%TO.N,Net-(C18-Pad1)*%
X125000000Y-90000000D03*
%TD*%
%TO.P,C17,2*%
%TO.N,MUTE*%
X69500000Y-56700000D03*
D18*
%TO.P,C17,1*%
%TO.N,GND*%
X69500000Y-60500000D03*
%TD*%
D17*
%TO.P,C16,2*%
%TO.N,Net-(C14-Pad2)*%
X177750000Y-94500000D03*
%TO.P,C16,1*%
%TO.N,/U1SIG-*%
X177750000Y-89500000D03*
%TD*%
%TO.P,C15,2*%
%TO.N,Net-(C13-Pad1)*%
X157750000Y-94500000D03*
%TO.P,C15,1*%
%TO.N,/U1SIG+*%
X157750000Y-89500000D03*
%TD*%
D19*
%TO.P,C12,2*%
%TO.N,-36V*%
X65750000Y-71500000D03*
D20*
%TO.P,C12,1*%
%TO.N,GND*%
X73250000Y-71500000D03*
%TD*%
D19*
%TO.P,C11,2*%
%TO.N,GND*%
X65750000Y-88500000D03*
D20*
%TO.P,C11,1*%
%TO.N,+36V*%
X73250000Y-88500000D03*
%TD*%
D21*
%TO.N,GND*%
X166000000Y-98750000D03*
X169500000Y-98750000D03*
X167750000Y-91000000D03*
X167500000Y-69750000D03*
X168250000Y-76250000D03*
X165750000Y-61750000D03*
X163250000Y-53500000D03*
X156000000Y-62750000D03*
X155500000Y-72000000D03*
X150250000Y-72000000D03*
X112500000Y-71750000D03*
X115750000Y-78750000D03*
X121250000Y-81750000D03*
X124500000Y-81750000D03*
X108750000Y-81750000D03*
X105500000Y-81750000D03*
X115500000Y-86250000D03*
X88250000Y-77750000D03*
X82500000Y-59250000D03*
X110500000Y-80500000D03*
X119500000Y-81750000D03*
X80000000Y-60750000D03*
X85000000Y-56500000D03*
X59151191Y-61292500D03*
X59151191Y-65292500D03*
X59151191Y-99292500D03*
X61151191Y-63292500D03*
X61151191Y-101292500D03*
X63151191Y-61292500D03*
X66151191Y-51292500D03*
X66151191Y-55292500D03*
X66151191Y-108292500D03*
X70151191Y-108292500D03*
X73151191Y-68292500D03*
X73151191Y-74292500D03*
X73151191Y-78292500D03*
X73151191Y-82292500D03*
X73151191Y-94292500D03*
X73151191Y-98292500D03*
X73151191Y-102292500D03*
X73151191Y-107292500D03*
X76151191Y-108292500D03*
X78151191Y-61292500D03*
X80151191Y-108292500D03*
X83151191Y-57292500D03*
X83151191Y-107292500D03*
X85151191Y-105292500D03*
X86151191Y-73292500D03*
X86151191Y-77292500D03*
X86151191Y-81292500D03*
X86151191Y-87292500D03*
X86151191Y-91292500D03*
X86151191Y-95292500D03*
X86151191Y-99292500D03*
X86151191Y-108292500D03*
X87151191Y-102292500D03*
X88151191Y-71292500D03*
X88151191Y-75292500D03*
X88151191Y-83292500D03*
X88151191Y-93292500D03*
X88151191Y-97292500D03*
X89151191Y-100292500D03*
X89151191Y-107292500D03*
X90151191Y-69292500D03*
X90151191Y-73292500D03*
X90151191Y-77292500D03*
X90151191Y-81292500D03*
X90151191Y-87292500D03*
X90151191Y-91292500D03*
X90151191Y-95292500D03*
X90151191Y-103292500D03*
X91151191Y-98292500D03*
X92151191Y-101292500D03*
X92151191Y-108292500D03*
X93151191Y-72292500D03*
X93151191Y-96292500D03*
X94151191Y-99292500D03*
X95151191Y-102292500D03*
X95151191Y-107292500D03*
X96151191Y-64292500D03*
X96151191Y-68292500D03*
X96151191Y-75292500D03*
X96151191Y-79292500D03*
X96151191Y-83292500D03*
X96151191Y-87292500D03*
X97151191Y-90292500D03*
X97151191Y-100292500D03*
X98151191Y-66292500D03*
X98151191Y-81292500D03*
X98151191Y-85292500D03*
X98151191Y-108292500D03*
X99151191Y-72292500D03*
X99151191Y-76292500D03*
X99151191Y-88292500D03*
X99151191Y-92292500D03*
X99151191Y-102292500D03*
X100151191Y-83292500D03*
X101151191Y-74292500D03*
X101151191Y-78292500D03*
X101151191Y-86292500D03*
X101151191Y-90292500D03*
X101151191Y-94292500D03*
X101151191Y-107292500D03*
X102151191Y-65292500D03*
X102151191Y-101292500D03*
X103151191Y-72292500D03*
X103151191Y-76292500D03*
X103151191Y-80292500D03*
X103151191Y-92292500D03*
X103151191Y-96292500D03*
X104151191Y-85292500D03*
X104151191Y-108292500D03*
X105151191Y-64292500D03*
X105151191Y-74292500D03*
X105151191Y-78292500D03*
X105151191Y-94292500D03*
X105151191Y-102292500D03*
X106151191Y-89292500D03*
X107151191Y-72292500D03*
X107151191Y-76292500D03*
X107151191Y-80292500D03*
X107151191Y-86292500D03*
X107151191Y-92292500D03*
X107151191Y-96292500D03*
X108151191Y-65292500D03*
X108151191Y-101292500D03*
X108151191Y-107292500D03*
X109151191Y-78292500D03*
X109151191Y-94292500D03*
X109151191Y-104292500D03*
X110151191Y-87292500D03*
X111151191Y-64292500D03*
X111151191Y-73292500D03*
X111151191Y-90292500D03*
X111151191Y-96292500D03*
X111151191Y-102292500D03*
X111151191Y-106292500D03*
X112151191Y-76292500D03*
X112151191Y-93292500D03*
X113151191Y-104292500D03*
X113151191Y-108292500D03*
X114151191Y-65292500D03*
X114151191Y-70292500D03*
X114151191Y-74292500D03*
X114151191Y-84292500D03*
X114151191Y-95292500D03*
X114151191Y-101292500D03*
X115151191Y-90292500D03*
X115151191Y-106292500D03*
X116151191Y-67292500D03*
X116151191Y-72292500D03*
X116151191Y-103292500D03*
X117151191Y-64292500D03*
X117151191Y-75292500D03*
X117151191Y-87292500D03*
X117151191Y-92292500D03*
X117151191Y-108292500D03*
X118151191Y-101292500D03*
X118151191Y-105292500D03*
X119151191Y-66292500D03*
X119151191Y-73292500D03*
X119151191Y-79292500D03*
X119151191Y-84292500D03*
X120151191Y-69292500D03*
X120151191Y-76292500D03*
X120151191Y-103292500D03*
X120151191Y-107292500D03*
X121151191Y-64292500D03*
X121151191Y-86292500D03*
X121151191Y-100292500D03*
X122151191Y-67292500D03*
X122151191Y-71292500D03*
X122151191Y-89292500D03*
X122151191Y-105292500D03*
X123151191Y-79292500D03*
X123151191Y-102292500D03*
X123151191Y-108292500D03*
X124151191Y-65292500D03*
X124151191Y-69292500D03*
X125151191Y-100292500D03*
X125151191Y-104292500D03*
X126151191Y-67292500D03*
X126151191Y-71292500D03*
X126151191Y-75292500D03*
X126151191Y-84292500D03*
X126151191Y-107292500D03*
X127151191Y-64292500D03*
X127151191Y-102292500D03*
X128151191Y-77292500D03*
X128250000Y-88500000D03*
X128151191Y-99292500D03*
X128151191Y-105292500D03*
X129151191Y-108292500D03*
X130151191Y-97292500D03*
X130151191Y-101292500D03*
X131151191Y-104292500D03*
X132151191Y-95292500D03*
X132151191Y-99292500D03*
X132151191Y-107292500D03*
X133151191Y-65292500D03*
X133151191Y-71292500D03*
X133151191Y-75292500D03*
X133151191Y-79292500D03*
X133151191Y-85292500D03*
X133151191Y-91292500D03*
X133151191Y-102292500D03*
X134151191Y-68292500D03*
X133250000Y-88250000D03*
X134151191Y-97292500D03*
X134151191Y-105292500D03*
X135151191Y-77292500D03*
X135151191Y-81292500D03*
X135151191Y-93292500D03*
X135151191Y-100292500D03*
X135151191Y-108292500D03*
X136151191Y-51292500D03*
X136151191Y-64292500D03*
X136151191Y-103292500D03*
X137250000Y-56292500D03*
X137250000Y-61292500D03*
X137151191Y-75500000D03*
X137151191Y-79292500D03*
X137151191Y-83292500D03*
X137151191Y-91292500D03*
X137151191Y-95292500D03*
X137151191Y-106292500D03*
X138151191Y-98292500D03*
X139151191Y-77292500D03*
X139151191Y-81292500D03*
X139151191Y-85292500D03*
X139151191Y-93292500D03*
X139151191Y-101292500D03*
X139151191Y-108292500D03*
X140151191Y-51292500D03*
X140151191Y-62292500D03*
X140151191Y-96292500D03*
X140151191Y-104292500D03*
X141151191Y-55292500D03*
X141151191Y-75500000D03*
X141151191Y-79292500D03*
X141151191Y-83292500D03*
X141151191Y-91292500D03*
X141151191Y-99292500D03*
X142151191Y-65292500D03*
X142151191Y-94292500D03*
X142151191Y-102292500D03*
X142151191Y-106292500D03*
X143151191Y-61292500D03*
X143151191Y-77292500D03*
X143151191Y-81292500D03*
X143151191Y-85292500D03*
X143151191Y-97292500D03*
X144151191Y-51292500D03*
X144151191Y-56292500D03*
X144151191Y-92292500D03*
X144151191Y-100292500D03*
X144151191Y-104292500D03*
X144151191Y-108292500D03*
X145151191Y-63292500D03*
X145151191Y-75292500D03*
X145151191Y-79292500D03*
X145151191Y-83292500D03*
X145151191Y-95292500D03*
X146151191Y-53292500D03*
X146151191Y-90292500D03*
X146151191Y-98292500D03*
X146151191Y-102292500D03*
X146151191Y-106292500D03*
X147151191Y-77292500D03*
X147151191Y-81292500D03*
X147151191Y-85292500D03*
X147151191Y-93292500D03*
X148151191Y-51292500D03*
X148151191Y-55292500D03*
X148151191Y-59292500D03*
X148151191Y-64292500D03*
X148151191Y-72292500D03*
X148151191Y-96292500D03*
X148151191Y-100292500D03*
X148151191Y-104292500D03*
X148151191Y-108292500D03*
X149151191Y-75292500D03*
X149151191Y-79292500D03*
X149151191Y-83292500D03*
X149151191Y-87292500D03*
X150151191Y-53292500D03*
X150151191Y-57292500D03*
X150151191Y-61292500D03*
X150151191Y-94292500D03*
X150151191Y-98292500D03*
X150151191Y-102292500D03*
X150151191Y-106292500D03*
X151151191Y-65292500D03*
X151151191Y-81292500D03*
X151151191Y-85292500D03*
X151151191Y-89292500D03*
X152151191Y-51292500D03*
X152151191Y-55292500D03*
X152151191Y-70292500D03*
X152151191Y-74292500D03*
X152151191Y-108292500D03*
X153151191Y-59292500D03*
X153151191Y-63292500D03*
X153151191Y-79292500D03*
X153151191Y-83292500D03*
X153151191Y-87292500D03*
X153151191Y-91292500D03*
X153250000Y-95292500D03*
X153250000Y-99292500D03*
X153250000Y-103292500D03*
X154151191Y-53292500D03*
X155151191Y-75292500D03*
X155151191Y-81292500D03*
X155151191Y-85292500D03*
X155151191Y-89292500D03*
X155151191Y-93292500D03*
X155151191Y-97292500D03*
X155151191Y-101292500D03*
X155151191Y-105292500D03*
X156151191Y-51292500D03*
X157151191Y-59292500D03*
X157151191Y-72292500D03*
X157151191Y-79292500D03*
X157151191Y-83292500D03*
X157151191Y-99292500D03*
X157151191Y-103292500D03*
X157151191Y-107292500D03*
X158151191Y-53292500D03*
X158151191Y-76292500D03*
X158151191Y-92292500D03*
X159151191Y-65292500D03*
X159151191Y-81292500D03*
X159151191Y-96292500D03*
X159151191Y-101292500D03*
X159151191Y-105292500D03*
X160151191Y-51292500D03*
X160151191Y-68292500D03*
X160151191Y-87292500D03*
X160151191Y-108292500D03*
X161151191Y-54292500D03*
X161151191Y-61292500D03*
X161151191Y-91292500D03*
X161151191Y-98292500D03*
X161151191Y-103292500D03*
X162151191Y-66292500D03*
X162151191Y-106292500D03*
X163151191Y-69292500D03*
X164151191Y-51292500D03*
X164151191Y-62292500D03*
X164151191Y-76292500D03*
X164151191Y-80292500D03*
X164151191Y-84292500D03*
X164151191Y-92292500D03*
X164151191Y-99292500D03*
X164151191Y-108292500D03*
X165151191Y-58292500D03*
X165151191Y-65292500D03*
X166151191Y-53292500D03*
X166151191Y-88292500D03*
X166151191Y-101292500D03*
X167151191Y-71292500D03*
X167151191Y-81292500D03*
X167151191Y-107292500D03*
X168151191Y-51292500D03*
X168151191Y-66292500D03*
X168151191Y-74292500D03*
X168151191Y-84292500D03*
X169151191Y-55292500D03*
X169151191Y-62292500D03*
X169151191Y-91292500D03*
X169151191Y-100292500D03*
X170151191Y-79292500D03*
X170151191Y-108292500D03*
X171151191Y-52292500D03*
X171151191Y-76292500D03*
X171151191Y-95292500D03*
X172151191Y-66292500D03*
X172151191Y-70292500D03*
X172151191Y-92292500D03*
X173151191Y-78292500D03*
X173151191Y-87292500D03*
X174151191Y-68292500D03*
X174151191Y-84292500D03*
X174151191Y-99292500D03*
X174151191Y-108292500D03*
X175151191Y-65292500D03*
X175151191Y-76292500D03*
X175151191Y-80292500D03*
X175151191Y-91292500D03*
X175151191Y-96292500D03*
X175151191Y-102292500D03*
X176151191Y-73292500D03*
X177151191Y-63292500D03*
X177151191Y-78292500D03*
X177151191Y-82292500D03*
X177151191Y-100292500D03*
X178151191Y-66292500D03*
X178151191Y-75292500D03*
X178151191Y-85292500D03*
X178151191Y-92292500D03*
X179151191Y-61292500D03*
X179151191Y-69292500D03*
X179151191Y-80292500D03*
X180151191Y-72292500D03*
X180151191Y-77292500D03*
X180151191Y-83292500D03*
X180151191Y-87292500D03*
X180151191Y-94292500D03*
X180151191Y-99292500D03*
X181151191Y-63292500D03*
X181151191Y-102292500D03*
X58250000Y-68250000D03*
X58250000Y-69500000D03*
X58250000Y-70750000D03*
X58250000Y-72000000D03*
X58250000Y-73250000D03*
X58250000Y-74500000D03*
X58250000Y-75750000D03*
X58250000Y-77000000D03*
X58250000Y-78250000D03*
X58250000Y-79500000D03*
X58250000Y-80750000D03*
X58250000Y-82000000D03*
X58250000Y-83250000D03*
X58250000Y-84500000D03*
X58250000Y-85750000D03*
X58250000Y-87000000D03*
X58250000Y-88250000D03*
X58250000Y-89500000D03*
X58250000Y-90750000D03*
X58250000Y-92000000D03*
X58250000Y-93250000D03*
X58250000Y-94500000D03*
X58250000Y-95750000D03*
X58250000Y-97000000D03*
X78250000Y-63000000D03*
X77250000Y-64000000D03*
X76250000Y-65000000D03*
X75250000Y-66000000D03*
X74250000Y-67000000D03*
X99000000Y-64250000D03*
X136250000Y-73500000D03*
X140000000Y-73500000D03*
X143500000Y-73500000D03*
X145500000Y-72000000D03*
X128250000Y-84250000D03*
X126500000Y-77250000D03*
X133250000Y-81750000D03*
X123250000Y-76250000D03*
X160500000Y-79250000D03*
X163250000Y-79000000D03*
X172250000Y-62500000D03*
X174750000Y-60750000D03*
%TO.N,+15V*%
X128250000Y-89750000D03*
X132900000Y-89750000D03*
X173315564Y-62934436D03*
X174446936Y-61803064D03*
%TO.N,-15V*%
X132900000Y-83000000D03*
X128250000Y-83000000D03*
X128250000Y-78750000D03*
X126550010Y-78750000D03*
X125300000Y-77500000D03*
X123700000Y-77500000D03*
X162912510Y-78000000D03*
X160712500Y-78000000D03*
%TO.N,+36V*%
X124750000Y-62250000D03*
X90000000Y-61000000D03*
X90000000Y-62250000D03*
X90000000Y-63500000D03*
X90000000Y-64750000D03*
X90000000Y-66000000D03*
X88750000Y-66000000D03*
X88750000Y-64750000D03*
X88750000Y-63500000D03*
X88750000Y-62250000D03*
X88750000Y-61000000D03*
X87500000Y-64750000D03*
X87500000Y-66000000D03*
X87500000Y-67250000D03*
X86250000Y-67250000D03*
X85000000Y-67250000D03*
X83750000Y-67250000D03*
X83750000Y-66000000D03*
X85000000Y-66000000D03*
X86250000Y-66000000D03*
X86250000Y-64750000D03*
X85000000Y-64750000D03*
X83750000Y-64750000D03*
X82500000Y-64750000D03*
X81250000Y-64750000D03*
X80000000Y-64750000D03*
X80000000Y-66000000D03*
X81250000Y-66000000D03*
X82500000Y-66000000D03*
X82500000Y-67250000D03*
X81250000Y-67250000D03*
X80000000Y-67250000D03*
X78750000Y-66000000D03*
X78750000Y-67250000D03*
X77500000Y-67250000D03*
X88750000Y-67250000D03*
%TO.N,-36V*%
X75000000Y-51000000D03*
X75000000Y-52250000D03*
X75000000Y-53500000D03*
X76250000Y-53500000D03*
X76250000Y-52250000D03*
X76250000Y-51000000D03*
X77500000Y-51000000D03*
X77500000Y-52250000D03*
X77500000Y-53500000D03*
X78750000Y-53500000D03*
X78750000Y-52250000D03*
X78750000Y-51000000D03*
X80000000Y-51000000D03*
X80000000Y-52250000D03*
X80000000Y-53500000D03*
X81250000Y-53500000D03*
X81250000Y-52250000D03*
X81250000Y-51000000D03*
X82500000Y-51000000D03*
X82500000Y-52250000D03*
X82500000Y-53500000D03*
X83750000Y-53500000D03*
X83750000Y-52250000D03*
X83750000Y-51000000D03*
%TD*%
D22*
%TO.N,+15V*%
X128250000Y-89750000D02*
X132900000Y-89750000D01*
X173315564Y-62934436D02*
X174446936Y-61803064D01*
%TO.N,-15V*%
X132900000Y-83000000D02*
X128600000Y-83000000D01*
X128600000Y-83000000D02*
X128250000Y-83000000D01*
X128250000Y-78750000D02*
X126550010Y-78750000D01*
X125300000Y-77500000D02*
X123700000Y-77500000D01*
X162912510Y-78000000D02*
X160712500Y-78000000D01*
D23*
%TO.N,MUTE*%
X139400000Y-53670000D02*
X137820000Y-55250000D01*
X103480000Y-55250000D02*
X101900000Y-53670000D01*
X137820000Y-55250000D02*
X103480000Y-55250000D01*
X70950000Y-55250000D02*
X69500000Y-56700000D01*
X100320000Y-55250000D02*
X70950000Y-55250000D01*
X101900000Y-53670000D02*
X100320000Y-55250000D01*
%TD*%
%TO.N,GND*%
G36*
X73125839Y-50499993D02*
G01*
X73084254Y-50577792D01*
X73058647Y-50662209D01*
X73050000Y-50750000D01*
X73050000Y-54250000D01*
X73058647Y-54337791D01*
X73084254Y-54422208D01*
X73125839Y-54500007D01*
X73181802Y-54568198D01*
X73263604Y-54650000D01*
X70979474Y-54650000D01*
X70950000Y-54647097D01*
X70920526Y-54650000D01*
X70832379Y-54658682D01*
X70719279Y-54692990D01*
X70615045Y-54748704D01*
X70523683Y-54823683D01*
X70504894Y-54846578D01*
X69855290Y-55496183D01*
X69623114Y-55450000D01*
X69376886Y-55450000D01*
X69135389Y-55498037D01*
X68907903Y-55592265D01*
X68703172Y-55729062D01*
X68529062Y-55903172D01*
X68392265Y-56107903D01*
X68298037Y-56335389D01*
X68250000Y-56576886D01*
X68250000Y-56823114D01*
X68298037Y-57064611D01*
X68392265Y-57292097D01*
X68529062Y-57496828D01*
X68703172Y-57670938D01*
X68907903Y-57807735D01*
X69135389Y-57901963D01*
X69376886Y-57950000D01*
X69623114Y-57950000D01*
X69864611Y-57901963D01*
X70092097Y-57807735D01*
X70296828Y-57670938D01*
X70470938Y-57496828D01*
X70607735Y-57292097D01*
X70701963Y-57064611D01*
X70750000Y-56823114D01*
X70750000Y-56576886D01*
X70703817Y-56344710D01*
X71198528Y-55850000D01*
X86263604Y-55850000D01*
X76181802Y-65931802D01*
X76125839Y-65999993D01*
X76084254Y-66077792D01*
X76058647Y-66162209D01*
X76050000Y-66250000D01*
X76050000Y-68250000D01*
X76058647Y-68337791D01*
X76084254Y-68422208D01*
X76125839Y-68500007D01*
X76181802Y-68568198D01*
X76249993Y-68624161D01*
X76327792Y-68665746D01*
X76412209Y-68691353D01*
X76500000Y-68700000D01*
X89250000Y-68700000D01*
X89337791Y-68691353D01*
X89422208Y-68665746D01*
X89500007Y-68624161D01*
X89568198Y-68568198D01*
X94186396Y-63950000D01*
X135500000Y-63950000D01*
X135587791Y-63941353D01*
X135672208Y-63915746D01*
X135750007Y-63874161D01*
X135818198Y-63818198D01*
X136780753Y-62855643D01*
X172515564Y-62855643D01*
X172515564Y-63013229D01*
X172546307Y-63167787D01*
X172606613Y-63313378D01*
X172694163Y-63444406D01*
X172805594Y-63555837D01*
X172936622Y-63643387D01*
X173082213Y-63703693D01*
X173236771Y-63734436D01*
X173394357Y-63734436D01*
X173548915Y-63703693D01*
X173694506Y-63643387D01*
X173825534Y-63555837D01*
X173936965Y-63444406D01*
X174024515Y-63313378D01*
X174084821Y-63167787D01*
X174087964Y-63151985D01*
X174664486Y-62575464D01*
X174680287Y-62572321D01*
X174825878Y-62512015D01*
X174956906Y-62424465D01*
X175068337Y-62313034D01*
X175155887Y-62182006D01*
X175216193Y-62036415D01*
X175246936Y-61881857D01*
X175246936Y-61724271D01*
X175216193Y-61569713D01*
X175155887Y-61424122D01*
X175068337Y-61293094D01*
X174956906Y-61181663D01*
X174825878Y-61094113D01*
X174680287Y-61033807D01*
X174525729Y-61003064D01*
X174368143Y-61003064D01*
X174213585Y-61033807D01*
X174067994Y-61094113D01*
X173936966Y-61181663D01*
X173825535Y-61293094D01*
X173737985Y-61424122D01*
X173677679Y-61569713D01*
X173674536Y-61585514D01*
X173098015Y-62162036D01*
X173082213Y-62165179D01*
X172936622Y-62225485D01*
X172805594Y-62313035D01*
X172694163Y-62424466D01*
X172606613Y-62555494D01*
X172546307Y-62701085D01*
X172515564Y-62855643D01*
X136780753Y-62855643D01*
X136818198Y-62818198D01*
X136874161Y-62750007D01*
X136915746Y-62672208D01*
X136941353Y-62587791D01*
X136950000Y-62500000D01*
X136950000Y-59868110D01*
X137140205Y-59978470D01*
X137390624Y-60064076D01*
X137600000Y-59983795D01*
X137600000Y-58850000D01*
X137800000Y-58850000D01*
X137800000Y-59983795D01*
X138009376Y-60064076D01*
X138259795Y-59978470D01*
X138488701Y-59845655D01*
X138687298Y-59670734D01*
X138847954Y-59460430D01*
X138964494Y-59222825D01*
X139014072Y-59059375D01*
X138933453Y-58850000D01*
X137800000Y-58850000D01*
X137600000Y-58850000D01*
X137580000Y-58850000D01*
X137580000Y-58650000D01*
X137600000Y-58650000D01*
X137600000Y-57516205D01*
X137800000Y-57516205D01*
X137800000Y-58650000D01*
X138933453Y-58650000D01*
X138946145Y-58617037D01*
X139750000Y-58617037D01*
X139750000Y-58882963D01*
X139801880Y-59143780D01*
X139903646Y-59389465D01*
X140051387Y-59610575D01*
X140239425Y-59798613D01*
X140460535Y-59946354D01*
X140706220Y-60048120D01*
X140967037Y-60100000D01*
X141232963Y-60100000D01*
X141493780Y-60048120D01*
X141739465Y-59946354D01*
X141960575Y-59798613D01*
X142148613Y-59610575D01*
X142296354Y-59389465D01*
X142398120Y-59143780D01*
X142450000Y-58882963D01*
X142450000Y-58617037D01*
X143150000Y-58617037D01*
X143150000Y-58882963D01*
X143201880Y-59143780D01*
X143303646Y-59389465D01*
X143451387Y-59610575D01*
X143639425Y-59798613D01*
X143860535Y-59946354D01*
X144106220Y-60048120D01*
X144367037Y-60100000D01*
X144632963Y-60100000D01*
X144893780Y-60048120D01*
X145139465Y-59946354D01*
X145360575Y-59798613D01*
X145548613Y-59610575D01*
X145696354Y-59389465D01*
X145798120Y-59143780D01*
X145850000Y-58882963D01*
X145850000Y-58617037D01*
X145798120Y-58356220D01*
X145696354Y-58110535D01*
X145548613Y-57889425D01*
X145360575Y-57701387D01*
X145139465Y-57553646D01*
X144893780Y-57451880D01*
X144632963Y-57400000D01*
X144367037Y-57400000D01*
X144106220Y-57451880D01*
X143860535Y-57553646D01*
X143639425Y-57701387D01*
X143451387Y-57889425D01*
X143303646Y-58110535D01*
X143201880Y-58356220D01*
X143150000Y-58617037D01*
X142450000Y-58617037D01*
X142398120Y-58356220D01*
X142296354Y-58110535D01*
X142148613Y-57889425D01*
X141960575Y-57701387D01*
X141739465Y-57553646D01*
X141493780Y-57451880D01*
X141232963Y-57400000D01*
X140967037Y-57400000D01*
X140706220Y-57451880D01*
X140460535Y-57553646D01*
X140239425Y-57701387D01*
X140051387Y-57889425D01*
X139903646Y-58110535D01*
X139801880Y-58356220D01*
X139750000Y-58617037D01*
X138946145Y-58617037D01*
X139014072Y-58440625D01*
X138964494Y-58277175D01*
X138847954Y-58039570D01*
X138687298Y-57829266D01*
X138488701Y-57654345D01*
X138259795Y-57521530D01*
X138009376Y-57435924D01*
X137800000Y-57516205D01*
X137600000Y-57516205D01*
X137390624Y-57435924D01*
X137140205Y-57521530D01*
X136950000Y-57631890D01*
X136950000Y-56500000D01*
X136941353Y-56412209D01*
X136915746Y-56327792D01*
X136874161Y-56249993D01*
X136818198Y-56181802D01*
X136486396Y-55850000D01*
X137790526Y-55850000D01*
X137820000Y-55852903D01*
X137849474Y-55850000D01*
X137937621Y-55841318D01*
X138050721Y-55807010D01*
X138154955Y-55751296D01*
X138246317Y-55676317D01*
X138265113Y-55653414D01*
X138966755Y-54951773D01*
X139006220Y-54968120D01*
X139267037Y-55020000D01*
X139532963Y-55020000D01*
X139793780Y-54968120D01*
X140039465Y-54866354D01*
X140260575Y-54718613D01*
X140448613Y-54530575D01*
X140596354Y-54309465D01*
X140698120Y-54063780D01*
X140750000Y-53802963D01*
X140750000Y-53537037D01*
X141450000Y-53537037D01*
X141450000Y-53802963D01*
X141501880Y-54063780D01*
X141603646Y-54309465D01*
X141751387Y-54530575D01*
X141939425Y-54718613D01*
X142160535Y-54866354D01*
X142406220Y-54968120D01*
X142667037Y-55020000D01*
X142932963Y-55020000D01*
X143193780Y-54968120D01*
X143439465Y-54866354D01*
X143660575Y-54718613D01*
X143848613Y-54530575D01*
X143996354Y-54309465D01*
X144098120Y-54063780D01*
X144150000Y-53802963D01*
X144150000Y-53537037D01*
X144098120Y-53276220D01*
X143996354Y-53030535D01*
X143848613Y-52809425D01*
X143660575Y-52621387D01*
X143439465Y-52473646D01*
X143193780Y-52371880D01*
X142932963Y-52320000D01*
X142667037Y-52320000D01*
X142406220Y-52371880D01*
X142160535Y-52473646D01*
X141939425Y-52621387D01*
X141751387Y-52809425D01*
X141603646Y-53030535D01*
X141501880Y-53276220D01*
X141450000Y-53537037D01*
X140750000Y-53537037D01*
X140698120Y-53276220D01*
X140596354Y-53030535D01*
X140448613Y-52809425D01*
X140260575Y-52621387D01*
X140039465Y-52473646D01*
X139793780Y-52371880D01*
X139532963Y-52320000D01*
X139267037Y-52320000D01*
X139006220Y-52371880D01*
X138760535Y-52473646D01*
X138539425Y-52621387D01*
X138351387Y-52809425D01*
X138203646Y-53030535D01*
X138101880Y-53276220D01*
X138050000Y-53537037D01*
X138050000Y-53802963D01*
X138101880Y-54063780D01*
X138118227Y-54103245D01*
X137571473Y-54650000D01*
X136929188Y-54650000D01*
X137048613Y-54530575D01*
X137196354Y-54309465D01*
X137298120Y-54063780D01*
X137350000Y-53802963D01*
X137350000Y-53537037D01*
X137298120Y-53276220D01*
X137196354Y-53030535D01*
X137048613Y-52809425D01*
X136860575Y-52621387D01*
X136639465Y-52473646D01*
X136393780Y-52371880D01*
X136132963Y-52320000D01*
X135867037Y-52320000D01*
X135606220Y-52371880D01*
X135360535Y-52473646D01*
X135139425Y-52621387D01*
X134951387Y-52809425D01*
X134803646Y-53030535D01*
X134701880Y-53276220D01*
X134700000Y-53285671D01*
X134700000Y-50750000D01*
X134691353Y-50662209D01*
X134665746Y-50577792D01*
X134624161Y-50499993D01*
X134603650Y-50475000D01*
X174600000Y-50475000D01*
X174600000Y-59250000D01*
X174602882Y-59279264D01*
X174611418Y-59307403D01*
X174625280Y-59333336D01*
X174643934Y-59356066D01*
X175643934Y-60356066D01*
X175666664Y-60374720D01*
X175692597Y-60388582D01*
X175720736Y-60397118D01*
X175750000Y-60400000D01*
X182025001Y-60400000D01*
X182025000Y-104618640D01*
X181984588Y-104521077D01*
X181585140Y-103923260D01*
X181076740Y-103414860D01*
X180478923Y-103015412D01*
X179814666Y-102740267D01*
X179109494Y-102600000D01*
X178390506Y-102600000D01*
X177685334Y-102740267D01*
X177021077Y-103015412D01*
X176423260Y-103414860D01*
X175914860Y-103923260D01*
X175515412Y-104521077D01*
X175240267Y-105185334D01*
X175100000Y-105890506D01*
X175100000Y-106609494D01*
X175240267Y-107314666D01*
X175515412Y-107978923D01*
X175914860Y-108576740D01*
X176423260Y-109085140D01*
X177021077Y-109484588D01*
X177118640Y-109525000D01*
X62881360Y-109525000D01*
X62978923Y-109484588D01*
X63576740Y-109085140D01*
X64085140Y-108576740D01*
X64484588Y-107978923D01*
X64759733Y-107314666D01*
X64900000Y-106609494D01*
X64900000Y-105890506D01*
X64759733Y-105185334D01*
X64617691Y-104842414D01*
X67150000Y-104842414D01*
X67150000Y-105157586D01*
X67211487Y-105466703D01*
X67332098Y-105757884D01*
X67507199Y-106019941D01*
X67730059Y-106242801D01*
X67992116Y-106417902D01*
X68283297Y-106538513D01*
X68592414Y-106600000D01*
X68907586Y-106600000D01*
X69216703Y-106538513D01*
X69507884Y-106417902D01*
X69769941Y-106242801D01*
X69887103Y-106125639D01*
X72765782Y-106125639D01*
X72887724Y-106356951D01*
X73169021Y-106499099D01*
X73472644Y-106583638D01*
X73786926Y-106607318D01*
X74099789Y-106569230D01*
X74399209Y-106470837D01*
X74612276Y-106356951D01*
X74734218Y-106125639D01*
X73750000Y-105141421D01*
X72765782Y-106125639D01*
X69887103Y-106125639D01*
X69992801Y-106019941D01*
X70167902Y-105757884D01*
X70288513Y-105466703D01*
X70350000Y-105157586D01*
X70350000Y-105036926D01*
X72142682Y-105036926D01*
X72180770Y-105349789D01*
X72279163Y-105649209D01*
X72393049Y-105862276D01*
X72624361Y-105984218D01*
X73608579Y-105000000D01*
X73891421Y-105000000D01*
X74875639Y-105984218D01*
X75106951Y-105862276D01*
X75249099Y-105580979D01*
X75333638Y-105277356D01*
X75357318Y-104963074D01*
X75342629Y-104842414D01*
X77150000Y-104842414D01*
X77150000Y-105157586D01*
X77211487Y-105466703D01*
X77332098Y-105757884D01*
X77507199Y-106019941D01*
X77730059Y-106242801D01*
X77992116Y-106417902D01*
X78283297Y-106538513D01*
X78592414Y-106600000D01*
X78907586Y-106600000D01*
X79216703Y-106538513D01*
X79507884Y-106417902D01*
X79769941Y-106242801D01*
X79887103Y-106125639D01*
X86515782Y-106125639D01*
X86637724Y-106356951D01*
X86919021Y-106499099D01*
X87222644Y-106583638D01*
X87536926Y-106607318D01*
X87849789Y-106569230D01*
X88149209Y-106470837D01*
X88362276Y-106356951D01*
X88484218Y-106125639D01*
X87500000Y-105141421D01*
X86515782Y-106125639D01*
X79887103Y-106125639D01*
X79992801Y-106019941D01*
X80167902Y-105757884D01*
X80288513Y-105466703D01*
X80350000Y-105157586D01*
X80350000Y-105036926D01*
X85892682Y-105036926D01*
X85930770Y-105349789D01*
X86029163Y-105649209D01*
X86143049Y-105862276D01*
X86374361Y-105984218D01*
X87358579Y-105000000D01*
X87641421Y-105000000D01*
X88625639Y-105984218D01*
X88856951Y-105862276D01*
X88999099Y-105580979D01*
X89083638Y-105277356D01*
X89107318Y-104963074D01*
X89092629Y-104842414D01*
X90900000Y-104842414D01*
X90900000Y-105157586D01*
X90961487Y-105466703D01*
X91082098Y-105757884D01*
X91257199Y-106019941D01*
X91480059Y-106242801D01*
X91742116Y-106417902D01*
X92033297Y-106538513D01*
X92342414Y-106600000D01*
X92657586Y-106600000D01*
X92966703Y-106538513D01*
X93257884Y-106417902D01*
X93519941Y-106242801D01*
X93742801Y-106019941D01*
X93917902Y-105757884D01*
X94038513Y-105466703D01*
X94100000Y-105157586D01*
X94100000Y-104892565D01*
X104450000Y-104892565D01*
X104450000Y-105227435D01*
X104515330Y-105555872D01*
X104643479Y-105865252D01*
X104829523Y-106143687D01*
X105066313Y-106380477D01*
X105344748Y-106566521D01*
X105654128Y-106694670D01*
X105982565Y-106760000D01*
X106317435Y-106760000D01*
X106645872Y-106694670D01*
X106955252Y-106566521D01*
X107233687Y-106380477D01*
X107470477Y-106143687D01*
X107553927Y-106018794D01*
X163372628Y-106018794D01*
X163476509Y-106234750D01*
X163732259Y-106361925D01*
X164007906Y-106436762D01*
X164292856Y-106456386D01*
X164576159Y-106420042D01*
X164846928Y-106329125D01*
X165023491Y-106234750D01*
X165127372Y-106018794D01*
X164250000Y-105141421D01*
X163372628Y-106018794D01*
X107553927Y-106018794D01*
X107656521Y-105865252D01*
X107784670Y-105555872D01*
X107850000Y-105227435D01*
X107850000Y-105042856D01*
X162793614Y-105042856D01*
X162829958Y-105326159D01*
X162920875Y-105596928D01*
X163015250Y-105773491D01*
X163231206Y-105877372D01*
X164108579Y-105000000D01*
X164391421Y-105000000D01*
X165268794Y-105877372D01*
X165484750Y-105773491D01*
X165611925Y-105517741D01*
X165686762Y-105242094D01*
X165706386Y-104957144D01*
X165693563Y-104857187D01*
X166300000Y-104857187D01*
X166300000Y-105142813D01*
X166355723Y-105422949D01*
X166465027Y-105686833D01*
X166623711Y-105924321D01*
X166825679Y-106126289D01*
X167063167Y-106284973D01*
X167327051Y-106394277D01*
X167607187Y-106450000D01*
X167892813Y-106450000D01*
X168172949Y-106394277D01*
X168436833Y-106284973D01*
X168674321Y-106126289D01*
X168876289Y-105924321D01*
X169034973Y-105686833D01*
X169144277Y-105422949D01*
X169200000Y-105142813D01*
X169200000Y-104857187D01*
X169800000Y-104857187D01*
X169800000Y-105142813D01*
X169855723Y-105422949D01*
X169965027Y-105686833D01*
X170123711Y-105924321D01*
X170325679Y-106126289D01*
X170563167Y-106284973D01*
X170827051Y-106394277D01*
X171107187Y-106450000D01*
X171392813Y-106450000D01*
X171672949Y-106394277D01*
X171936833Y-106284973D01*
X172174321Y-106126289D01*
X172376289Y-105924321D01*
X172534973Y-105686833D01*
X172644277Y-105422949D01*
X172700000Y-105142813D01*
X172700000Y-104857187D01*
X172644277Y-104577051D01*
X172534973Y-104313167D01*
X172376289Y-104075679D01*
X172174321Y-103873711D01*
X171936833Y-103715027D01*
X171672949Y-103605723D01*
X171392813Y-103550000D01*
X171107187Y-103550000D01*
X170827051Y-103605723D01*
X170563167Y-103715027D01*
X170325679Y-103873711D01*
X170123711Y-104075679D01*
X169965027Y-104313167D01*
X169855723Y-104577051D01*
X169800000Y-104857187D01*
X169200000Y-104857187D01*
X169144277Y-104577051D01*
X169034973Y-104313167D01*
X168876289Y-104075679D01*
X168674321Y-103873711D01*
X168436833Y-103715027D01*
X168172949Y-103605723D01*
X167892813Y-103550000D01*
X167607187Y-103550000D01*
X167327051Y-103605723D01*
X167063167Y-103715027D01*
X166825679Y-103873711D01*
X166623711Y-104075679D01*
X166465027Y-104313167D01*
X166355723Y-104577051D01*
X166300000Y-104857187D01*
X165693563Y-104857187D01*
X165670042Y-104673841D01*
X165579125Y-104403072D01*
X165484750Y-104226509D01*
X165268794Y-104122628D01*
X164391421Y-105000000D01*
X164108579Y-105000000D01*
X163231206Y-104122628D01*
X163015250Y-104226509D01*
X162888075Y-104482259D01*
X162813238Y-104757906D01*
X162793614Y-105042856D01*
X107850000Y-105042856D01*
X107850000Y-104892565D01*
X107784670Y-104564128D01*
X107656521Y-104254748D01*
X107473747Y-103981206D01*
X163372628Y-103981206D01*
X164250000Y-104858579D01*
X165127372Y-103981206D01*
X165023491Y-103765250D01*
X164767741Y-103638075D01*
X164492094Y-103563238D01*
X164207144Y-103543614D01*
X163923841Y-103579958D01*
X163653072Y-103670875D01*
X163476509Y-103765250D01*
X163372628Y-103981206D01*
X107473747Y-103981206D01*
X107470477Y-103976313D01*
X107233687Y-103739523D01*
X106955252Y-103553479D01*
X106645872Y-103425330D01*
X106317435Y-103360000D01*
X105982565Y-103360000D01*
X105654128Y-103425330D01*
X105344748Y-103553479D01*
X105066313Y-103739523D01*
X104829523Y-103976313D01*
X104643479Y-104254748D01*
X104515330Y-104564128D01*
X104450000Y-104892565D01*
X94100000Y-104892565D01*
X94100000Y-104842414D01*
X94038513Y-104533297D01*
X93917902Y-104242116D01*
X93742801Y-103980059D01*
X93519941Y-103757199D01*
X93257884Y-103582098D01*
X92966703Y-103461487D01*
X92657586Y-103400000D01*
X92342414Y-103400000D01*
X92033297Y-103461487D01*
X91742116Y-103582098D01*
X91480059Y-103757199D01*
X91257199Y-103980059D01*
X91082098Y-104242116D01*
X90961487Y-104533297D01*
X90900000Y-104842414D01*
X89092629Y-104842414D01*
X89069230Y-104650211D01*
X88970837Y-104350791D01*
X88856951Y-104137724D01*
X88625639Y-104015782D01*
X87641421Y-105000000D01*
X87358579Y-105000000D01*
X86374361Y-104015782D01*
X86143049Y-104137724D01*
X86000901Y-104419021D01*
X85916362Y-104722644D01*
X85892682Y-105036926D01*
X80350000Y-105036926D01*
X80350000Y-104842414D01*
X80288513Y-104533297D01*
X80167902Y-104242116D01*
X79992801Y-103980059D01*
X79887103Y-103874361D01*
X86515782Y-103874361D01*
X87500000Y-104858579D01*
X88484218Y-103874361D01*
X88362276Y-103643049D01*
X88080979Y-103500901D01*
X87777356Y-103416362D01*
X87463074Y-103392682D01*
X87150211Y-103430770D01*
X86850791Y-103529163D01*
X86637724Y-103643049D01*
X86515782Y-103874361D01*
X79887103Y-103874361D01*
X79769941Y-103757199D01*
X79507884Y-103582098D01*
X79216703Y-103461487D01*
X78907586Y-103400000D01*
X78592414Y-103400000D01*
X78283297Y-103461487D01*
X77992116Y-103582098D01*
X77730059Y-103757199D01*
X77507199Y-103980059D01*
X77332098Y-104242116D01*
X77211487Y-104533297D01*
X77150000Y-104842414D01*
X75342629Y-104842414D01*
X75319230Y-104650211D01*
X75220837Y-104350791D01*
X75106951Y-104137724D01*
X74875639Y-104015782D01*
X73891421Y-105000000D01*
X73608579Y-105000000D01*
X72624361Y-104015782D01*
X72393049Y-104137724D01*
X72250901Y-104419021D01*
X72166362Y-104722644D01*
X72142682Y-105036926D01*
X70350000Y-105036926D01*
X70350000Y-104842414D01*
X70288513Y-104533297D01*
X70167902Y-104242116D01*
X69992801Y-103980059D01*
X69887103Y-103874361D01*
X72765782Y-103874361D01*
X73750000Y-104858579D01*
X74734218Y-103874361D01*
X74612276Y-103643049D01*
X74330979Y-103500901D01*
X74027356Y-103416362D01*
X73713074Y-103392682D01*
X73400211Y-103430770D01*
X73100791Y-103529163D01*
X72887724Y-103643049D01*
X72765782Y-103874361D01*
X69887103Y-103874361D01*
X69769941Y-103757199D01*
X69507884Y-103582098D01*
X69216703Y-103461487D01*
X68907586Y-103400000D01*
X68592414Y-103400000D01*
X68283297Y-103461487D01*
X67992116Y-103582098D01*
X67730059Y-103757199D01*
X67507199Y-103980059D01*
X67332098Y-104242116D01*
X67211487Y-104533297D01*
X67150000Y-104842414D01*
X64617691Y-104842414D01*
X64484588Y-104521077D01*
X64085140Y-103923260D01*
X63576740Y-103414860D01*
X62978923Y-103015412D01*
X62314666Y-102740267D01*
X61609494Y-102600000D01*
X60890506Y-102600000D01*
X60185334Y-102740267D01*
X59521077Y-103015412D01*
X58923260Y-103414860D01*
X58414860Y-103923260D01*
X58015412Y-104521077D01*
X57975000Y-104618640D01*
X57975000Y-97272565D01*
X117150000Y-97272565D01*
X117150000Y-97607435D01*
X117215330Y-97935872D01*
X117343479Y-98245252D01*
X117529523Y-98523687D01*
X117766313Y-98760477D01*
X118044748Y-98946521D01*
X118354128Y-99074670D01*
X118682565Y-99140000D01*
X119017435Y-99140000D01*
X119345872Y-99074670D01*
X119655252Y-98946521D01*
X119933687Y-98760477D01*
X120170477Y-98523687D01*
X120356521Y-98245252D01*
X120484670Y-97935872D01*
X120550000Y-97607435D01*
X120550000Y-97272565D01*
X120484670Y-96944128D01*
X120356521Y-96634748D01*
X120170477Y-96356313D01*
X119933687Y-96119523D01*
X119655252Y-95933479D01*
X119345872Y-95805330D01*
X119017435Y-95740000D01*
X118682565Y-95740000D01*
X118354128Y-95805330D01*
X118044748Y-95933479D01*
X117766313Y-96119523D01*
X117529523Y-96356313D01*
X117343479Y-96634748D01*
X117215330Y-96944128D01*
X117150000Y-97272565D01*
X57975000Y-97272565D01*
X57975000Y-94376886D01*
X156500000Y-94376886D01*
X156500000Y-94623114D01*
X156548037Y-94864611D01*
X156642265Y-95092097D01*
X156779062Y-95296828D01*
X156953172Y-95470938D01*
X157157903Y-95607735D01*
X157385389Y-95701963D01*
X157626886Y-95750000D01*
X157873114Y-95750000D01*
X158114611Y-95701963D01*
X158342097Y-95607735D01*
X158546828Y-95470938D01*
X158720938Y-95296828D01*
X158857735Y-95092097D01*
X158951963Y-94864611D01*
X159000000Y-94623114D01*
X159000000Y-94376886D01*
X176500000Y-94376886D01*
X176500000Y-94623114D01*
X176548037Y-94864611D01*
X176642265Y-95092097D01*
X176779062Y-95296828D01*
X176953172Y-95470938D01*
X177157903Y-95607735D01*
X177385389Y-95701963D01*
X177626886Y-95750000D01*
X177873114Y-95750000D01*
X178114611Y-95701963D01*
X178342097Y-95607735D01*
X178546828Y-95470938D01*
X178720938Y-95296828D01*
X178857735Y-95092097D01*
X178951963Y-94864611D01*
X179000000Y-94623114D01*
X179000000Y-94376886D01*
X178951963Y-94135389D01*
X178857735Y-93907903D01*
X178720938Y-93703172D01*
X178546828Y-93529062D01*
X178342097Y-93392265D01*
X178114611Y-93298037D01*
X177873114Y-93250000D01*
X177626886Y-93250000D01*
X177385389Y-93298037D01*
X177157903Y-93392265D01*
X176953172Y-93529062D01*
X176779062Y-93703172D01*
X176642265Y-93907903D01*
X176548037Y-94135389D01*
X176500000Y-94376886D01*
X159000000Y-94376886D01*
X158951963Y-94135389D01*
X158857735Y-93907903D01*
X158720938Y-93703172D01*
X158546828Y-93529062D01*
X158342097Y-93392265D01*
X158114611Y-93298037D01*
X157873114Y-93250000D01*
X157626886Y-93250000D01*
X157385389Y-93298037D01*
X157157903Y-93392265D01*
X156953172Y-93529062D01*
X156779062Y-93703172D01*
X156642265Y-93907903D01*
X156548037Y-94135389D01*
X156500000Y-94376886D01*
X57975000Y-94376886D01*
X57975000Y-89661243D01*
X64730179Y-89661243D01*
X64858138Y-89897674D01*
X65147947Y-90044812D01*
X65460892Y-90132584D01*
X65784949Y-90157616D01*
X66107662Y-90118947D01*
X66416631Y-90018063D01*
X66641862Y-89897674D01*
X66769821Y-89661243D01*
X65750000Y-88641421D01*
X64730179Y-89661243D01*
X57975000Y-89661243D01*
X57975000Y-88534949D01*
X64092384Y-88534949D01*
X64131053Y-88857662D01*
X64231937Y-89166631D01*
X64352326Y-89391862D01*
X64588757Y-89519821D01*
X65608579Y-88500000D01*
X65891421Y-88500000D01*
X66911243Y-89519821D01*
X67147674Y-89391862D01*
X67294812Y-89102053D01*
X67382584Y-88789108D01*
X67407616Y-88465051D01*
X67368947Y-88142338D01*
X67268063Y-87833369D01*
X67147674Y-87608138D01*
X66911243Y-87480179D01*
X65891421Y-88500000D01*
X65608579Y-88500000D01*
X64588757Y-87480179D01*
X64352326Y-87608138D01*
X64205188Y-87897947D01*
X64117416Y-88210892D01*
X64092384Y-88534949D01*
X57975000Y-88534949D01*
X57975000Y-87338757D01*
X64730179Y-87338757D01*
X65750000Y-88358579D01*
X66769821Y-87338757D01*
X66748846Y-87300000D01*
X71597823Y-87300000D01*
X71597823Y-89700000D01*
X71606511Y-89788215D01*
X71632243Y-89873041D01*
X71674029Y-89951216D01*
X71730263Y-90019737D01*
X71798784Y-90075971D01*
X71876959Y-90117757D01*
X71961785Y-90143489D01*
X72050000Y-90152177D01*
X74450000Y-90152177D01*
X74538215Y-90143489D01*
X74623041Y-90117757D01*
X74701216Y-90075971D01*
X74769737Y-90019737D01*
X74825971Y-89951216D01*
X74865701Y-89876886D01*
X87000000Y-89876886D01*
X87000000Y-90123114D01*
X87048037Y-90364611D01*
X87142265Y-90592097D01*
X87279062Y-90796828D01*
X87453172Y-90970938D01*
X87657903Y-91107735D01*
X87885389Y-91201963D01*
X88126886Y-91250000D01*
X88373114Y-91250000D01*
X88614611Y-91201963D01*
X88842097Y-91107735D01*
X89046828Y-90970938D01*
X89220938Y-90796828D01*
X89357735Y-90592097D01*
X89451963Y-90364611D01*
X89500000Y-90123114D01*
X89500000Y-89876886D01*
X92000000Y-89876886D01*
X92000000Y-90123114D01*
X92048037Y-90364611D01*
X92142265Y-90592097D01*
X92279062Y-90796828D01*
X92453172Y-90970938D01*
X92657903Y-91107735D01*
X92885389Y-91201963D01*
X93126886Y-91250000D01*
X93373114Y-91250000D01*
X93614611Y-91201963D01*
X93842097Y-91107735D01*
X94046828Y-90970938D01*
X94220938Y-90796828D01*
X94357735Y-90592097D01*
X94451963Y-90364611D01*
X94500000Y-90123114D01*
X94500000Y-89876886D01*
X102250000Y-89876886D01*
X102250000Y-90123114D01*
X102298037Y-90364611D01*
X102392265Y-90592097D01*
X102529062Y-90796828D01*
X102703172Y-90970938D01*
X102907903Y-91107735D01*
X103135389Y-91201963D01*
X103376886Y-91250000D01*
X103623114Y-91250000D01*
X103864611Y-91201963D01*
X104092097Y-91107735D01*
X104296828Y-90970938D01*
X104470938Y-90796828D01*
X104607735Y-90592097D01*
X104701963Y-90364611D01*
X104750000Y-90123114D01*
X104750000Y-89876886D01*
X107250000Y-89876886D01*
X107250000Y-90123114D01*
X107298037Y-90364611D01*
X107392265Y-90592097D01*
X107529062Y-90796828D01*
X107703172Y-90970938D01*
X107907903Y-91107735D01*
X108135389Y-91201963D01*
X108376886Y-91250000D01*
X108623114Y-91250000D01*
X108864611Y-91201963D01*
X109092097Y-91107735D01*
X109296828Y-90970938D01*
X109470938Y-90796828D01*
X109607735Y-90592097D01*
X109701963Y-90364611D01*
X109750000Y-90123114D01*
X109750000Y-89876886D01*
X118750000Y-89876886D01*
X118750000Y-90123114D01*
X118798037Y-90364611D01*
X118892265Y-90592097D01*
X119029062Y-90796828D01*
X119203172Y-90970938D01*
X119407903Y-91107735D01*
X119635389Y-91201963D01*
X119876886Y-91250000D01*
X120123114Y-91250000D01*
X120364611Y-91201963D01*
X120592097Y-91107735D01*
X120796828Y-90970938D01*
X120970938Y-90796828D01*
X121107735Y-90592097D01*
X121201963Y-90364611D01*
X121250000Y-90123114D01*
X121250000Y-89876886D01*
X123750000Y-89876886D01*
X123750000Y-90123114D01*
X123798037Y-90364611D01*
X123892265Y-90592097D01*
X124029062Y-90796828D01*
X124203172Y-90970938D01*
X124407903Y-91107735D01*
X124635389Y-91201963D01*
X124876886Y-91250000D01*
X125123114Y-91250000D01*
X125364611Y-91201963D01*
X125592097Y-91107735D01*
X125796828Y-90970938D01*
X125970938Y-90796828D01*
X126107735Y-90592097D01*
X126201963Y-90364611D01*
X126250000Y-90123114D01*
X126250000Y-89876886D01*
X126209088Y-89671207D01*
X127450000Y-89671207D01*
X127450000Y-89828793D01*
X127480743Y-89983351D01*
X127541049Y-90128942D01*
X127628599Y-90259970D01*
X127740030Y-90371401D01*
X127871058Y-90458951D01*
X128016649Y-90519257D01*
X128171207Y-90550000D01*
X128328793Y-90550000D01*
X128483351Y-90519257D01*
X128628942Y-90458951D01*
X128642338Y-90450000D01*
X132507662Y-90450000D01*
X132521058Y-90458951D01*
X132666649Y-90519257D01*
X132821207Y-90550000D01*
X132978793Y-90550000D01*
X133133351Y-90519257D01*
X133278942Y-90458951D01*
X133409970Y-90371401D01*
X133521401Y-90259970D01*
X133608951Y-90128942D01*
X133669257Y-89983351D01*
X133700000Y-89828793D01*
X133700000Y-89671207D01*
X133669257Y-89516649D01*
X133611366Y-89376886D01*
X156500000Y-89376886D01*
X156500000Y-89623114D01*
X156548037Y-89864611D01*
X156642265Y-90092097D01*
X156779062Y-90296828D01*
X156953172Y-90470938D01*
X157157903Y-90607735D01*
X157385389Y-90701963D01*
X157626886Y-90750000D01*
X157873114Y-90750000D01*
X158114611Y-90701963D01*
X158342097Y-90607735D01*
X158546828Y-90470938D01*
X158720938Y-90296828D01*
X158857735Y-90092097D01*
X158951963Y-89864611D01*
X159000000Y-89623114D01*
X159000000Y-89376886D01*
X176500000Y-89376886D01*
X176500000Y-89623114D01*
X176548037Y-89864611D01*
X176642265Y-90092097D01*
X176779062Y-90296828D01*
X176953172Y-90470938D01*
X177157903Y-90607735D01*
X177385389Y-90701963D01*
X177626886Y-90750000D01*
X177873114Y-90750000D01*
X178114611Y-90701963D01*
X178342097Y-90607735D01*
X178546828Y-90470938D01*
X178720938Y-90296828D01*
X178857735Y-90092097D01*
X178951963Y-89864611D01*
X179000000Y-89623114D01*
X179000000Y-89376886D01*
X178951963Y-89135389D01*
X178857735Y-88907903D01*
X178720938Y-88703172D01*
X178546828Y-88529062D01*
X178342097Y-88392265D01*
X178114611Y-88298037D01*
X177873114Y-88250000D01*
X177626886Y-88250000D01*
X177385389Y-88298037D01*
X177157903Y-88392265D01*
X176953172Y-88529062D01*
X176779062Y-88703172D01*
X176642265Y-88907903D01*
X176548037Y-89135389D01*
X176500000Y-89376886D01*
X159000000Y-89376886D01*
X158951963Y-89135389D01*
X158857735Y-88907903D01*
X158720938Y-88703172D01*
X158546828Y-88529062D01*
X158342097Y-88392265D01*
X158114611Y-88298037D01*
X157873114Y-88250000D01*
X157626886Y-88250000D01*
X157385389Y-88298037D01*
X157157903Y-88392265D01*
X156953172Y-88529062D01*
X156779062Y-88703172D01*
X156642265Y-88907903D01*
X156548037Y-89135389D01*
X156500000Y-89376886D01*
X133611366Y-89376886D01*
X133608951Y-89371058D01*
X133521401Y-89240030D01*
X133409970Y-89128599D01*
X133278942Y-89041049D01*
X133133351Y-88980743D01*
X132978793Y-88950000D01*
X132821207Y-88950000D01*
X132666649Y-88980743D01*
X132521058Y-89041049D01*
X132507662Y-89050000D01*
X128642338Y-89050000D01*
X128628942Y-89041049D01*
X128483351Y-88980743D01*
X128328793Y-88950000D01*
X128171207Y-88950000D01*
X128016649Y-88980743D01*
X127871058Y-89041049D01*
X127740030Y-89128599D01*
X127628599Y-89240030D01*
X127541049Y-89371058D01*
X127480743Y-89516649D01*
X127450000Y-89671207D01*
X126209088Y-89671207D01*
X126201963Y-89635389D01*
X126107735Y-89407903D01*
X125970938Y-89203172D01*
X125796828Y-89029062D01*
X125592097Y-88892265D01*
X125364611Y-88798037D01*
X125123114Y-88750000D01*
X124876886Y-88750000D01*
X124635389Y-88798037D01*
X124407903Y-88892265D01*
X124203172Y-89029062D01*
X124029062Y-89203172D01*
X123892265Y-89407903D01*
X123798037Y-89635389D01*
X123750000Y-89876886D01*
X121250000Y-89876886D01*
X121201963Y-89635389D01*
X121107735Y-89407903D01*
X120970938Y-89203172D01*
X120796828Y-89029062D01*
X120592097Y-88892265D01*
X120364611Y-88798037D01*
X120123114Y-88750000D01*
X119876886Y-88750000D01*
X119635389Y-88798037D01*
X119407903Y-88892265D01*
X119203172Y-89029062D01*
X119029062Y-89203172D01*
X118892265Y-89407903D01*
X118798037Y-89635389D01*
X118750000Y-89876886D01*
X109750000Y-89876886D01*
X109701963Y-89635389D01*
X109607735Y-89407903D01*
X109470938Y-89203172D01*
X109296828Y-89029062D01*
X109092097Y-88892265D01*
X108864611Y-88798037D01*
X108623114Y-88750000D01*
X108376886Y-88750000D01*
X108135389Y-88798037D01*
X107907903Y-88892265D01*
X107703172Y-89029062D01*
X107529062Y-89203172D01*
X107392265Y-89407903D01*
X107298037Y-89635389D01*
X107250000Y-89876886D01*
X104750000Y-89876886D01*
X104701963Y-89635389D01*
X104607735Y-89407903D01*
X104470938Y-89203172D01*
X104296828Y-89029062D01*
X104092097Y-88892265D01*
X103864611Y-88798037D01*
X103623114Y-88750000D01*
X103376886Y-88750000D01*
X103135389Y-88798037D01*
X102907903Y-88892265D01*
X102703172Y-89029062D01*
X102529062Y-89203172D01*
X102392265Y-89407903D01*
X102298037Y-89635389D01*
X102250000Y-89876886D01*
X94500000Y-89876886D01*
X94451963Y-89635389D01*
X94357735Y-89407903D01*
X94220938Y-89203172D01*
X94046828Y-89029062D01*
X93842097Y-88892265D01*
X93614611Y-88798037D01*
X93373114Y-88750000D01*
X93126886Y-88750000D01*
X92885389Y-88798037D01*
X92657903Y-88892265D01*
X92453172Y-89029062D01*
X92279062Y-89203172D01*
X92142265Y-89407903D01*
X92048037Y-89635389D01*
X92000000Y-89876886D01*
X89500000Y-89876886D01*
X89451963Y-89635389D01*
X89357735Y-89407903D01*
X89220938Y-89203172D01*
X89046828Y-89029062D01*
X88842097Y-88892265D01*
X88614611Y-88798037D01*
X88373114Y-88750000D01*
X88126886Y-88750000D01*
X87885389Y-88798037D01*
X87657903Y-88892265D01*
X87453172Y-89029062D01*
X87279062Y-89203172D01*
X87142265Y-89407903D01*
X87048037Y-89635389D01*
X87000000Y-89876886D01*
X74865701Y-89876886D01*
X74867757Y-89873041D01*
X74893489Y-89788215D01*
X74902177Y-89700000D01*
X74902177Y-87357187D01*
X137550000Y-87357187D01*
X137550000Y-87642813D01*
X137605723Y-87922949D01*
X137715027Y-88186833D01*
X137873711Y-88424321D01*
X138075679Y-88626289D01*
X138313167Y-88784973D01*
X138577051Y-88894277D01*
X138857187Y-88950000D01*
X139142813Y-88950000D01*
X139422949Y-88894277D01*
X139686833Y-88784973D01*
X139924321Y-88626289D01*
X140031816Y-88518794D01*
X141622628Y-88518794D01*
X141726509Y-88734750D01*
X141982259Y-88861925D01*
X142257906Y-88936762D01*
X142542856Y-88956386D01*
X142826159Y-88920042D01*
X143096928Y-88829125D01*
X143273491Y-88734750D01*
X143377372Y-88518794D01*
X142500000Y-87641421D01*
X141622628Y-88518794D01*
X140031816Y-88518794D01*
X140126289Y-88424321D01*
X140284973Y-88186833D01*
X140394277Y-87922949D01*
X140450000Y-87642813D01*
X140450000Y-87542856D01*
X141043614Y-87542856D01*
X141079958Y-87826159D01*
X141170875Y-88096928D01*
X141265250Y-88273491D01*
X141481206Y-88377372D01*
X142358579Y-87500000D01*
X142641421Y-87500000D01*
X143518794Y-88377372D01*
X143734750Y-88273491D01*
X143861925Y-88017741D01*
X143936762Y-87742094D01*
X143956386Y-87457144D01*
X143943563Y-87357187D01*
X144550000Y-87357187D01*
X144550000Y-87642813D01*
X144605723Y-87922949D01*
X144715027Y-88186833D01*
X144873711Y-88424321D01*
X145075679Y-88626289D01*
X145313167Y-88784973D01*
X145577051Y-88894277D01*
X145857187Y-88950000D01*
X146142813Y-88950000D01*
X146422949Y-88894277D01*
X146686833Y-88784973D01*
X146924321Y-88626289D01*
X147126289Y-88424321D01*
X147284973Y-88186833D01*
X147394277Y-87922949D01*
X147450000Y-87642813D01*
X147450000Y-87357187D01*
X147394277Y-87077051D01*
X147284973Y-86813167D01*
X147126289Y-86575679D01*
X146924321Y-86373711D01*
X146686833Y-86215027D01*
X146422949Y-86105723D01*
X146142813Y-86050000D01*
X145857187Y-86050000D01*
X145577051Y-86105723D01*
X145313167Y-86215027D01*
X145075679Y-86373711D01*
X144873711Y-86575679D01*
X144715027Y-86813167D01*
X144605723Y-87077051D01*
X144550000Y-87357187D01*
X143943563Y-87357187D01*
X143920042Y-87173841D01*
X143829125Y-86903072D01*
X143734750Y-86726509D01*
X143518794Y-86622628D01*
X142641421Y-87500000D01*
X142358579Y-87500000D01*
X141481206Y-86622628D01*
X141265250Y-86726509D01*
X141138075Y-86982259D01*
X141063238Y-87257906D01*
X141043614Y-87542856D01*
X140450000Y-87542856D01*
X140450000Y-87357187D01*
X140394277Y-87077051D01*
X140284973Y-86813167D01*
X140126289Y-86575679D01*
X140031816Y-86481206D01*
X141622628Y-86481206D01*
X142500000Y-87358579D01*
X143377372Y-86481206D01*
X143273491Y-86265250D01*
X143017741Y-86138075D01*
X142742094Y-86063238D01*
X142457144Y-86043614D01*
X142173841Y-86079958D01*
X141903072Y-86170875D01*
X141726509Y-86265250D01*
X141622628Y-86481206D01*
X140031816Y-86481206D01*
X139924321Y-86373711D01*
X139686833Y-86215027D01*
X139422949Y-86105723D01*
X139142813Y-86050000D01*
X138857187Y-86050000D01*
X138577051Y-86105723D01*
X138313167Y-86215027D01*
X138075679Y-86373711D01*
X137873711Y-86575679D01*
X137715027Y-86813167D01*
X137605723Y-87077051D01*
X137550000Y-87357187D01*
X74902177Y-87357187D01*
X74902177Y-87300000D01*
X74893489Y-87211785D01*
X74867757Y-87126959D01*
X74825971Y-87048784D01*
X74769737Y-86980263D01*
X74701216Y-86924029D01*
X74623041Y-86882243D01*
X74538215Y-86856511D01*
X74450000Y-86847823D01*
X72050000Y-86847823D01*
X71961785Y-86856511D01*
X71876959Y-86882243D01*
X71798784Y-86924029D01*
X71730263Y-86980263D01*
X71674029Y-87048784D01*
X71632243Y-87126959D01*
X71606511Y-87211785D01*
X71597823Y-87300000D01*
X66748846Y-87300000D01*
X66641862Y-87102326D01*
X66352053Y-86955188D01*
X66039108Y-86867416D01*
X65715051Y-86842384D01*
X65392338Y-86881053D01*
X65083369Y-86981937D01*
X64858138Y-87102326D01*
X64730179Y-87338757D01*
X57975000Y-87338757D01*
X57975000Y-82921207D01*
X127450000Y-82921207D01*
X127450000Y-83078793D01*
X127480743Y-83233351D01*
X127541049Y-83378942D01*
X127628599Y-83509970D01*
X127740030Y-83621401D01*
X127871058Y-83708951D01*
X128016649Y-83769257D01*
X128171207Y-83800000D01*
X128328793Y-83800000D01*
X128483351Y-83769257D01*
X128628942Y-83708951D01*
X128642338Y-83700000D01*
X132507662Y-83700000D01*
X132521058Y-83708951D01*
X132666649Y-83769257D01*
X132821207Y-83800000D01*
X132978793Y-83800000D01*
X133133351Y-83769257D01*
X133278942Y-83708951D01*
X133409970Y-83621401D01*
X133521401Y-83509970D01*
X133608951Y-83378942D01*
X133669257Y-83233351D01*
X133700000Y-83078793D01*
X133700000Y-82921207D01*
X133669257Y-82766649D01*
X133608951Y-82621058D01*
X133521401Y-82490030D01*
X133409970Y-82378599D01*
X133278942Y-82291049D01*
X133133351Y-82230743D01*
X132978793Y-82200000D01*
X132821207Y-82200000D01*
X132666649Y-82230743D01*
X132521058Y-82291049D01*
X132507662Y-82300000D01*
X128642338Y-82300000D01*
X128628942Y-82291049D01*
X128483351Y-82230743D01*
X128328793Y-82200000D01*
X128171207Y-82200000D01*
X128016649Y-82230743D01*
X127871058Y-82291049D01*
X127740030Y-82378599D01*
X127628599Y-82490030D01*
X127541049Y-82621058D01*
X127480743Y-82766649D01*
X127450000Y-82921207D01*
X57975000Y-82921207D01*
X57975000Y-78671207D01*
X125750010Y-78671207D01*
X125750010Y-78828793D01*
X125780753Y-78983351D01*
X125841059Y-79128942D01*
X125928609Y-79259970D01*
X126040040Y-79371401D01*
X126171068Y-79458951D01*
X126316659Y-79519257D01*
X126471217Y-79550000D01*
X126628803Y-79550000D01*
X126783361Y-79519257D01*
X126928952Y-79458951D01*
X126942348Y-79450000D01*
X127857662Y-79450000D01*
X127871058Y-79458951D01*
X128016649Y-79519257D01*
X128171207Y-79550000D01*
X128328793Y-79550000D01*
X128483351Y-79519257D01*
X128628942Y-79458951D01*
X128759970Y-79371401D01*
X128871401Y-79259970D01*
X128958951Y-79128942D01*
X129019257Y-78983351D01*
X129050000Y-78828793D01*
X129050000Y-78671207D01*
X129019257Y-78516649D01*
X128958951Y-78371058D01*
X128871401Y-78240030D01*
X128759970Y-78128599D01*
X128628942Y-78041049D01*
X128483351Y-77980743D01*
X128328793Y-77950000D01*
X128171207Y-77950000D01*
X128016649Y-77980743D01*
X127871058Y-78041049D01*
X127857662Y-78050000D01*
X126942348Y-78050000D01*
X126928952Y-78041049D01*
X126783361Y-77980743D01*
X126628803Y-77950000D01*
X126471217Y-77950000D01*
X126316659Y-77980743D01*
X126171068Y-78041049D01*
X126040040Y-78128599D01*
X125928609Y-78240030D01*
X125841059Y-78371058D01*
X125780753Y-78516649D01*
X125750010Y-78671207D01*
X57975000Y-78671207D01*
X57975000Y-77421207D01*
X122900000Y-77421207D01*
X122900000Y-77578793D01*
X122930743Y-77733351D01*
X122991049Y-77878942D01*
X123078599Y-78009970D01*
X123190030Y-78121401D01*
X123321058Y-78208951D01*
X123466649Y-78269257D01*
X123621207Y-78300000D01*
X123778793Y-78300000D01*
X123933351Y-78269257D01*
X124078942Y-78208951D01*
X124092338Y-78200000D01*
X124907662Y-78200000D01*
X124921058Y-78208951D01*
X125066649Y-78269257D01*
X125221207Y-78300000D01*
X125378793Y-78300000D01*
X125533351Y-78269257D01*
X125678942Y-78208951D01*
X125809970Y-78121401D01*
X125921401Y-78009970D01*
X125980710Y-77921207D01*
X159912500Y-77921207D01*
X159912500Y-78078793D01*
X159943243Y-78233351D01*
X160003549Y-78378942D01*
X160091099Y-78509970D01*
X160202530Y-78621401D01*
X160333558Y-78708951D01*
X160479149Y-78769257D01*
X160633707Y-78800000D01*
X160791293Y-78800000D01*
X160945851Y-78769257D01*
X161091442Y-78708951D01*
X161104838Y-78700000D01*
X162520172Y-78700000D01*
X162533568Y-78708951D01*
X162679159Y-78769257D01*
X162833717Y-78800000D01*
X162991303Y-78800000D01*
X163145861Y-78769257D01*
X163291452Y-78708951D01*
X163422480Y-78621401D01*
X163533911Y-78509970D01*
X163621461Y-78378942D01*
X163681767Y-78233351D01*
X163712510Y-78078793D01*
X163712510Y-77921207D01*
X163681767Y-77766649D01*
X163621461Y-77621058D01*
X163533911Y-77490030D01*
X163422480Y-77378599D01*
X163291452Y-77291049D01*
X163145861Y-77230743D01*
X162991303Y-77200000D01*
X162833717Y-77200000D01*
X162679159Y-77230743D01*
X162533568Y-77291049D01*
X162520172Y-77300000D01*
X161104838Y-77300000D01*
X161091442Y-77291049D01*
X160945851Y-77230743D01*
X160791293Y-77200000D01*
X160633707Y-77200000D01*
X160479149Y-77230743D01*
X160333558Y-77291049D01*
X160202530Y-77378599D01*
X160091099Y-77490030D01*
X160003549Y-77621058D01*
X159943243Y-77766649D01*
X159912500Y-77921207D01*
X125980710Y-77921207D01*
X126008951Y-77878942D01*
X126069257Y-77733351D01*
X126100000Y-77578793D01*
X126100000Y-77421207D01*
X126069257Y-77266649D01*
X126008951Y-77121058D01*
X125921401Y-76990030D01*
X125809970Y-76878599D01*
X125678942Y-76791049D01*
X125533351Y-76730743D01*
X125378793Y-76700000D01*
X125221207Y-76700000D01*
X125066649Y-76730743D01*
X124921058Y-76791049D01*
X124907662Y-76800000D01*
X124092338Y-76800000D01*
X124078942Y-76791049D01*
X123933351Y-76730743D01*
X123778793Y-76700000D01*
X123621207Y-76700000D01*
X123466649Y-76730743D01*
X123321058Y-76791049D01*
X123190030Y-76878599D01*
X123078599Y-76990030D01*
X122991049Y-77121058D01*
X122930743Y-77266649D01*
X122900000Y-77421207D01*
X57975000Y-77421207D01*
X57975000Y-71337489D01*
X64100000Y-71337489D01*
X64100000Y-71662511D01*
X64163408Y-71981287D01*
X64287789Y-72281568D01*
X64468361Y-72551814D01*
X64698186Y-72781639D01*
X64968432Y-72962211D01*
X65268713Y-73086592D01*
X65587489Y-73150000D01*
X65912511Y-73150000D01*
X66231287Y-73086592D01*
X66531568Y-72962211D01*
X66801814Y-72781639D01*
X66883453Y-72700000D01*
X71597823Y-72700000D01*
X71606511Y-72788215D01*
X71632243Y-72873041D01*
X71674029Y-72951216D01*
X71730263Y-73019737D01*
X71798784Y-73075971D01*
X71876959Y-73117757D01*
X71961785Y-73143489D01*
X72050000Y-73152177D01*
X73037500Y-73150000D01*
X73150000Y-73037500D01*
X73150000Y-71600000D01*
X73350000Y-71600000D01*
X73350000Y-73037500D01*
X73462500Y-73150000D01*
X74450000Y-73152177D01*
X74538215Y-73143489D01*
X74623041Y-73117757D01*
X74701216Y-73075971D01*
X74769737Y-73019737D01*
X74825971Y-72951216D01*
X74867757Y-72873041D01*
X74893489Y-72788215D01*
X74902177Y-72700000D01*
X74900000Y-71712500D01*
X74787500Y-71600000D01*
X73350000Y-71600000D01*
X73150000Y-71600000D01*
X71712500Y-71600000D01*
X71600000Y-71712500D01*
X71597823Y-72700000D01*
X66883453Y-72700000D01*
X67031639Y-72551814D01*
X67212211Y-72281568D01*
X67336592Y-71981287D01*
X67400000Y-71662511D01*
X67400000Y-71337489D01*
X67336592Y-71018713D01*
X67212211Y-70718432D01*
X67031639Y-70448186D01*
X66883453Y-70300000D01*
X71597823Y-70300000D01*
X71600000Y-71287500D01*
X71712500Y-71400000D01*
X73150000Y-71400000D01*
X73150000Y-69962500D01*
X73350000Y-69962500D01*
X73350000Y-71400000D01*
X74787500Y-71400000D01*
X74900000Y-71287500D01*
X74902177Y-70300000D01*
X74893489Y-70211785D01*
X74867757Y-70126959D01*
X74825971Y-70048784D01*
X74769737Y-69980263D01*
X74701216Y-69924029D01*
X74623041Y-69882243D01*
X74538215Y-69856511D01*
X74450000Y-69847823D01*
X73462500Y-69850000D01*
X73350000Y-69962500D01*
X73150000Y-69962500D01*
X73037500Y-69850000D01*
X72050000Y-69847823D01*
X71961785Y-69856511D01*
X71876959Y-69882243D01*
X71798784Y-69924029D01*
X71730263Y-69980263D01*
X71674029Y-70048784D01*
X71632243Y-70126959D01*
X71606511Y-70211785D01*
X71597823Y-70300000D01*
X66883453Y-70300000D01*
X66801814Y-70218361D01*
X66531568Y-70037789D01*
X66231287Y-69913408D01*
X65912511Y-69850000D01*
X65587489Y-69850000D01*
X65268713Y-69913408D01*
X64968432Y-70037789D01*
X64698186Y-70218361D01*
X64468361Y-70448186D01*
X64287789Y-70718432D01*
X64163408Y-71018713D01*
X64100000Y-71337489D01*
X57975000Y-71337489D01*
X57975000Y-61300000D01*
X68247823Y-61300000D01*
X68256511Y-61388215D01*
X68282243Y-61473041D01*
X68324029Y-61551216D01*
X68380263Y-61619737D01*
X68448784Y-61675971D01*
X68526959Y-61717757D01*
X68611785Y-61743489D01*
X68700000Y-61752177D01*
X69287500Y-61750000D01*
X69400000Y-61637500D01*
X69400000Y-60600000D01*
X69600000Y-60600000D01*
X69600000Y-61637500D01*
X69712500Y-61750000D01*
X70300000Y-61752177D01*
X70388215Y-61743489D01*
X70473041Y-61717757D01*
X70551216Y-61675971D01*
X70619737Y-61619737D01*
X70675971Y-61551216D01*
X70717757Y-61473041D01*
X70743489Y-61388215D01*
X70752177Y-61300000D01*
X70750000Y-60712500D01*
X70637500Y-60600000D01*
X69600000Y-60600000D01*
X69400000Y-60600000D01*
X68362500Y-60600000D01*
X68250000Y-60712500D01*
X68247823Y-61300000D01*
X57975000Y-61300000D01*
X57975000Y-60400000D01*
X64500000Y-60400000D01*
X64529264Y-60397118D01*
X64557403Y-60388582D01*
X64583336Y-60374720D01*
X64606066Y-60356066D01*
X65262132Y-59700000D01*
X68247823Y-59700000D01*
X68250000Y-60287500D01*
X68362500Y-60400000D01*
X69400000Y-60400000D01*
X69400000Y-59362500D01*
X69600000Y-59362500D01*
X69600000Y-60400000D01*
X70637500Y-60400000D01*
X70750000Y-60287500D01*
X70752177Y-59700000D01*
X70743489Y-59611785D01*
X70717757Y-59526959D01*
X70675971Y-59448784D01*
X70619737Y-59380263D01*
X70551216Y-59324029D01*
X70473041Y-59282243D01*
X70388215Y-59256511D01*
X70300000Y-59247823D01*
X69712500Y-59250000D01*
X69600000Y-59362500D01*
X69400000Y-59362500D01*
X69287500Y-59250000D01*
X68700000Y-59247823D01*
X68611785Y-59256511D01*
X68526959Y-59282243D01*
X68448784Y-59324029D01*
X68380263Y-59380263D01*
X68324029Y-59448784D01*
X68282243Y-59526959D01*
X68256511Y-59611785D01*
X68247823Y-59700000D01*
X65262132Y-59700000D01*
X65356066Y-59606066D01*
X65374720Y-59583336D01*
X65388582Y-59557403D01*
X65397118Y-59529264D01*
X65400000Y-59500000D01*
X65400000Y-50475000D01*
X73146350Y-50475000D01*
X73125839Y-50499993D01*
G37*
X73125839Y-50499993D02*
X73084254Y-50577792D01*
X73058647Y-50662209D01*
X73050000Y-50750000D01*
X73050000Y-54250000D01*
X73058647Y-54337791D01*
X73084254Y-54422208D01*
X73125839Y-54500007D01*
X73181802Y-54568198D01*
X73263604Y-54650000D01*
X70979474Y-54650000D01*
X70950000Y-54647097D01*
X70920526Y-54650000D01*
X70832379Y-54658682D01*
X70719279Y-54692990D01*
X70615045Y-54748704D01*
X70523683Y-54823683D01*
X70504894Y-54846578D01*
X69855290Y-55496183D01*
X69623114Y-55450000D01*
X69376886Y-55450000D01*
X69135389Y-55498037D01*
X68907903Y-55592265D01*
X68703172Y-55729062D01*
X68529062Y-55903172D01*
X68392265Y-56107903D01*
X68298037Y-56335389D01*
X68250000Y-56576886D01*
X68250000Y-56823114D01*
X68298037Y-57064611D01*
X68392265Y-57292097D01*
X68529062Y-57496828D01*
X68703172Y-57670938D01*
X68907903Y-57807735D01*
X69135389Y-57901963D01*
X69376886Y-57950000D01*
X69623114Y-57950000D01*
X69864611Y-57901963D01*
X70092097Y-57807735D01*
X70296828Y-57670938D01*
X70470938Y-57496828D01*
X70607735Y-57292097D01*
X70701963Y-57064611D01*
X70750000Y-56823114D01*
X70750000Y-56576886D01*
X70703817Y-56344710D01*
X71198528Y-55850000D01*
X86263604Y-55850000D01*
X76181802Y-65931802D01*
X76125839Y-65999993D01*
X76084254Y-66077792D01*
X76058647Y-66162209D01*
X76050000Y-66250000D01*
X76050000Y-68250000D01*
X76058647Y-68337791D01*
X76084254Y-68422208D01*
X76125839Y-68500007D01*
X76181802Y-68568198D01*
X76249993Y-68624161D01*
X76327792Y-68665746D01*
X76412209Y-68691353D01*
X76500000Y-68700000D01*
X89250000Y-68700000D01*
X89337791Y-68691353D01*
X89422208Y-68665746D01*
X89500007Y-68624161D01*
X89568198Y-68568198D01*
X94186396Y-63950000D01*
X135500000Y-63950000D01*
X135587791Y-63941353D01*
X135672208Y-63915746D01*
X135750007Y-63874161D01*
X135818198Y-63818198D01*
X136780753Y-62855643D01*
X172515564Y-62855643D01*
X172515564Y-63013229D01*
X172546307Y-63167787D01*
X172606613Y-63313378D01*
X172694163Y-63444406D01*
X172805594Y-63555837D01*
X172936622Y-63643387D01*
X173082213Y-63703693D01*
X173236771Y-63734436D01*
X173394357Y-63734436D01*
X173548915Y-63703693D01*
X173694506Y-63643387D01*
X173825534Y-63555837D01*
X173936965Y-63444406D01*
X174024515Y-63313378D01*
X174084821Y-63167787D01*
X174087964Y-63151985D01*
X174664486Y-62575464D01*
X174680287Y-62572321D01*
X174825878Y-62512015D01*
X174956906Y-62424465D01*
X175068337Y-62313034D01*
X175155887Y-62182006D01*
X175216193Y-62036415D01*
X175246936Y-61881857D01*
X175246936Y-61724271D01*
X175216193Y-61569713D01*
X175155887Y-61424122D01*
X175068337Y-61293094D01*
X174956906Y-61181663D01*
X174825878Y-61094113D01*
X174680287Y-61033807D01*
X174525729Y-61003064D01*
X174368143Y-61003064D01*
X174213585Y-61033807D01*
X174067994Y-61094113D01*
X173936966Y-61181663D01*
X173825535Y-61293094D01*
X173737985Y-61424122D01*
X173677679Y-61569713D01*
X173674536Y-61585514D01*
X173098015Y-62162036D01*
X173082213Y-62165179D01*
X172936622Y-62225485D01*
X172805594Y-62313035D01*
X172694163Y-62424466D01*
X172606613Y-62555494D01*
X172546307Y-62701085D01*
X172515564Y-62855643D01*
X136780753Y-62855643D01*
X136818198Y-62818198D01*
X136874161Y-62750007D01*
X136915746Y-62672208D01*
X136941353Y-62587791D01*
X136950000Y-62500000D01*
X136950000Y-59868110D01*
X137140205Y-59978470D01*
X137390624Y-60064076D01*
X137600000Y-59983795D01*
X137600000Y-58850000D01*
X137800000Y-58850000D01*
X137800000Y-59983795D01*
X138009376Y-60064076D01*
X138259795Y-59978470D01*
X138488701Y-59845655D01*
X138687298Y-59670734D01*
X138847954Y-59460430D01*
X138964494Y-59222825D01*
X139014072Y-59059375D01*
X138933453Y-58850000D01*
X137800000Y-58850000D01*
X137600000Y-58850000D01*
X137580000Y-58850000D01*
X137580000Y-58650000D01*
X137600000Y-58650000D01*
X137600000Y-57516205D01*
X137800000Y-57516205D01*
X137800000Y-58650000D01*
X138933453Y-58650000D01*
X138946145Y-58617037D01*
X139750000Y-58617037D01*
X139750000Y-58882963D01*
X139801880Y-59143780D01*
X139903646Y-59389465D01*
X140051387Y-59610575D01*
X140239425Y-59798613D01*
X140460535Y-59946354D01*
X140706220Y-60048120D01*
X140967037Y-60100000D01*
X141232963Y-60100000D01*
X141493780Y-60048120D01*
X141739465Y-59946354D01*
X141960575Y-59798613D01*
X142148613Y-59610575D01*
X142296354Y-59389465D01*
X142398120Y-59143780D01*
X142450000Y-58882963D01*
X142450000Y-58617037D01*
X143150000Y-58617037D01*
X143150000Y-58882963D01*
X143201880Y-59143780D01*
X143303646Y-59389465D01*
X143451387Y-59610575D01*
X143639425Y-59798613D01*
X143860535Y-59946354D01*
X144106220Y-60048120D01*
X144367037Y-60100000D01*
X144632963Y-60100000D01*
X144893780Y-60048120D01*
X145139465Y-59946354D01*
X145360575Y-59798613D01*
X145548613Y-59610575D01*
X145696354Y-59389465D01*
X145798120Y-59143780D01*
X145850000Y-58882963D01*
X145850000Y-58617037D01*
X145798120Y-58356220D01*
X145696354Y-58110535D01*
X145548613Y-57889425D01*
X145360575Y-57701387D01*
X145139465Y-57553646D01*
X144893780Y-57451880D01*
X144632963Y-57400000D01*
X144367037Y-57400000D01*
X144106220Y-57451880D01*
X143860535Y-57553646D01*
X143639425Y-57701387D01*
X143451387Y-57889425D01*
X143303646Y-58110535D01*
X143201880Y-58356220D01*
X143150000Y-58617037D01*
X142450000Y-58617037D01*
X142398120Y-58356220D01*
X142296354Y-58110535D01*
X142148613Y-57889425D01*
X141960575Y-57701387D01*
X141739465Y-57553646D01*
X141493780Y-57451880D01*
X141232963Y-57400000D01*
X140967037Y-57400000D01*
X140706220Y-57451880D01*
X140460535Y-57553646D01*
X140239425Y-57701387D01*
X140051387Y-57889425D01*
X139903646Y-58110535D01*
X139801880Y-58356220D01*
X139750000Y-58617037D01*
X138946145Y-58617037D01*
X139014072Y-58440625D01*
X138964494Y-58277175D01*
X138847954Y-58039570D01*
X138687298Y-57829266D01*
X138488701Y-57654345D01*
X138259795Y-57521530D01*
X138009376Y-57435924D01*
X137800000Y-57516205D01*
X137600000Y-57516205D01*
X137390624Y-57435924D01*
X137140205Y-57521530D01*
X136950000Y-57631890D01*
X136950000Y-56500000D01*
X136941353Y-56412209D01*
X136915746Y-56327792D01*
X136874161Y-56249993D01*
X136818198Y-56181802D01*
X136486396Y-55850000D01*
X137790526Y-55850000D01*
X137820000Y-55852903D01*
X137849474Y-55850000D01*
X137937621Y-55841318D01*
X138050721Y-55807010D01*
X138154955Y-55751296D01*
X138246317Y-55676317D01*
X138265113Y-55653414D01*
X138966755Y-54951773D01*
X139006220Y-54968120D01*
X139267037Y-55020000D01*
X139532963Y-55020000D01*
X139793780Y-54968120D01*
X140039465Y-54866354D01*
X140260575Y-54718613D01*
X140448613Y-54530575D01*
X140596354Y-54309465D01*
X140698120Y-54063780D01*
X140750000Y-53802963D01*
X140750000Y-53537037D01*
X141450000Y-53537037D01*
X141450000Y-53802963D01*
X141501880Y-54063780D01*
X141603646Y-54309465D01*
X141751387Y-54530575D01*
X141939425Y-54718613D01*
X142160535Y-54866354D01*
X142406220Y-54968120D01*
X142667037Y-55020000D01*
X142932963Y-55020000D01*
X143193780Y-54968120D01*
X143439465Y-54866354D01*
X143660575Y-54718613D01*
X143848613Y-54530575D01*
X143996354Y-54309465D01*
X144098120Y-54063780D01*
X144150000Y-53802963D01*
X144150000Y-53537037D01*
X144098120Y-53276220D01*
X143996354Y-53030535D01*
X143848613Y-52809425D01*
X143660575Y-52621387D01*
X143439465Y-52473646D01*
X143193780Y-52371880D01*
X142932963Y-52320000D01*
X142667037Y-52320000D01*
X142406220Y-52371880D01*
X142160535Y-52473646D01*
X141939425Y-52621387D01*
X141751387Y-52809425D01*
X141603646Y-53030535D01*
X141501880Y-53276220D01*
X141450000Y-53537037D01*
X140750000Y-53537037D01*
X140698120Y-53276220D01*
X140596354Y-53030535D01*
X140448613Y-52809425D01*
X140260575Y-52621387D01*
X140039465Y-52473646D01*
X139793780Y-52371880D01*
X139532963Y-52320000D01*
X139267037Y-52320000D01*
X139006220Y-52371880D01*
X138760535Y-52473646D01*
X138539425Y-52621387D01*
X138351387Y-52809425D01*
X138203646Y-53030535D01*
X138101880Y-53276220D01*
X138050000Y-53537037D01*
X138050000Y-53802963D01*
X138101880Y-54063780D01*
X138118227Y-54103245D01*
X137571473Y-54650000D01*
X136929188Y-54650000D01*
X137048613Y-54530575D01*
X137196354Y-54309465D01*
X137298120Y-54063780D01*
X137350000Y-53802963D01*
X137350000Y-53537037D01*
X137298120Y-53276220D01*
X137196354Y-53030535D01*
X137048613Y-52809425D01*
X136860575Y-52621387D01*
X136639465Y-52473646D01*
X136393780Y-52371880D01*
X136132963Y-52320000D01*
X135867037Y-52320000D01*
X135606220Y-52371880D01*
X135360535Y-52473646D01*
X135139425Y-52621387D01*
X134951387Y-52809425D01*
X134803646Y-53030535D01*
X134701880Y-53276220D01*
X134700000Y-53285671D01*
X134700000Y-50750000D01*
X134691353Y-50662209D01*
X134665746Y-50577792D01*
X134624161Y-50499993D01*
X134603650Y-50475000D01*
X174600000Y-50475000D01*
X174600000Y-59250000D01*
X174602882Y-59279264D01*
X174611418Y-59307403D01*
X174625280Y-59333336D01*
X174643934Y-59356066D01*
X175643934Y-60356066D01*
X175666664Y-60374720D01*
X175692597Y-60388582D01*
X175720736Y-60397118D01*
X175750000Y-60400000D01*
X182025001Y-60400000D01*
X182025000Y-104618640D01*
X181984588Y-104521077D01*
X181585140Y-103923260D01*
X181076740Y-103414860D01*
X180478923Y-103015412D01*
X179814666Y-102740267D01*
X179109494Y-102600000D01*
X178390506Y-102600000D01*
X177685334Y-102740267D01*
X177021077Y-103015412D01*
X176423260Y-103414860D01*
X175914860Y-103923260D01*
X175515412Y-104521077D01*
X175240267Y-105185334D01*
X175100000Y-105890506D01*
X175100000Y-106609494D01*
X175240267Y-107314666D01*
X175515412Y-107978923D01*
X175914860Y-108576740D01*
X176423260Y-109085140D01*
X177021077Y-109484588D01*
X177118640Y-109525000D01*
X62881360Y-109525000D01*
X62978923Y-109484588D01*
X63576740Y-109085140D01*
X64085140Y-108576740D01*
X64484588Y-107978923D01*
X64759733Y-107314666D01*
X64900000Y-106609494D01*
X64900000Y-105890506D01*
X64759733Y-105185334D01*
X64617691Y-104842414D01*
X67150000Y-104842414D01*
X67150000Y-105157586D01*
X67211487Y-105466703D01*
X67332098Y-105757884D01*
X67507199Y-106019941D01*
X67730059Y-106242801D01*
X67992116Y-106417902D01*
X68283297Y-106538513D01*
X68592414Y-106600000D01*
X68907586Y-106600000D01*
X69216703Y-106538513D01*
X69507884Y-106417902D01*
X69769941Y-106242801D01*
X69887103Y-106125639D01*
X72765782Y-106125639D01*
X72887724Y-106356951D01*
X73169021Y-106499099D01*
X73472644Y-106583638D01*
X73786926Y-106607318D01*
X74099789Y-106569230D01*
X74399209Y-106470837D01*
X74612276Y-106356951D01*
X74734218Y-106125639D01*
X73750000Y-105141421D01*
X72765782Y-106125639D01*
X69887103Y-106125639D01*
X69992801Y-106019941D01*
X70167902Y-105757884D01*
X70288513Y-105466703D01*
X70350000Y-105157586D01*
X70350000Y-105036926D01*
X72142682Y-105036926D01*
X72180770Y-105349789D01*
X72279163Y-105649209D01*
X72393049Y-105862276D01*
X72624361Y-105984218D01*
X73608579Y-105000000D01*
X73891421Y-105000000D01*
X74875639Y-105984218D01*
X75106951Y-105862276D01*
X75249099Y-105580979D01*
X75333638Y-105277356D01*
X75357318Y-104963074D01*
X75342629Y-104842414D01*
X77150000Y-104842414D01*
X77150000Y-105157586D01*
X77211487Y-105466703D01*
X77332098Y-105757884D01*
X77507199Y-106019941D01*
X77730059Y-106242801D01*
X77992116Y-106417902D01*
X78283297Y-106538513D01*
X78592414Y-106600000D01*
X78907586Y-106600000D01*
X79216703Y-106538513D01*
X79507884Y-106417902D01*
X79769941Y-106242801D01*
X79887103Y-106125639D01*
X86515782Y-106125639D01*
X86637724Y-106356951D01*
X86919021Y-106499099D01*
X87222644Y-106583638D01*
X87536926Y-106607318D01*
X87849789Y-106569230D01*
X88149209Y-106470837D01*
X88362276Y-106356951D01*
X88484218Y-106125639D01*
X87500000Y-105141421D01*
X86515782Y-106125639D01*
X79887103Y-106125639D01*
X79992801Y-106019941D01*
X80167902Y-105757884D01*
X80288513Y-105466703D01*
X80350000Y-105157586D01*
X80350000Y-105036926D01*
X85892682Y-105036926D01*
X85930770Y-105349789D01*
X86029163Y-105649209D01*
X86143049Y-105862276D01*
X86374361Y-105984218D01*
X87358579Y-105000000D01*
X87641421Y-105000000D01*
X88625639Y-105984218D01*
X88856951Y-105862276D01*
X88999099Y-105580979D01*
X89083638Y-105277356D01*
X89107318Y-104963074D01*
X89092629Y-104842414D01*
X90900000Y-104842414D01*
X90900000Y-105157586D01*
X90961487Y-105466703D01*
X91082098Y-105757884D01*
X91257199Y-106019941D01*
X91480059Y-106242801D01*
X91742116Y-106417902D01*
X92033297Y-106538513D01*
X92342414Y-106600000D01*
X92657586Y-106600000D01*
X92966703Y-106538513D01*
X93257884Y-106417902D01*
X93519941Y-106242801D01*
X93742801Y-106019941D01*
X93917902Y-105757884D01*
X94038513Y-105466703D01*
X94100000Y-105157586D01*
X94100000Y-104892565D01*
X104450000Y-104892565D01*
X104450000Y-105227435D01*
X104515330Y-105555872D01*
X104643479Y-105865252D01*
X104829523Y-106143687D01*
X105066313Y-106380477D01*
X105344748Y-106566521D01*
X105654128Y-106694670D01*
X105982565Y-106760000D01*
X106317435Y-106760000D01*
X106645872Y-106694670D01*
X106955252Y-106566521D01*
X107233687Y-106380477D01*
X107470477Y-106143687D01*
X107553927Y-106018794D01*
X163372628Y-106018794D01*
X163476509Y-106234750D01*
X163732259Y-106361925D01*
X164007906Y-106436762D01*
X164292856Y-106456386D01*
X164576159Y-106420042D01*
X164846928Y-106329125D01*
X165023491Y-106234750D01*
X165127372Y-106018794D01*
X164250000Y-105141421D01*
X163372628Y-106018794D01*
X107553927Y-106018794D01*
X107656521Y-105865252D01*
X107784670Y-105555872D01*
X107850000Y-105227435D01*
X107850000Y-105042856D01*
X162793614Y-105042856D01*
X162829958Y-105326159D01*
X162920875Y-105596928D01*
X163015250Y-105773491D01*
X163231206Y-105877372D01*
X164108579Y-105000000D01*
X164391421Y-105000000D01*
X165268794Y-105877372D01*
X165484750Y-105773491D01*
X165611925Y-105517741D01*
X165686762Y-105242094D01*
X165706386Y-104957144D01*
X165693563Y-104857187D01*
X166300000Y-104857187D01*
X166300000Y-105142813D01*
X166355723Y-105422949D01*
X166465027Y-105686833D01*
X166623711Y-105924321D01*
X166825679Y-106126289D01*
X167063167Y-106284973D01*
X167327051Y-106394277D01*
X167607187Y-106450000D01*
X167892813Y-106450000D01*
X168172949Y-106394277D01*
X168436833Y-106284973D01*
X168674321Y-106126289D01*
X168876289Y-105924321D01*
X169034973Y-105686833D01*
X169144277Y-105422949D01*
X169200000Y-105142813D01*
X169200000Y-104857187D01*
X169800000Y-104857187D01*
X169800000Y-105142813D01*
X169855723Y-105422949D01*
X169965027Y-105686833D01*
X170123711Y-105924321D01*
X170325679Y-106126289D01*
X170563167Y-106284973D01*
X170827051Y-106394277D01*
X171107187Y-106450000D01*
X171392813Y-106450000D01*
X171672949Y-106394277D01*
X171936833Y-106284973D01*
X172174321Y-106126289D01*
X172376289Y-105924321D01*
X172534973Y-105686833D01*
X172644277Y-105422949D01*
X172700000Y-105142813D01*
X172700000Y-104857187D01*
X172644277Y-104577051D01*
X172534973Y-104313167D01*
X172376289Y-104075679D01*
X172174321Y-103873711D01*
X171936833Y-103715027D01*
X171672949Y-103605723D01*
X171392813Y-103550000D01*
X171107187Y-103550000D01*
X170827051Y-103605723D01*
X170563167Y-103715027D01*
X170325679Y-103873711D01*
X170123711Y-104075679D01*
X169965027Y-104313167D01*
X169855723Y-104577051D01*
X169800000Y-104857187D01*
X169200000Y-104857187D01*
X169144277Y-104577051D01*
X169034973Y-104313167D01*
X168876289Y-104075679D01*
X168674321Y-103873711D01*
X168436833Y-103715027D01*
X168172949Y-103605723D01*
X167892813Y-103550000D01*
X167607187Y-103550000D01*
X167327051Y-103605723D01*
X167063167Y-103715027D01*
X166825679Y-103873711D01*
X166623711Y-104075679D01*
X166465027Y-104313167D01*
X166355723Y-104577051D01*
X166300000Y-104857187D01*
X165693563Y-104857187D01*
X165670042Y-104673841D01*
X165579125Y-104403072D01*
X165484750Y-104226509D01*
X165268794Y-104122628D01*
X164391421Y-105000000D01*
X164108579Y-105000000D01*
X163231206Y-104122628D01*
X163015250Y-104226509D01*
X162888075Y-104482259D01*
X162813238Y-104757906D01*
X162793614Y-105042856D01*
X107850000Y-105042856D01*
X107850000Y-104892565D01*
X107784670Y-104564128D01*
X107656521Y-104254748D01*
X107473747Y-103981206D01*
X163372628Y-103981206D01*
X164250000Y-104858579D01*
X165127372Y-103981206D01*
X165023491Y-103765250D01*
X164767741Y-103638075D01*
X164492094Y-103563238D01*
X164207144Y-103543614D01*
X163923841Y-103579958D01*
X163653072Y-103670875D01*
X163476509Y-103765250D01*
X163372628Y-103981206D01*
X107473747Y-103981206D01*
X107470477Y-103976313D01*
X107233687Y-103739523D01*
X106955252Y-103553479D01*
X106645872Y-103425330D01*
X106317435Y-103360000D01*
X105982565Y-103360000D01*
X105654128Y-103425330D01*
X105344748Y-103553479D01*
X105066313Y-103739523D01*
X104829523Y-103976313D01*
X104643479Y-104254748D01*
X104515330Y-104564128D01*
X104450000Y-104892565D01*
X94100000Y-104892565D01*
X94100000Y-104842414D01*
X94038513Y-104533297D01*
X93917902Y-104242116D01*
X93742801Y-103980059D01*
X93519941Y-103757199D01*
X93257884Y-103582098D01*
X92966703Y-103461487D01*
X92657586Y-103400000D01*
X92342414Y-103400000D01*
X92033297Y-103461487D01*
X91742116Y-103582098D01*
X91480059Y-103757199D01*
X91257199Y-103980059D01*
X91082098Y-104242116D01*
X90961487Y-104533297D01*
X90900000Y-104842414D01*
X89092629Y-104842414D01*
X89069230Y-104650211D01*
X88970837Y-104350791D01*
X88856951Y-104137724D01*
X88625639Y-104015782D01*
X87641421Y-105000000D01*
X87358579Y-105000000D01*
X86374361Y-104015782D01*
X86143049Y-104137724D01*
X86000901Y-104419021D01*
X85916362Y-104722644D01*
X85892682Y-105036926D01*
X80350000Y-105036926D01*
X80350000Y-104842414D01*
X80288513Y-104533297D01*
X80167902Y-104242116D01*
X79992801Y-103980059D01*
X79887103Y-103874361D01*
X86515782Y-103874361D01*
X87500000Y-104858579D01*
X88484218Y-103874361D01*
X88362276Y-103643049D01*
X88080979Y-103500901D01*
X87777356Y-103416362D01*
X87463074Y-103392682D01*
X87150211Y-103430770D01*
X86850791Y-103529163D01*
X86637724Y-103643049D01*
X86515782Y-103874361D01*
X79887103Y-103874361D01*
X79769941Y-103757199D01*
X79507884Y-103582098D01*
X79216703Y-103461487D01*
X78907586Y-103400000D01*
X78592414Y-103400000D01*
X78283297Y-103461487D01*
X77992116Y-103582098D01*
X77730059Y-103757199D01*
X77507199Y-103980059D01*
X77332098Y-104242116D01*
X77211487Y-104533297D01*
X77150000Y-104842414D01*
X75342629Y-104842414D01*
X75319230Y-104650211D01*
X75220837Y-104350791D01*
X75106951Y-104137724D01*
X74875639Y-104015782D01*
X73891421Y-105000000D01*
X73608579Y-105000000D01*
X72624361Y-104015782D01*
X72393049Y-104137724D01*
X72250901Y-104419021D01*
X72166362Y-104722644D01*
X72142682Y-105036926D01*
X70350000Y-105036926D01*
X70350000Y-104842414D01*
X70288513Y-104533297D01*
X70167902Y-104242116D01*
X69992801Y-103980059D01*
X69887103Y-103874361D01*
X72765782Y-103874361D01*
X73750000Y-104858579D01*
X74734218Y-103874361D01*
X74612276Y-103643049D01*
X74330979Y-103500901D01*
X74027356Y-103416362D01*
X73713074Y-103392682D01*
X73400211Y-103430770D01*
X73100791Y-103529163D01*
X72887724Y-103643049D01*
X72765782Y-103874361D01*
X69887103Y-103874361D01*
X69769941Y-103757199D01*
X69507884Y-103582098D01*
X69216703Y-103461487D01*
X68907586Y-103400000D01*
X68592414Y-103400000D01*
X68283297Y-103461487D01*
X67992116Y-103582098D01*
X67730059Y-103757199D01*
X67507199Y-103980059D01*
X67332098Y-104242116D01*
X67211487Y-104533297D01*
X67150000Y-104842414D01*
X64617691Y-104842414D01*
X64484588Y-104521077D01*
X64085140Y-103923260D01*
X63576740Y-103414860D01*
X62978923Y-103015412D01*
X62314666Y-102740267D01*
X61609494Y-102600000D01*
X60890506Y-102600000D01*
X60185334Y-102740267D01*
X59521077Y-103015412D01*
X58923260Y-103414860D01*
X58414860Y-103923260D01*
X58015412Y-104521077D01*
X57975000Y-104618640D01*
X57975000Y-97272565D01*
X117150000Y-97272565D01*
X117150000Y-97607435D01*
X117215330Y-97935872D01*
X117343479Y-98245252D01*
X117529523Y-98523687D01*
X117766313Y-98760477D01*
X118044748Y-98946521D01*
X118354128Y-99074670D01*
X118682565Y-99140000D01*
X119017435Y-99140000D01*
X119345872Y-99074670D01*
X119655252Y-98946521D01*
X119933687Y-98760477D01*
X120170477Y-98523687D01*
X120356521Y-98245252D01*
X120484670Y-97935872D01*
X120550000Y-97607435D01*
X120550000Y-97272565D01*
X120484670Y-96944128D01*
X120356521Y-96634748D01*
X120170477Y-96356313D01*
X119933687Y-96119523D01*
X119655252Y-95933479D01*
X119345872Y-95805330D01*
X119017435Y-95740000D01*
X118682565Y-95740000D01*
X118354128Y-95805330D01*
X118044748Y-95933479D01*
X117766313Y-96119523D01*
X117529523Y-96356313D01*
X117343479Y-96634748D01*
X117215330Y-96944128D01*
X117150000Y-97272565D01*
X57975000Y-97272565D01*
X57975000Y-94376886D01*
X156500000Y-94376886D01*
X156500000Y-94623114D01*
X156548037Y-94864611D01*
X156642265Y-95092097D01*
X156779062Y-95296828D01*
X156953172Y-95470938D01*
X157157903Y-95607735D01*
X157385389Y-95701963D01*
X157626886Y-95750000D01*
X157873114Y-95750000D01*
X158114611Y-95701963D01*
X158342097Y-95607735D01*
X158546828Y-95470938D01*
X158720938Y-95296828D01*
X158857735Y-95092097D01*
X158951963Y-94864611D01*
X159000000Y-94623114D01*
X159000000Y-94376886D01*
X176500000Y-94376886D01*
X176500000Y-94623114D01*
X176548037Y-94864611D01*
X176642265Y-95092097D01*
X176779062Y-95296828D01*
X176953172Y-95470938D01*
X177157903Y-95607735D01*
X177385389Y-95701963D01*
X177626886Y-95750000D01*
X177873114Y-95750000D01*
X178114611Y-95701963D01*
X178342097Y-95607735D01*
X178546828Y-95470938D01*
X178720938Y-95296828D01*
X178857735Y-95092097D01*
X178951963Y-94864611D01*
X179000000Y-94623114D01*
X179000000Y-94376886D01*
X178951963Y-94135389D01*
X178857735Y-93907903D01*
X178720938Y-93703172D01*
X178546828Y-93529062D01*
X178342097Y-93392265D01*
X178114611Y-93298037D01*
X177873114Y-93250000D01*
X177626886Y-93250000D01*
X177385389Y-93298037D01*
X177157903Y-93392265D01*
X176953172Y-93529062D01*
X176779062Y-93703172D01*
X176642265Y-93907903D01*
X176548037Y-94135389D01*
X176500000Y-94376886D01*
X159000000Y-94376886D01*
X158951963Y-94135389D01*
X158857735Y-93907903D01*
X158720938Y-93703172D01*
X158546828Y-93529062D01*
X158342097Y-93392265D01*
X158114611Y-93298037D01*
X157873114Y-93250000D01*
X157626886Y-93250000D01*
X157385389Y-93298037D01*
X157157903Y-93392265D01*
X156953172Y-93529062D01*
X156779062Y-93703172D01*
X156642265Y-93907903D01*
X156548037Y-94135389D01*
X156500000Y-94376886D01*
X57975000Y-94376886D01*
X57975000Y-89661243D01*
X64730179Y-89661243D01*
X64858138Y-89897674D01*
X65147947Y-90044812D01*
X65460892Y-90132584D01*
X65784949Y-90157616D01*
X66107662Y-90118947D01*
X66416631Y-90018063D01*
X66641862Y-89897674D01*
X66769821Y-89661243D01*
X65750000Y-88641421D01*
X64730179Y-89661243D01*
X57975000Y-89661243D01*
X57975000Y-88534949D01*
X64092384Y-88534949D01*
X64131053Y-88857662D01*
X64231937Y-89166631D01*
X64352326Y-89391862D01*
X64588757Y-89519821D01*
X65608579Y-88500000D01*
X65891421Y-88500000D01*
X66911243Y-89519821D01*
X67147674Y-89391862D01*
X67294812Y-89102053D01*
X67382584Y-88789108D01*
X67407616Y-88465051D01*
X67368947Y-88142338D01*
X67268063Y-87833369D01*
X67147674Y-87608138D01*
X66911243Y-87480179D01*
X65891421Y-88500000D01*
X65608579Y-88500000D01*
X64588757Y-87480179D01*
X64352326Y-87608138D01*
X64205188Y-87897947D01*
X64117416Y-88210892D01*
X64092384Y-88534949D01*
X57975000Y-88534949D01*
X57975000Y-87338757D01*
X64730179Y-87338757D01*
X65750000Y-88358579D01*
X66769821Y-87338757D01*
X66748846Y-87300000D01*
X71597823Y-87300000D01*
X71597823Y-89700000D01*
X71606511Y-89788215D01*
X71632243Y-89873041D01*
X71674029Y-89951216D01*
X71730263Y-90019737D01*
X71798784Y-90075971D01*
X71876959Y-90117757D01*
X71961785Y-90143489D01*
X72050000Y-90152177D01*
X74450000Y-90152177D01*
X74538215Y-90143489D01*
X74623041Y-90117757D01*
X74701216Y-90075971D01*
X74769737Y-90019737D01*
X74825971Y-89951216D01*
X74865701Y-89876886D01*
X87000000Y-89876886D01*
X87000000Y-90123114D01*
X87048037Y-90364611D01*
X87142265Y-90592097D01*
X87279062Y-90796828D01*
X87453172Y-90970938D01*
X87657903Y-91107735D01*
X87885389Y-91201963D01*
X88126886Y-91250000D01*
X88373114Y-91250000D01*
X88614611Y-91201963D01*
X88842097Y-91107735D01*
X89046828Y-90970938D01*
X89220938Y-90796828D01*
X89357735Y-90592097D01*
X89451963Y-90364611D01*
X89500000Y-90123114D01*
X89500000Y-89876886D01*
X92000000Y-89876886D01*
X92000000Y-90123114D01*
X92048037Y-90364611D01*
X92142265Y-90592097D01*
X92279062Y-90796828D01*
X92453172Y-90970938D01*
X92657903Y-91107735D01*
X92885389Y-91201963D01*
X93126886Y-91250000D01*
X93373114Y-91250000D01*
X93614611Y-91201963D01*
X93842097Y-91107735D01*
X94046828Y-90970938D01*
X94220938Y-90796828D01*
X94357735Y-90592097D01*
X94451963Y-90364611D01*
X94500000Y-90123114D01*
X94500000Y-89876886D01*
X102250000Y-89876886D01*
X102250000Y-90123114D01*
X102298037Y-90364611D01*
X102392265Y-90592097D01*
X102529062Y-90796828D01*
X102703172Y-90970938D01*
X102907903Y-91107735D01*
X103135389Y-91201963D01*
X103376886Y-91250000D01*
X103623114Y-91250000D01*
X103864611Y-91201963D01*
X104092097Y-91107735D01*
X104296828Y-90970938D01*
X104470938Y-90796828D01*
X104607735Y-90592097D01*
X104701963Y-90364611D01*
X104750000Y-90123114D01*
X104750000Y-89876886D01*
X107250000Y-89876886D01*
X107250000Y-90123114D01*
X107298037Y-90364611D01*
X107392265Y-90592097D01*
X107529062Y-90796828D01*
X107703172Y-90970938D01*
X107907903Y-91107735D01*
X108135389Y-91201963D01*
X108376886Y-91250000D01*
X108623114Y-91250000D01*
X108864611Y-91201963D01*
X109092097Y-91107735D01*
X109296828Y-90970938D01*
X109470938Y-90796828D01*
X109607735Y-90592097D01*
X109701963Y-90364611D01*
X109750000Y-90123114D01*
X109750000Y-89876886D01*
X118750000Y-89876886D01*
X118750000Y-90123114D01*
X118798037Y-90364611D01*
X118892265Y-90592097D01*
X119029062Y-90796828D01*
X119203172Y-90970938D01*
X119407903Y-91107735D01*
X119635389Y-91201963D01*
X119876886Y-91250000D01*
X120123114Y-91250000D01*
X120364611Y-91201963D01*
X120592097Y-91107735D01*
X120796828Y-90970938D01*
X120970938Y-90796828D01*
X121107735Y-90592097D01*
X121201963Y-90364611D01*
X121250000Y-90123114D01*
X121250000Y-89876886D01*
X123750000Y-89876886D01*
X123750000Y-90123114D01*
X123798037Y-90364611D01*
X123892265Y-90592097D01*
X124029062Y-90796828D01*
X124203172Y-90970938D01*
X124407903Y-91107735D01*
X124635389Y-91201963D01*
X124876886Y-91250000D01*
X125123114Y-91250000D01*
X125364611Y-91201963D01*
X125592097Y-91107735D01*
X125796828Y-90970938D01*
X125970938Y-90796828D01*
X126107735Y-90592097D01*
X126201963Y-90364611D01*
X126250000Y-90123114D01*
X126250000Y-89876886D01*
X126209088Y-89671207D01*
X127450000Y-89671207D01*
X127450000Y-89828793D01*
X127480743Y-89983351D01*
X127541049Y-90128942D01*
X127628599Y-90259970D01*
X127740030Y-90371401D01*
X127871058Y-90458951D01*
X128016649Y-90519257D01*
X128171207Y-90550000D01*
X128328793Y-90550000D01*
X128483351Y-90519257D01*
X128628942Y-90458951D01*
X128642338Y-90450000D01*
X132507662Y-90450000D01*
X132521058Y-90458951D01*
X132666649Y-90519257D01*
X132821207Y-90550000D01*
X132978793Y-90550000D01*
X133133351Y-90519257D01*
X133278942Y-90458951D01*
X133409970Y-90371401D01*
X133521401Y-90259970D01*
X133608951Y-90128942D01*
X133669257Y-89983351D01*
X133700000Y-89828793D01*
X133700000Y-89671207D01*
X133669257Y-89516649D01*
X133611366Y-89376886D01*
X156500000Y-89376886D01*
X156500000Y-89623114D01*
X156548037Y-89864611D01*
X156642265Y-90092097D01*
X156779062Y-90296828D01*
X156953172Y-90470938D01*
X157157903Y-90607735D01*
X157385389Y-90701963D01*
X157626886Y-90750000D01*
X157873114Y-90750000D01*
X158114611Y-90701963D01*
X158342097Y-90607735D01*
X158546828Y-90470938D01*
X158720938Y-90296828D01*
X158857735Y-90092097D01*
X158951963Y-89864611D01*
X159000000Y-89623114D01*
X159000000Y-89376886D01*
X176500000Y-89376886D01*
X176500000Y-89623114D01*
X176548037Y-89864611D01*
X176642265Y-90092097D01*
X176779062Y-90296828D01*
X176953172Y-90470938D01*
X177157903Y-90607735D01*
X177385389Y-90701963D01*
X177626886Y-90750000D01*
X177873114Y-90750000D01*
X178114611Y-90701963D01*
X178342097Y-90607735D01*
X178546828Y-90470938D01*
X178720938Y-90296828D01*
X178857735Y-90092097D01*
X178951963Y-89864611D01*
X179000000Y-89623114D01*
X179000000Y-89376886D01*
X178951963Y-89135389D01*
X178857735Y-88907903D01*
X178720938Y-88703172D01*
X178546828Y-88529062D01*
X178342097Y-88392265D01*
X178114611Y-88298037D01*
X177873114Y-88250000D01*
X177626886Y-88250000D01*
X177385389Y-88298037D01*
X177157903Y-88392265D01*
X176953172Y-88529062D01*
X176779062Y-88703172D01*
X176642265Y-88907903D01*
X176548037Y-89135389D01*
X176500000Y-89376886D01*
X159000000Y-89376886D01*
X158951963Y-89135389D01*
X158857735Y-88907903D01*
X158720938Y-88703172D01*
X158546828Y-88529062D01*
X158342097Y-88392265D01*
X158114611Y-88298037D01*
X157873114Y-88250000D01*
X157626886Y-88250000D01*
X157385389Y-88298037D01*
X157157903Y-88392265D01*
X156953172Y-88529062D01*
X156779062Y-88703172D01*
X156642265Y-88907903D01*
X156548037Y-89135389D01*
X156500000Y-89376886D01*
X133611366Y-89376886D01*
X133608951Y-89371058D01*
X133521401Y-89240030D01*
X133409970Y-89128599D01*
X133278942Y-89041049D01*
X133133351Y-88980743D01*
X132978793Y-88950000D01*
X132821207Y-88950000D01*
X132666649Y-88980743D01*
X132521058Y-89041049D01*
X132507662Y-89050000D01*
X128642338Y-89050000D01*
X128628942Y-89041049D01*
X128483351Y-88980743D01*
X128328793Y-88950000D01*
X128171207Y-88950000D01*
X128016649Y-88980743D01*
X127871058Y-89041049D01*
X127740030Y-89128599D01*
X127628599Y-89240030D01*
X127541049Y-89371058D01*
X127480743Y-89516649D01*
X127450000Y-89671207D01*
X126209088Y-89671207D01*
X126201963Y-89635389D01*
X126107735Y-89407903D01*
X125970938Y-89203172D01*
X125796828Y-89029062D01*
X125592097Y-88892265D01*
X125364611Y-88798037D01*
X125123114Y-88750000D01*
X124876886Y-88750000D01*
X124635389Y-88798037D01*
X124407903Y-88892265D01*
X124203172Y-89029062D01*
X124029062Y-89203172D01*
X123892265Y-89407903D01*
X123798037Y-89635389D01*
X123750000Y-89876886D01*
X121250000Y-89876886D01*
X121201963Y-89635389D01*
X121107735Y-89407903D01*
X120970938Y-89203172D01*
X120796828Y-89029062D01*
X120592097Y-88892265D01*
X120364611Y-88798037D01*
X120123114Y-88750000D01*
X119876886Y-88750000D01*
X119635389Y-88798037D01*
X119407903Y-88892265D01*
X119203172Y-89029062D01*
X119029062Y-89203172D01*
X118892265Y-89407903D01*
X118798037Y-89635389D01*
X118750000Y-89876886D01*
X109750000Y-89876886D01*
X109701963Y-89635389D01*
X109607735Y-89407903D01*
X109470938Y-89203172D01*
X109296828Y-89029062D01*
X109092097Y-88892265D01*
X108864611Y-88798037D01*
X108623114Y-88750000D01*
X108376886Y-88750000D01*
X108135389Y-88798037D01*
X107907903Y-88892265D01*
X107703172Y-89029062D01*
X107529062Y-89203172D01*
X107392265Y-89407903D01*
X107298037Y-89635389D01*
X107250000Y-89876886D01*
X104750000Y-89876886D01*
X104701963Y-89635389D01*
X104607735Y-89407903D01*
X104470938Y-89203172D01*
X104296828Y-89029062D01*
X104092097Y-88892265D01*
X103864611Y-88798037D01*
X103623114Y-88750000D01*
X103376886Y-88750000D01*
X103135389Y-88798037D01*
X102907903Y-88892265D01*
X102703172Y-89029062D01*
X102529062Y-89203172D01*
X102392265Y-89407903D01*
X102298037Y-89635389D01*
X102250000Y-89876886D01*
X94500000Y-89876886D01*
X94451963Y-89635389D01*
X94357735Y-89407903D01*
X94220938Y-89203172D01*
X94046828Y-89029062D01*
X93842097Y-88892265D01*
X93614611Y-88798037D01*
X93373114Y-88750000D01*
X93126886Y-88750000D01*
X92885389Y-88798037D01*
X92657903Y-88892265D01*
X92453172Y-89029062D01*
X92279062Y-89203172D01*
X92142265Y-89407903D01*
X92048037Y-89635389D01*
X92000000Y-89876886D01*
X89500000Y-89876886D01*
X89451963Y-89635389D01*
X89357735Y-89407903D01*
X89220938Y-89203172D01*
X89046828Y-89029062D01*
X88842097Y-88892265D01*
X88614611Y-88798037D01*
X88373114Y-88750000D01*
X88126886Y-88750000D01*
X87885389Y-88798037D01*
X87657903Y-88892265D01*
X87453172Y-89029062D01*
X87279062Y-89203172D01*
X87142265Y-89407903D01*
X87048037Y-89635389D01*
X87000000Y-89876886D01*
X74865701Y-89876886D01*
X74867757Y-89873041D01*
X74893489Y-89788215D01*
X74902177Y-89700000D01*
X74902177Y-87357187D01*
X137550000Y-87357187D01*
X137550000Y-87642813D01*
X137605723Y-87922949D01*
X137715027Y-88186833D01*
X137873711Y-88424321D01*
X138075679Y-88626289D01*
X138313167Y-88784973D01*
X138577051Y-88894277D01*
X138857187Y-88950000D01*
X139142813Y-88950000D01*
X139422949Y-88894277D01*
X139686833Y-88784973D01*
X139924321Y-88626289D01*
X140031816Y-88518794D01*
X141622628Y-88518794D01*
X141726509Y-88734750D01*
X141982259Y-88861925D01*
X142257906Y-88936762D01*
X142542856Y-88956386D01*
X142826159Y-88920042D01*
X143096928Y-88829125D01*
X143273491Y-88734750D01*
X143377372Y-88518794D01*
X142500000Y-87641421D01*
X141622628Y-88518794D01*
X140031816Y-88518794D01*
X140126289Y-88424321D01*
X140284973Y-88186833D01*
X140394277Y-87922949D01*
X140450000Y-87642813D01*
X140450000Y-87542856D01*
X141043614Y-87542856D01*
X141079958Y-87826159D01*
X141170875Y-88096928D01*
X141265250Y-88273491D01*
X141481206Y-88377372D01*
X142358579Y-87500000D01*
X142641421Y-87500000D01*
X143518794Y-88377372D01*
X143734750Y-88273491D01*
X143861925Y-88017741D01*
X143936762Y-87742094D01*
X143956386Y-87457144D01*
X143943563Y-87357187D01*
X144550000Y-87357187D01*
X144550000Y-87642813D01*
X144605723Y-87922949D01*
X144715027Y-88186833D01*
X144873711Y-88424321D01*
X145075679Y-88626289D01*
X145313167Y-88784973D01*
X145577051Y-88894277D01*
X145857187Y-88950000D01*
X146142813Y-88950000D01*
X146422949Y-88894277D01*
X146686833Y-88784973D01*
X146924321Y-88626289D01*
X147126289Y-88424321D01*
X147284973Y-88186833D01*
X147394277Y-87922949D01*
X147450000Y-87642813D01*
X147450000Y-87357187D01*
X147394277Y-87077051D01*
X147284973Y-86813167D01*
X147126289Y-86575679D01*
X146924321Y-86373711D01*
X146686833Y-86215027D01*
X146422949Y-86105723D01*
X146142813Y-86050000D01*
X145857187Y-86050000D01*
X145577051Y-86105723D01*
X145313167Y-86215027D01*
X145075679Y-86373711D01*
X144873711Y-86575679D01*
X144715027Y-86813167D01*
X144605723Y-87077051D01*
X144550000Y-87357187D01*
X143943563Y-87357187D01*
X143920042Y-87173841D01*
X143829125Y-86903072D01*
X143734750Y-86726509D01*
X143518794Y-86622628D01*
X142641421Y-87500000D01*
X142358579Y-87500000D01*
X141481206Y-86622628D01*
X141265250Y-86726509D01*
X141138075Y-86982259D01*
X141063238Y-87257906D01*
X141043614Y-87542856D01*
X140450000Y-87542856D01*
X140450000Y-87357187D01*
X140394277Y-87077051D01*
X140284973Y-86813167D01*
X140126289Y-86575679D01*
X140031816Y-86481206D01*
X141622628Y-86481206D01*
X142500000Y-87358579D01*
X143377372Y-86481206D01*
X143273491Y-86265250D01*
X143017741Y-86138075D01*
X142742094Y-86063238D01*
X142457144Y-86043614D01*
X142173841Y-86079958D01*
X141903072Y-86170875D01*
X141726509Y-86265250D01*
X141622628Y-86481206D01*
X140031816Y-86481206D01*
X139924321Y-86373711D01*
X139686833Y-86215027D01*
X139422949Y-86105723D01*
X139142813Y-86050000D01*
X138857187Y-86050000D01*
X138577051Y-86105723D01*
X138313167Y-86215027D01*
X138075679Y-86373711D01*
X137873711Y-86575679D01*
X137715027Y-86813167D01*
X137605723Y-87077051D01*
X137550000Y-87357187D01*
X74902177Y-87357187D01*
X74902177Y-87300000D01*
X74893489Y-87211785D01*
X74867757Y-87126959D01*
X74825971Y-87048784D01*
X74769737Y-86980263D01*
X74701216Y-86924029D01*
X74623041Y-86882243D01*
X74538215Y-86856511D01*
X74450000Y-86847823D01*
X72050000Y-86847823D01*
X71961785Y-86856511D01*
X71876959Y-86882243D01*
X71798784Y-86924029D01*
X71730263Y-86980263D01*
X71674029Y-87048784D01*
X71632243Y-87126959D01*
X71606511Y-87211785D01*
X71597823Y-87300000D01*
X66748846Y-87300000D01*
X66641862Y-87102326D01*
X66352053Y-86955188D01*
X66039108Y-86867416D01*
X65715051Y-86842384D01*
X65392338Y-86881053D01*
X65083369Y-86981937D01*
X64858138Y-87102326D01*
X64730179Y-87338757D01*
X57975000Y-87338757D01*
X57975000Y-82921207D01*
X127450000Y-82921207D01*
X127450000Y-83078793D01*
X127480743Y-83233351D01*
X127541049Y-83378942D01*
X127628599Y-83509970D01*
X127740030Y-83621401D01*
X127871058Y-83708951D01*
X128016649Y-83769257D01*
X128171207Y-83800000D01*
X128328793Y-83800000D01*
X128483351Y-83769257D01*
X128628942Y-83708951D01*
X128642338Y-83700000D01*
X132507662Y-83700000D01*
X132521058Y-83708951D01*
X132666649Y-83769257D01*
X132821207Y-83800000D01*
X132978793Y-83800000D01*
X133133351Y-83769257D01*
X133278942Y-83708951D01*
X133409970Y-83621401D01*
X133521401Y-83509970D01*
X133608951Y-83378942D01*
X133669257Y-83233351D01*
X133700000Y-83078793D01*
X133700000Y-82921207D01*
X133669257Y-82766649D01*
X133608951Y-82621058D01*
X133521401Y-82490030D01*
X133409970Y-82378599D01*
X133278942Y-82291049D01*
X133133351Y-82230743D01*
X132978793Y-82200000D01*
X132821207Y-82200000D01*
X132666649Y-82230743D01*
X132521058Y-82291049D01*
X132507662Y-82300000D01*
X128642338Y-82300000D01*
X128628942Y-82291049D01*
X128483351Y-82230743D01*
X128328793Y-82200000D01*
X128171207Y-82200000D01*
X128016649Y-82230743D01*
X127871058Y-82291049D01*
X127740030Y-82378599D01*
X127628599Y-82490030D01*
X127541049Y-82621058D01*
X127480743Y-82766649D01*
X127450000Y-82921207D01*
X57975000Y-82921207D01*
X57975000Y-78671207D01*
X125750010Y-78671207D01*
X125750010Y-78828793D01*
X125780753Y-78983351D01*
X125841059Y-79128942D01*
X125928609Y-79259970D01*
X126040040Y-79371401D01*
X126171068Y-79458951D01*
X126316659Y-79519257D01*
X126471217Y-79550000D01*
X126628803Y-79550000D01*
X126783361Y-79519257D01*
X126928952Y-79458951D01*
X126942348Y-79450000D01*
X127857662Y-79450000D01*
X127871058Y-79458951D01*
X128016649Y-79519257D01*
X128171207Y-79550000D01*
X128328793Y-79550000D01*
X128483351Y-79519257D01*
X128628942Y-79458951D01*
X128759970Y-79371401D01*
X128871401Y-79259970D01*
X128958951Y-79128942D01*
X129019257Y-78983351D01*
X129050000Y-78828793D01*
X129050000Y-78671207D01*
X129019257Y-78516649D01*
X128958951Y-78371058D01*
X128871401Y-78240030D01*
X128759970Y-78128599D01*
X128628942Y-78041049D01*
X128483351Y-77980743D01*
X128328793Y-77950000D01*
X128171207Y-77950000D01*
X128016649Y-77980743D01*
X127871058Y-78041049D01*
X127857662Y-78050000D01*
X126942348Y-78050000D01*
X126928952Y-78041049D01*
X126783361Y-77980743D01*
X126628803Y-77950000D01*
X126471217Y-77950000D01*
X126316659Y-77980743D01*
X126171068Y-78041049D01*
X126040040Y-78128599D01*
X125928609Y-78240030D01*
X125841059Y-78371058D01*
X125780753Y-78516649D01*
X125750010Y-78671207D01*
X57975000Y-78671207D01*
X57975000Y-77421207D01*
X122900000Y-77421207D01*
X122900000Y-77578793D01*
X122930743Y-77733351D01*
X122991049Y-77878942D01*
X123078599Y-78009970D01*
X123190030Y-78121401D01*
X123321058Y-78208951D01*
X123466649Y-78269257D01*
X123621207Y-78300000D01*
X123778793Y-78300000D01*
X123933351Y-78269257D01*
X124078942Y-78208951D01*
X124092338Y-78200000D01*
X124907662Y-78200000D01*
X124921058Y-78208951D01*
X125066649Y-78269257D01*
X125221207Y-78300000D01*
X125378793Y-78300000D01*
X125533351Y-78269257D01*
X125678942Y-78208951D01*
X125809970Y-78121401D01*
X125921401Y-78009970D01*
X125980710Y-77921207D01*
X159912500Y-77921207D01*
X159912500Y-78078793D01*
X159943243Y-78233351D01*
X160003549Y-78378942D01*
X160091099Y-78509970D01*
X160202530Y-78621401D01*
X160333558Y-78708951D01*
X160479149Y-78769257D01*
X160633707Y-78800000D01*
X160791293Y-78800000D01*
X160945851Y-78769257D01*
X161091442Y-78708951D01*
X161104838Y-78700000D01*
X162520172Y-78700000D01*
X162533568Y-78708951D01*
X162679159Y-78769257D01*
X162833717Y-78800000D01*
X162991303Y-78800000D01*
X163145861Y-78769257D01*
X163291452Y-78708951D01*
X163422480Y-78621401D01*
X163533911Y-78509970D01*
X163621461Y-78378942D01*
X163681767Y-78233351D01*
X163712510Y-78078793D01*
X163712510Y-77921207D01*
X163681767Y-77766649D01*
X163621461Y-77621058D01*
X163533911Y-77490030D01*
X163422480Y-77378599D01*
X163291452Y-77291049D01*
X163145861Y-77230743D01*
X162991303Y-77200000D01*
X162833717Y-77200000D01*
X162679159Y-77230743D01*
X162533568Y-77291049D01*
X162520172Y-77300000D01*
X161104838Y-77300000D01*
X161091442Y-77291049D01*
X160945851Y-77230743D01*
X160791293Y-77200000D01*
X160633707Y-77200000D01*
X160479149Y-77230743D01*
X160333558Y-77291049D01*
X160202530Y-77378599D01*
X160091099Y-77490030D01*
X160003549Y-77621058D01*
X159943243Y-77766649D01*
X159912500Y-77921207D01*
X125980710Y-77921207D01*
X126008951Y-77878942D01*
X126069257Y-77733351D01*
X126100000Y-77578793D01*
X126100000Y-77421207D01*
X126069257Y-77266649D01*
X126008951Y-77121058D01*
X125921401Y-76990030D01*
X125809970Y-76878599D01*
X125678942Y-76791049D01*
X125533351Y-76730743D01*
X125378793Y-76700000D01*
X125221207Y-76700000D01*
X125066649Y-76730743D01*
X124921058Y-76791049D01*
X124907662Y-76800000D01*
X124092338Y-76800000D01*
X124078942Y-76791049D01*
X123933351Y-76730743D01*
X123778793Y-76700000D01*
X123621207Y-76700000D01*
X123466649Y-76730743D01*
X123321058Y-76791049D01*
X123190030Y-76878599D01*
X123078599Y-76990030D01*
X122991049Y-77121058D01*
X122930743Y-77266649D01*
X122900000Y-77421207D01*
X57975000Y-77421207D01*
X57975000Y-71337489D01*
X64100000Y-71337489D01*
X64100000Y-71662511D01*
X64163408Y-71981287D01*
X64287789Y-72281568D01*
X64468361Y-72551814D01*
X64698186Y-72781639D01*
X64968432Y-72962211D01*
X65268713Y-73086592D01*
X65587489Y-73150000D01*
X65912511Y-73150000D01*
X66231287Y-73086592D01*
X66531568Y-72962211D01*
X66801814Y-72781639D01*
X66883453Y-72700000D01*
X71597823Y-72700000D01*
X71606511Y-72788215D01*
X71632243Y-72873041D01*
X71674029Y-72951216D01*
X71730263Y-73019737D01*
X71798784Y-73075971D01*
X71876959Y-73117757D01*
X71961785Y-73143489D01*
X72050000Y-73152177D01*
X73037500Y-73150000D01*
X73150000Y-73037500D01*
X73150000Y-71600000D01*
X73350000Y-71600000D01*
X73350000Y-73037500D01*
X73462500Y-73150000D01*
X74450000Y-73152177D01*
X74538215Y-73143489D01*
X74623041Y-73117757D01*
X74701216Y-73075971D01*
X74769737Y-73019737D01*
X74825971Y-72951216D01*
X74867757Y-72873041D01*
X74893489Y-72788215D01*
X74902177Y-72700000D01*
X74900000Y-71712500D01*
X74787500Y-71600000D01*
X73350000Y-71600000D01*
X73150000Y-71600000D01*
X71712500Y-71600000D01*
X71600000Y-71712500D01*
X71597823Y-72700000D01*
X66883453Y-72700000D01*
X67031639Y-72551814D01*
X67212211Y-72281568D01*
X67336592Y-71981287D01*
X67400000Y-71662511D01*
X67400000Y-71337489D01*
X67336592Y-71018713D01*
X67212211Y-70718432D01*
X67031639Y-70448186D01*
X66883453Y-70300000D01*
X71597823Y-70300000D01*
X71600000Y-71287500D01*
X71712500Y-71400000D01*
X73150000Y-71400000D01*
X73150000Y-69962500D01*
X73350000Y-69962500D01*
X73350000Y-71400000D01*
X74787500Y-71400000D01*
X74900000Y-71287500D01*
X74902177Y-70300000D01*
X74893489Y-70211785D01*
X74867757Y-70126959D01*
X74825971Y-70048784D01*
X74769737Y-69980263D01*
X74701216Y-69924029D01*
X74623041Y-69882243D01*
X74538215Y-69856511D01*
X74450000Y-69847823D01*
X73462500Y-69850000D01*
X73350000Y-69962500D01*
X73150000Y-69962500D01*
X73037500Y-69850000D01*
X72050000Y-69847823D01*
X71961785Y-69856511D01*
X71876959Y-69882243D01*
X71798784Y-69924029D01*
X71730263Y-69980263D01*
X71674029Y-70048784D01*
X71632243Y-70126959D01*
X71606511Y-70211785D01*
X71597823Y-70300000D01*
X66883453Y-70300000D01*
X66801814Y-70218361D01*
X66531568Y-70037789D01*
X66231287Y-69913408D01*
X65912511Y-69850000D01*
X65587489Y-69850000D01*
X65268713Y-69913408D01*
X64968432Y-70037789D01*
X64698186Y-70218361D01*
X64468361Y-70448186D01*
X64287789Y-70718432D01*
X64163408Y-71018713D01*
X64100000Y-71337489D01*
X57975000Y-71337489D01*
X57975000Y-61300000D01*
X68247823Y-61300000D01*
X68256511Y-61388215D01*
X68282243Y-61473041D01*
X68324029Y-61551216D01*
X68380263Y-61619737D01*
X68448784Y-61675971D01*
X68526959Y-61717757D01*
X68611785Y-61743489D01*
X68700000Y-61752177D01*
X69287500Y-61750000D01*
X69400000Y-61637500D01*
X69400000Y-60600000D01*
X69600000Y-60600000D01*
X69600000Y-61637500D01*
X69712500Y-61750000D01*
X70300000Y-61752177D01*
X70388215Y-61743489D01*
X70473041Y-61717757D01*
X70551216Y-61675971D01*
X70619737Y-61619737D01*
X70675971Y-61551216D01*
X70717757Y-61473041D01*
X70743489Y-61388215D01*
X70752177Y-61300000D01*
X70750000Y-60712500D01*
X70637500Y-60600000D01*
X69600000Y-60600000D01*
X69400000Y-60600000D01*
X68362500Y-60600000D01*
X68250000Y-60712500D01*
X68247823Y-61300000D01*
X57975000Y-61300000D01*
X57975000Y-60400000D01*
X64500000Y-60400000D01*
X64529264Y-60397118D01*
X64557403Y-60388582D01*
X64583336Y-60374720D01*
X64606066Y-60356066D01*
X65262132Y-59700000D01*
X68247823Y-59700000D01*
X68250000Y-60287500D01*
X68362500Y-60400000D01*
X69400000Y-60400000D01*
X69400000Y-59362500D01*
X69600000Y-59362500D01*
X69600000Y-60400000D01*
X70637500Y-60400000D01*
X70750000Y-60287500D01*
X70752177Y-59700000D01*
X70743489Y-59611785D01*
X70717757Y-59526959D01*
X70675971Y-59448784D01*
X70619737Y-59380263D01*
X70551216Y-59324029D01*
X70473041Y-59282243D01*
X70388215Y-59256511D01*
X70300000Y-59247823D01*
X69712500Y-59250000D01*
X69600000Y-59362500D01*
X69400000Y-59362500D01*
X69287500Y-59250000D01*
X68700000Y-59247823D01*
X68611785Y-59256511D01*
X68526959Y-59282243D01*
X68448784Y-59324029D01*
X68380263Y-59380263D01*
X68324029Y-59448784D01*
X68282243Y-59526959D01*
X68256511Y-59611785D01*
X68247823Y-59700000D01*
X65262132Y-59700000D01*
X65356066Y-59606066D01*
X65374720Y-59583336D01*
X65388582Y-59557403D01*
X65397118Y-59529264D01*
X65400000Y-59500000D01*
X65400000Y-50475000D01*
X73146350Y-50475000D01*
X73125839Y-50499993D01*
%TO.N,+36V*%
G36*
X136350000Y-56562132D02*
G01*
X136350000Y-62437868D01*
X135437868Y-63350000D01*
X94000000Y-63350000D01*
X93970736Y-63352882D01*
X93942597Y-63361418D01*
X93916664Y-63375280D01*
X93893934Y-63393934D01*
X89187868Y-68100000D01*
X76650000Y-68100000D01*
X76650000Y-66312132D01*
X83312132Y-59650000D01*
X88647823Y-59650000D01*
X88656511Y-59738215D01*
X88682243Y-59823041D01*
X88724029Y-59901216D01*
X88780263Y-59969737D01*
X88848784Y-60025971D01*
X88926959Y-60067757D01*
X89011785Y-60093489D01*
X89100000Y-60102177D01*
X89787500Y-60100000D01*
X89900000Y-59987500D01*
X89900000Y-58850000D01*
X90100000Y-58850000D01*
X90100000Y-59987500D01*
X90212500Y-60100000D01*
X90900000Y-60102177D01*
X90988215Y-60093489D01*
X91073041Y-60067757D01*
X91151216Y-60025971D01*
X91219737Y-59969737D01*
X91275971Y-59901216D01*
X91317757Y-59823041D01*
X91343489Y-59738215D01*
X91352177Y-59650000D01*
X91350000Y-58962500D01*
X91237500Y-58850000D01*
X90100000Y-58850000D01*
X89900000Y-58850000D01*
X88762500Y-58850000D01*
X88650000Y-58962500D01*
X88647823Y-59650000D01*
X83312132Y-59650000D01*
X85112132Y-57850000D01*
X88647823Y-57850000D01*
X88650000Y-58537500D01*
X88762500Y-58650000D01*
X89900000Y-58650000D01*
X89900000Y-57512500D01*
X90100000Y-57512500D01*
X90100000Y-58650000D01*
X91237500Y-58650000D01*
X91270463Y-58617037D01*
X92050000Y-58617037D01*
X92050000Y-58882963D01*
X92101880Y-59143780D01*
X92203646Y-59389465D01*
X92351387Y-59610575D01*
X92539425Y-59798613D01*
X92760535Y-59946354D01*
X93006220Y-60048120D01*
X93267037Y-60100000D01*
X93532963Y-60100000D01*
X93793780Y-60048120D01*
X94039465Y-59946354D01*
X94260575Y-59798613D01*
X94448613Y-59610575D01*
X94596354Y-59389465D01*
X94698120Y-59143780D01*
X94714909Y-59059375D01*
X95485928Y-59059375D01*
X95535506Y-59222825D01*
X95652046Y-59460430D01*
X95812702Y-59670734D01*
X96011299Y-59845655D01*
X96240205Y-59978470D01*
X96490624Y-60064076D01*
X96700000Y-59983795D01*
X96700000Y-58850000D01*
X96900000Y-58850000D01*
X96900000Y-59983795D01*
X97109376Y-60064076D01*
X97359795Y-59978470D01*
X97588701Y-59845655D01*
X97787298Y-59670734D01*
X97947954Y-59460430D01*
X98064494Y-59222825D01*
X98114072Y-59059375D01*
X98033453Y-58850000D01*
X96900000Y-58850000D01*
X96700000Y-58850000D01*
X95566547Y-58850000D01*
X95485928Y-59059375D01*
X94714909Y-59059375D01*
X94750000Y-58882963D01*
X94750000Y-58617037D01*
X94714910Y-58440625D01*
X95485928Y-58440625D01*
X95566547Y-58650000D01*
X96700000Y-58650000D01*
X96700000Y-57516205D01*
X96900000Y-57516205D01*
X96900000Y-58650000D01*
X98033453Y-58650000D01*
X98046145Y-58617037D01*
X98850000Y-58617037D01*
X98850000Y-58882963D01*
X98901880Y-59143780D01*
X99003646Y-59389465D01*
X99151387Y-59610575D01*
X99339425Y-59798613D01*
X99560535Y-59946354D01*
X99806220Y-60048120D01*
X100067037Y-60100000D01*
X100332963Y-60100000D01*
X100593780Y-60048120D01*
X100839465Y-59946354D01*
X101060575Y-59798613D01*
X101248613Y-59610575D01*
X101396354Y-59389465D01*
X101498120Y-59143780D01*
X101550000Y-58882963D01*
X101550000Y-58617037D01*
X102250000Y-58617037D01*
X102250000Y-58882963D01*
X102301880Y-59143780D01*
X102403646Y-59389465D01*
X102551387Y-59610575D01*
X102739425Y-59798613D01*
X102960535Y-59946354D01*
X103206220Y-60048120D01*
X103467037Y-60100000D01*
X103732963Y-60100000D01*
X103993780Y-60048120D01*
X104239465Y-59946354D01*
X104460575Y-59798613D01*
X104648613Y-59610575D01*
X104796354Y-59389465D01*
X104898120Y-59143780D01*
X104950000Y-58882963D01*
X104950000Y-58617037D01*
X105650000Y-58617037D01*
X105650000Y-58882963D01*
X105701880Y-59143780D01*
X105803646Y-59389465D01*
X105951387Y-59610575D01*
X106139425Y-59798613D01*
X106360535Y-59946354D01*
X106606220Y-60048120D01*
X106867037Y-60100000D01*
X107132963Y-60100000D01*
X107393780Y-60048120D01*
X107639465Y-59946354D01*
X107860575Y-59798613D01*
X108009188Y-59650000D01*
X126147823Y-59650000D01*
X126156511Y-59738215D01*
X126182243Y-59823041D01*
X126224029Y-59901216D01*
X126280263Y-59969737D01*
X126348784Y-60025971D01*
X126426959Y-60067757D01*
X126511785Y-60093489D01*
X126600000Y-60102177D01*
X127287500Y-60100000D01*
X127400000Y-59987500D01*
X127400000Y-58850000D01*
X127600000Y-58850000D01*
X127600000Y-59987500D01*
X127712500Y-60100000D01*
X128400000Y-60102177D01*
X128488215Y-60093489D01*
X128573041Y-60067757D01*
X128651216Y-60025971D01*
X128719737Y-59969737D01*
X128775971Y-59901216D01*
X128817757Y-59823041D01*
X128843489Y-59738215D01*
X128852177Y-59650000D01*
X128850000Y-58962500D01*
X128737500Y-58850000D01*
X127600000Y-58850000D01*
X127400000Y-58850000D01*
X126262500Y-58850000D01*
X126150000Y-58962500D01*
X126147823Y-59650000D01*
X108009188Y-59650000D01*
X108048613Y-59610575D01*
X108196354Y-59389465D01*
X108298120Y-59143780D01*
X108350000Y-58882963D01*
X108350000Y-58617037D01*
X108298120Y-58356220D01*
X108196354Y-58110535D01*
X108048613Y-57889425D01*
X108009188Y-57850000D01*
X126147823Y-57850000D01*
X126150000Y-58537500D01*
X126262500Y-58650000D01*
X127400000Y-58650000D01*
X127400000Y-57512500D01*
X127600000Y-57512500D01*
X127600000Y-58650000D01*
X128737500Y-58650000D01*
X128770463Y-58617037D01*
X129550000Y-58617037D01*
X129550000Y-58882963D01*
X129601880Y-59143780D01*
X129703646Y-59389465D01*
X129851387Y-59610575D01*
X130039425Y-59798613D01*
X130260535Y-59946354D01*
X130506220Y-60048120D01*
X130767037Y-60100000D01*
X131032963Y-60100000D01*
X131293780Y-60048120D01*
X131539465Y-59946354D01*
X131760575Y-59798613D01*
X131948613Y-59610575D01*
X132096354Y-59389465D01*
X132198120Y-59143780D01*
X132214909Y-59059375D01*
X132985928Y-59059375D01*
X133035506Y-59222825D01*
X133152046Y-59460430D01*
X133312702Y-59670734D01*
X133511299Y-59845655D01*
X133740205Y-59978470D01*
X133990624Y-60064076D01*
X134200000Y-59983795D01*
X134200000Y-58850000D01*
X134400000Y-58850000D01*
X134400000Y-59983795D01*
X134609376Y-60064076D01*
X134859795Y-59978470D01*
X135088701Y-59845655D01*
X135287298Y-59670734D01*
X135447954Y-59460430D01*
X135564494Y-59222825D01*
X135614072Y-59059375D01*
X135533453Y-58850000D01*
X134400000Y-58850000D01*
X134200000Y-58850000D01*
X133066547Y-58850000D01*
X132985928Y-59059375D01*
X132214909Y-59059375D01*
X132250000Y-58882963D01*
X132250000Y-58617037D01*
X132214910Y-58440625D01*
X132985928Y-58440625D01*
X133066547Y-58650000D01*
X134200000Y-58650000D01*
X134200000Y-57516205D01*
X134400000Y-57516205D01*
X134400000Y-58650000D01*
X135533453Y-58650000D01*
X135614072Y-58440625D01*
X135564494Y-58277175D01*
X135447954Y-58039570D01*
X135287298Y-57829266D01*
X135088701Y-57654345D01*
X134859795Y-57521530D01*
X134609376Y-57435924D01*
X134400000Y-57516205D01*
X134200000Y-57516205D01*
X133990624Y-57435924D01*
X133740205Y-57521530D01*
X133511299Y-57654345D01*
X133312702Y-57829266D01*
X133152046Y-58039570D01*
X133035506Y-58277175D01*
X132985928Y-58440625D01*
X132214910Y-58440625D01*
X132198120Y-58356220D01*
X132096354Y-58110535D01*
X131948613Y-57889425D01*
X131760575Y-57701387D01*
X131539465Y-57553646D01*
X131293780Y-57451880D01*
X131032963Y-57400000D01*
X130767037Y-57400000D01*
X130506220Y-57451880D01*
X130260535Y-57553646D01*
X130039425Y-57701387D01*
X129851387Y-57889425D01*
X129703646Y-58110535D01*
X129601880Y-58356220D01*
X129550000Y-58617037D01*
X128770463Y-58617037D01*
X128850000Y-58537500D01*
X128852177Y-57850000D01*
X128843489Y-57761785D01*
X128817757Y-57676959D01*
X128775971Y-57598784D01*
X128719737Y-57530263D01*
X128651216Y-57474029D01*
X128573041Y-57432243D01*
X128488215Y-57406511D01*
X128400000Y-57397823D01*
X127712500Y-57400000D01*
X127600000Y-57512500D01*
X127400000Y-57512500D01*
X127287500Y-57400000D01*
X126600000Y-57397823D01*
X126511785Y-57406511D01*
X126426959Y-57432243D01*
X126348784Y-57474029D01*
X126280263Y-57530263D01*
X126224029Y-57598784D01*
X126182243Y-57676959D01*
X126156511Y-57761785D01*
X126147823Y-57850000D01*
X108009188Y-57850000D01*
X107860575Y-57701387D01*
X107639465Y-57553646D01*
X107393780Y-57451880D01*
X107132963Y-57400000D01*
X106867037Y-57400000D01*
X106606220Y-57451880D01*
X106360535Y-57553646D01*
X106139425Y-57701387D01*
X105951387Y-57889425D01*
X105803646Y-58110535D01*
X105701880Y-58356220D01*
X105650000Y-58617037D01*
X104950000Y-58617037D01*
X104898120Y-58356220D01*
X104796354Y-58110535D01*
X104648613Y-57889425D01*
X104460575Y-57701387D01*
X104239465Y-57553646D01*
X103993780Y-57451880D01*
X103732963Y-57400000D01*
X103467037Y-57400000D01*
X103206220Y-57451880D01*
X102960535Y-57553646D01*
X102739425Y-57701387D01*
X102551387Y-57889425D01*
X102403646Y-58110535D01*
X102301880Y-58356220D01*
X102250000Y-58617037D01*
X101550000Y-58617037D01*
X101498120Y-58356220D01*
X101396354Y-58110535D01*
X101248613Y-57889425D01*
X101060575Y-57701387D01*
X100839465Y-57553646D01*
X100593780Y-57451880D01*
X100332963Y-57400000D01*
X100067037Y-57400000D01*
X99806220Y-57451880D01*
X99560535Y-57553646D01*
X99339425Y-57701387D01*
X99151387Y-57889425D01*
X99003646Y-58110535D01*
X98901880Y-58356220D01*
X98850000Y-58617037D01*
X98046145Y-58617037D01*
X98114072Y-58440625D01*
X98064494Y-58277175D01*
X97947954Y-58039570D01*
X97787298Y-57829266D01*
X97588701Y-57654345D01*
X97359795Y-57521530D01*
X97109376Y-57435924D01*
X96900000Y-57516205D01*
X96700000Y-57516205D01*
X96490624Y-57435924D01*
X96240205Y-57521530D01*
X96011299Y-57654345D01*
X95812702Y-57829266D01*
X95652046Y-58039570D01*
X95535506Y-58277175D01*
X95485928Y-58440625D01*
X94714910Y-58440625D01*
X94698120Y-58356220D01*
X94596354Y-58110535D01*
X94448613Y-57889425D01*
X94260575Y-57701387D01*
X94039465Y-57553646D01*
X93793780Y-57451880D01*
X93532963Y-57400000D01*
X93267037Y-57400000D01*
X93006220Y-57451880D01*
X92760535Y-57553646D01*
X92539425Y-57701387D01*
X92351387Y-57889425D01*
X92203646Y-58110535D01*
X92101880Y-58356220D01*
X92050000Y-58617037D01*
X91270463Y-58617037D01*
X91350000Y-58537500D01*
X91352177Y-57850000D01*
X91343489Y-57761785D01*
X91317757Y-57676959D01*
X91275971Y-57598784D01*
X91219737Y-57530263D01*
X91151216Y-57474029D01*
X91073041Y-57432243D01*
X90988215Y-57406511D01*
X90900000Y-57397823D01*
X90212500Y-57400000D01*
X90100000Y-57512500D01*
X89900000Y-57512500D01*
X89787500Y-57400000D01*
X89100000Y-57397823D01*
X89011785Y-57406511D01*
X88926959Y-57432243D01*
X88848784Y-57474029D01*
X88780263Y-57530263D01*
X88724029Y-57598784D01*
X88682243Y-57676959D01*
X88656511Y-57761785D01*
X88647823Y-57850000D01*
X85112132Y-57850000D01*
X87062132Y-55900000D01*
X135687868Y-55900000D01*
X136350000Y-56562132D01*
G37*
X136350000Y-56562132D02*
X136350000Y-62437868D01*
X135437868Y-63350000D01*
X94000000Y-63350000D01*
X93970736Y-63352882D01*
X93942597Y-63361418D01*
X93916664Y-63375280D01*
X93893934Y-63393934D01*
X89187868Y-68100000D01*
X76650000Y-68100000D01*
X76650000Y-66312132D01*
X83312132Y-59650000D01*
X88647823Y-59650000D01*
X88656511Y-59738215D01*
X88682243Y-59823041D01*
X88724029Y-59901216D01*
X88780263Y-59969737D01*
X88848784Y-60025971D01*
X88926959Y-60067757D01*
X89011785Y-60093489D01*
X89100000Y-60102177D01*
X89787500Y-60100000D01*
X89900000Y-59987500D01*
X89900000Y-58850000D01*
X90100000Y-58850000D01*
X90100000Y-59987500D01*
X90212500Y-60100000D01*
X90900000Y-60102177D01*
X90988215Y-60093489D01*
X91073041Y-60067757D01*
X91151216Y-60025971D01*
X91219737Y-59969737D01*
X91275971Y-59901216D01*
X91317757Y-59823041D01*
X91343489Y-59738215D01*
X91352177Y-59650000D01*
X91350000Y-58962500D01*
X91237500Y-58850000D01*
X90100000Y-58850000D01*
X89900000Y-58850000D01*
X88762500Y-58850000D01*
X88650000Y-58962500D01*
X88647823Y-59650000D01*
X83312132Y-59650000D01*
X85112132Y-57850000D01*
X88647823Y-57850000D01*
X88650000Y-58537500D01*
X88762500Y-58650000D01*
X89900000Y-58650000D01*
X89900000Y-57512500D01*
X90100000Y-57512500D01*
X90100000Y-58650000D01*
X91237500Y-58650000D01*
X91270463Y-58617037D01*
X92050000Y-58617037D01*
X92050000Y-58882963D01*
X92101880Y-59143780D01*
X92203646Y-59389465D01*
X92351387Y-59610575D01*
X92539425Y-59798613D01*
X92760535Y-59946354D01*
X93006220Y-60048120D01*
X93267037Y-60100000D01*
X93532963Y-60100000D01*
X93793780Y-60048120D01*
X94039465Y-59946354D01*
X94260575Y-59798613D01*
X94448613Y-59610575D01*
X94596354Y-59389465D01*
X94698120Y-59143780D01*
X94714909Y-59059375D01*
X95485928Y-59059375D01*
X95535506Y-59222825D01*
X95652046Y-59460430D01*
X95812702Y-59670734D01*
X96011299Y-59845655D01*
X96240205Y-59978470D01*
X96490624Y-60064076D01*
X96700000Y-59983795D01*
X96700000Y-58850000D01*
X96900000Y-58850000D01*
X96900000Y-59983795D01*
X97109376Y-60064076D01*
X97359795Y-59978470D01*
X97588701Y-59845655D01*
X97787298Y-59670734D01*
X97947954Y-59460430D01*
X98064494Y-59222825D01*
X98114072Y-59059375D01*
X98033453Y-58850000D01*
X96900000Y-58850000D01*
X96700000Y-58850000D01*
X95566547Y-58850000D01*
X95485928Y-59059375D01*
X94714909Y-59059375D01*
X94750000Y-58882963D01*
X94750000Y-58617037D01*
X94714910Y-58440625D01*
X95485928Y-58440625D01*
X95566547Y-58650000D01*
X96700000Y-58650000D01*
X96700000Y-57516205D01*
X96900000Y-57516205D01*
X96900000Y-58650000D01*
X98033453Y-58650000D01*
X98046145Y-58617037D01*
X98850000Y-58617037D01*
X98850000Y-58882963D01*
X98901880Y-59143780D01*
X99003646Y-59389465D01*
X99151387Y-59610575D01*
X99339425Y-59798613D01*
X99560535Y-59946354D01*
X99806220Y-60048120D01*
X100067037Y-60100000D01*
X100332963Y-60100000D01*
X100593780Y-60048120D01*
X100839465Y-59946354D01*
X101060575Y-59798613D01*
X101248613Y-59610575D01*
X101396354Y-59389465D01*
X101498120Y-59143780D01*
X101550000Y-58882963D01*
X101550000Y-58617037D01*
X102250000Y-58617037D01*
X102250000Y-58882963D01*
X102301880Y-59143780D01*
X102403646Y-59389465D01*
X102551387Y-59610575D01*
X102739425Y-59798613D01*
X102960535Y-59946354D01*
X103206220Y-60048120D01*
X103467037Y-60100000D01*
X103732963Y-60100000D01*
X103993780Y-60048120D01*
X104239465Y-59946354D01*
X104460575Y-59798613D01*
X104648613Y-59610575D01*
X104796354Y-59389465D01*
X104898120Y-59143780D01*
X104950000Y-58882963D01*
X104950000Y-58617037D01*
X105650000Y-58617037D01*
X105650000Y-58882963D01*
X105701880Y-59143780D01*
X105803646Y-59389465D01*
X105951387Y-59610575D01*
X106139425Y-59798613D01*
X106360535Y-59946354D01*
X106606220Y-60048120D01*
X106867037Y-60100000D01*
X107132963Y-60100000D01*
X107393780Y-60048120D01*
X107639465Y-59946354D01*
X107860575Y-59798613D01*
X108009188Y-59650000D01*
X126147823Y-59650000D01*
X126156511Y-59738215D01*
X126182243Y-59823041D01*
X126224029Y-59901216D01*
X126280263Y-59969737D01*
X126348784Y-60025971D01*
X126426959Y-60067757D01*
X126511785Y-60093489D01*
X126600000Y-60102177D01*
X127287500Y-60100000D01*
X127400000Y-59987500D01*
X127400000Y-58850000D01*
X127600000Y-58850000D01*
X127600000Y-59987500D01*
X127712500Y-60100000D01*
X128400000Y-60102177D01*
X128488215Y-60093489D01*
X128573041Y-60067757D01*
X128651216Y-60025971D01*
X128719737Y-59969737D01*
X128775971Y-59901216D01*
X128817757Y-59823041D01*
X128843489Y-59738215D01*
X128852177Y-59650000D01*
X128850000Y-58962500D01*
X128737500Y-58850000D01*
X127600000Y-58850000D01*
X127400000Y-58850000D01*
X126262500Y-58850000D01*
X126150000Y-58962500D01*
X126147823Y-59650000D01*
X108009188Y-59650000D01*
X108048613Y-59610575D01*
X108196354Y-59389465D01*
X108298120Y-59143780D01*
X108350000Y-58882963D01*
X108350000Y-58617037D01*
X108298120Y-58356220D01*
X108196354Y-58110535D01*
X108048613Y-57889425D01*
X108009188Y-57850000D01*
X126147823Y-57850000D01*
X126150000Y-58537500D01*
X126262500Y-58650000D01*
X127400000Y-58650000D01*
X127400000Y-57512500D01*
X127600000Y-57512500D01*
X127600000Y-58650000D01*
X128737500Y-58650000D01*
X128770463Y-58617037D01*
X129550000Y-58617037D01*
X129550000Y-58882963D01*
X129601880Y-59143780D01*
X129703646Y-59389465D01*
X129851387Y-59610575D01*
X130039425Y-59798613D01*
X130260535Y-59946354D01*
X130506220Y-60048120D01*
X130767037Y-60100000D01*
X131032963Y-60100000D01*
X131293780Y-60048120D01*
X131539465Y-59946354D01*
X131760575Y-59798613D01*
X131948613Y-59610575D01*
X132096354Y-59389465D01*
X132198120Y-59143780D01*
X132214909Y-59059375D01*
X132985928Y-59059375D01*
X133035506Y-59222825D01*
X133152046Y-59460430D01*
X133312702Y-59670734D01*
X133511299Y-59845655D01*
X133740205Y-59978470D01*
X133990624Y-60064076D01*
X134200000Y-59983795D01*
X134200000Y-58850000D01*
X134400000Y-58850000D01*
X134400000Y-59983795D01*
X134609376Y-60064076D01*
X134859795Y-59978470D01*
X135088701Y-59845655D01*
X135287298Y-59670734D01*
X135447954Y-59460430D01*
X135564494Y-59222825D01*
X135614072Y-59059375D01*
X135533453Y-58850000D01*
X134400000Y-58850000D01*
X134200000Y-58850000D01*
X133066547Y-58850000D01*
X132985928Y-59059375D01*
X132214909Y-59059375D01*
X132250000Y-58882963D01*
X132250000Y-58617037D01*
X132214910Y-58440625D01*
X132985928Y-58440625D01*
X133066547Y-58650000D01*
X134200000Y-58650000D01*
X134200000Y-57516205D01*
X134400000Y-57516205D01*
X134400000Y-58650000D01*
X135533453Y-58650000D01*
X135614072Y-58440625D01*
X135564494Y-58277175D01*
X135447954Y-58039570D01*
X135287298Y-57829266D01*
X135088701Y-57654345D01*
X134859795Y-57521530D01*
X134609376Y-57435924D01*
X134400000Y-57516205D01*
X134200000Y-57516205D01*
X133990624Y-57435924D01*
X133740205Y-57521530D01*
X133511299Y-57654345D01*
X133312702Y-57829266D01*
X133152046Y-58039570D01*
X133035506Y-58277175D01*
X132985928Y-58440625D01*
X132214910Y-58440625D01*
X132198120Y-58356220D01*
X132096354Y-58110535D01*
X131948613Y-57889425D01*
X131760575Y-57701387D01*
X131539465Y-57553646D01*
X131293780Y-57451880D01*
X131032963Y-57400000D01*
X130767037Y-57400000D01*
X130506220Y-57451880D01*
X130260535Y-57553646D01*
X130039425Y-57701387D01*
X129851387Y-57889425D01*
X129703646Y-58110535D01*
X129601880Y-58356220D01*
X129550000Y-58617037D01*
X128770463Y-58617037D01*
X128850000Y-58537500D01*
X128852177Y-57850000D01*
X128843489Y-57761785D01*
X128817757Y-57676959D01*
X128775971Y-57598784D01*
X128719737Y-57530263D01*
X128651216Y-57474029D01*
X128573041Y-57432243D01*
X128488215Y-57406511D01*
X128400000Y-57397823D01*
X127712500Y-57400000D01*
X127600000Y-57512500D01*
X127400000Y-57512500D01*
X127287500Y-57400000D01*
X126600000Y-57397823D01*
X126511785Y-57406511D01*
X126426959Y-57432243D01*
X126348784Y-57474029D01*
X126280263Y-57530263D01*
X126224029Y-57598784D01*
X126182243Y-57676959D01*
X126156511Y-57761785D01*
X126147823Y-57850000D01*
X108009188Y-57850000D01*
X107860575Y-57701387D01*
X107639465Y-57553646D01*
X107393780Y-57451880D01*
X107132963Y-57400000D01*
X106867037Y-57400000D01*
X106606220Y-57451880D01*
X106360535Y-57553646D01*
X106139425Y-57701387D01*
X105951387Y-57889425D01*
X105803646Y-58110535D01*
X105701880Y-58356220D01*
X105650000Y-58617037D01*
X104950000Y-58617037D01*
X104898120Y-58356220D01*
X104796354Y-58110535D01*
X104648613Y-57889425D01*
X104460575Y-57701387D01*
X104239465Y-57553646D01*
X103993780Y-57451880D01*
X103732963Y-57400000D01*
X103467037Y-57400000D01*
X103206220Y-57451880D01*
X102960535Y-57553646D01*
X102739425Y-57701387D01*
X102551387Y-57889425D01*
X102403646Y-58110535D01*
X102301880Y-58356220D01*
X102250000Y-58617037D01*
X101550000Y-58617037D01*
X101498120Y-58356220D01*
X101396354Y-58110535D01*
X101248613Y-57889425D01*
X101060575Y-57701387D01*
X100839465Y-57553646D01*
X100593780Y-57451880D01*
X100332963Y-57400000D01*
X100067037Y-57400000D01*
X99806220Y-57451880D01*
X99560535Y-57553646D01*
X99339425Y-57701387D01*
X99151387Y-57889425D01*
X99003646Y-58110535D01*
X98901880Y-58356220D01*
X98850000Y-58617037D01*
X98046145Y-58617037D01*
X98114072Y-58440625D01*
X98064494Y-58277175D01*
X97947954Y-58039570D01*
X97787298Y-57829266D01*
X97588701Y-57654345D01*
X97359795Y-57521530D01*
X97109376Y-57435924D01*
X96900000Y-57516205D01*
X96700000Y-57516205D01*
X96490624Y-57435924D01*
X96240205Y-57521530D01*
X96011299Y-57654345D01*
X95812702Y-57829266D01*
X95652046Y-58039570D01*
X95535506Y-58277175D01*
X95485928Y-58440625D01*
X94714910Y-58440625D01*
X94698120Y-58356220D01*
X94596354Y-58110535D01*
X94448613Y-57889425D01*
X94260575Y-57701387D01*
X94039465Y-57553646D01*
X93793780Y-57451880D01*
X93532963Y-57400000D01*
X93267037Y-57400000D01*
X93006220Y-57451880D01*
X92760535Y-57553646D01*
X92539425Y-57701387D01*
X92351387Y-57889425D01*
X92203646Y-58110535D01*
X92101880Y-58356220D01*
X92050000Y-58617037D01*
X91270463Y-58617037D01*
X91350000Y-58537500D01*
X91352177Y-57850000D01*
X91343489Y-57761785D01*
X91317757Y-57676959D01*
X91275971Y-57598784D01*
X91219737Y-57530263D01*
X91151216Y-57474029D01*
X91073041Y-57432243D01*
X90988215Y-57406511D01*
X90900000Y-57397823D01*
X90212500Y-57400000D01*
X90100000Y-57512500D01*
X89900000Y-57512500D01*
X89787500Y-57400000D01*
X89100000Y-57397823D01*
X89011785Y-57406511D01*
X88926959Y-57432243D01*
X88848784Y-57474029D01*
X88780263Y-57530263D01*
X88724029Y-57598784D01*
X88682243Y-57676959D01*
X88656511Y-57761785D01*
X88647823Y-57850000D01*
X85112132Y-57850000D01*
X87062132Y-55900000D01*
X135687868Y-55900000D01*
X136350000Y-56562132D01*
%TO.N,-36V*%
G36*
X134100000Y-50812132D02*
G01*
X134100000Y-54187868D01*
X133687868Y-54600000D01*
X133576778Y-54600000D01*
X133587298Y-54590734D01*
X133747954Y-54380430D01*
X133864494Y-54142825D01*
X133914072Y-53979375D01*
X133833453Y-53770000D01*
X132700000Y-53770000D01*
X132700000Y-53790000D01*
X132500000Y-53790000D01*
X132500000Y-53770000D01*
X131366547Y-53770000D01*
X131285928Y-53979375D01*
X131335506Y-54142825D01*
X131452046Y-54380430D01*
X131612702Y-54590734D01*
X131623222Y-54600000D01*
X130179188Y-54600000D01*
X130248613Y-54530575D01*
X130396354Y-54309465D01*
X130498120Y-54063780D01*
X130550000Y-53802963D01*
X130550000Y-53537037D01*
X130514910Y-53360625D01*
X131285928Y-53360625D01*
X131366547Y-53570000D01*
X132500000Y-53570000D01*
X132500000Y-52436205D01*
X132700000Y-52436205D01*
X132700000Y-53570000D01*
X133833453Y-53570000D01*
X133914072Y-53360625D01*
X133864494Y-53197175D01*
X133747954Y-52959570D01*
X133587298Y-52749266D01*
X133388701Y-52574345D01*
X133159795Y-52441530D01*
X132909376Y-52355924D01*
X132700000Y-52436205D01*
X132500000Y-52436205D01*
X132290624Y-52355924D01*
X132040205Y-52441530D01*
X131811299Y-52574345D01*
X131612702Y-52749266D01*
X131452046Y-52959570D01*
X131335506Y-53197175D01*
X131285928Y-53360625D01*
X130514910Y-53360625D01*
X130498120Y-53276220D01*
X130396354Y-53030535D01*
X130248613Y-52809425D01*
X130060575Y-52621387D01*
X129839465Y-52473646D01*
X129593780Y-52371880D01*
X129332963Y-52320000D01*
X129067037Y-52320000D01*
X128806220Y-52371880D01*
X128560535Y-52473646D01*
X128339425Y-52621387D01*
X128151387Y-52809425D01*
X128003646Y-53030535D01*
X127901880Y-53276220D01*
X127850000Y-53537037D01*
X127850000Y-53802963D01*
X127901880Y-54063780D01*
X128003646Y-54309465D01*
X128151387Y-54530575D01*
X128220812Y-54600000D01*
X106279188Y-54600000D01*
X106348613Y-54530575D01*
X106496354Y-54309465D01*
X106598120Y-54063780D01*
X106650000Y-53802963D01*
X106650000Y-53537037D01*
X106598120Y-53276220D01*
X106496354Y-53030535D01*
X106348613Y-52809425D01*
X106160575Y-52621387D01*
X105939465Y-52473646D01*
X105693780Y-52371880D01*
X105432963Y-52320000D01*
X105167037Y-52320000D01*
X104906220Y-52371880D01*
X104660535Y-52473646D01*
X104439425Y-52621387D01*
X104251387Y-52809425D01*
X104103646Y-53030535D01*
X104001880Y-53276220D01*
X103950000Y-53537037D01*
X103950000Y-53802963D01*
X104001880Y-54063780D01*
X104103646Y-54309465D01*
X104251387Y-54530575D01*
X104320812Y-54600000D01*
X103678529Y-54600000D01*
X103181773Y-54103245D01*
X103198120Y-54063780D01*
X103250000Y-53802963D01*
X103250000Y-53537037D01*
X103198120Y-53276220D01*
X103096354Y-53030535D01*
X102948613Y-52809425D01*
X102760575Y-52621387D01*
X102539465Y-52473646D01*
X102293780Y-52371880D01*
X102032963Y-52320000D01*
X101767037Y-52320000D01*
X101506220Y-52371880D01*
X101260535Y-52473646D01*
X101039425Y-52621387D01*
X100851387Y-52809425D01*
X100703646Y-53030535D01*
X100601880Y-53276220D01*
X100550000Y-53537037D01*
X100550000Y-53802963D01*
X100601880Y-54063780D01*
X100618227Y-54103245D01*
X100121473Y-54600000D01*
X99479188Y-54600000D01*
X99548613Y-54530575D01*
X99696354Y-54309465D01*
X99798120Y-54063780D01*
X99850000Y-53802963D01*
X99850000Y-53537037D01*
X99798120Y-53276220D01*
X99696354Y-53030535D01*
X99548613Y-52809425D01*
X99360575Y-52621387D01*
X99139465Y-52473646D01*
X98893780Y-52371880D01*
X98632963Y-52320000D01*
X98367037Y-52320000D01*
X98106220Y-52371880D01*
X97860535Y-52473646D01*
X97639425Y-52621387D01*
X97451387Y-52809425D01*
X97303646Y-53030535D01*
X97201880Y-53276220D01*
X97150000Y-53537037D01*
X97150000Y-53802963D01*
X97201880Y-54063780D01*
X97303646Y-54309465D01*
X97451387Y-54530575D01*
X97520812Y-54600000D01*
X96076778Y-54600000D01*
X96087298Y-54590734D01*
X96247954Y-54380430D01*
X96364494Y-54142825D01*
X96414072Y-53979375D01*
X96333453Y-53770000D01*
X95200000Y-53770000D01*
X95200000Y-53790000D01*
X95000000Y-53790000D01*
X95000000Y-53770000D01*
X93866547Y-53770000D01*
X93785928Y-53979375D01*
X93835506Y-54142825D01*
X93952046Y-54380430D01*
X94112702Y-54590734D01*
X94123222Y-54600000D01*
X92679188Y-54600000D01*
X92748613Y-54530575D01*
X92896354Y-54309465D01*
X92998120Y-54063780D01*
X93050000Y-53802963D01*
X93050000Y-53537037D01*
X93014910Y-53360625D01*
X93785928Y-53360625D01*
X93866547Y-53570000D01*
X95000000Y-53570000D01*
X95000000Y-52436205D01*
X95200000Y-52436205D01*
X95200000Y-53570000D01*
X96333453Y-53570000D01*
X96414072Y-53360625D01*
X96364494Y-53197175D01*
X96247954Y-52959570D01*
X96087298Y-52749266D01*
X95888701Y-52574345D01*
X95659795Y-52441530D01*
X95409376Y-52355924D01*
X95200000Y-52436205D01*
X95000000Y-52436205D01*
X94790624Y-52355924D01*
X94540205Y-52441530D01*
X94311299Y-52574345D01*
X94112702Y-52749266D01*
X93952046Y-52959570D01*
X93835506Y-53197175D01*
X93785928Y-53360625D01*
X93014910Y-53360625D01*
X92998120Y-53276220D01*
X92896354Y-53030535D01*
X92748613Y-52809425D01*
X92560575Y-52621387D01*
X92339465Y-52473646D01*
X92093780Y-52371880D01*
X91832963Y-52320000D01*
X91567037Y-52320000D01*
X91306220Y-52371880D01*
X91060535Y-52473646D01*
X90839425Y-52621387D01*
X90651387Y-52809425D01*
X90503646Y-53030535D01*
X90401880Y-53276220D01*
X90350000Y-53537037D01*
X90350000Y-53802963D01*
X90401880Y-54063780D01*
X90503646Y-54309465D01*
X90651387Y-54530575D01*
X90720812Y-54600000D01*
X74062132Y-54600000D01*
X73650000Y-54187868D01*
X73650000Y-50812132D01*
X73987132Y-50475000D01*
X133762868Y-50475000D01*
X134100000Y-50812132D01*
G37*
X134100000Y-50812132D02*
X134100000Y-54187868D01*
X133687868Y-54600000D01*
X133576778Y-54600000D01*
X133587298Y-54590734D01*
X133747954Y-54380430D01*
X133864494Y-54142825D01*
X133914072Y-53979375D01*
X133833453Y-53770000D01*
X132700000Y-53770000D01*
X132700000Y-53790000D01*
X132500000Y-53790000D01*
X132500000Y-53770000D01*
X131366547Y-53770000D01*
X131285928Y-53979375D01*
X131335506Y-54142825D01*
X131452046Y-54380430D01*
X131612702Y-54590734D01*
X131623222Y-54600000D01*
X130179188Y-54600000D01*
X130248613Y-54530575D01*
X130396354Y-54309465D01*
X130498120Y-54063780D01*
X130550000Y-53802963D01*
X130550000Y-53537037D01*
X130514910Y-53360625D01*
X131285928Y-53360625D01*
X131366547Y-53570000D01*
X132500000Y-53570000D01*
X132500000Y-52436205D01*
X132700000Y-52436205D01*
X132700000Y-53570000D01*
X133833453Y-53570000D01*
X133914072Y-53360625D01*
X133864494Y-53197175D01*
X133747954Y-52959570D01*
X133587298Y-52749266D01*
X133388701Y-52574345D01*
X133159795Y-52441530D01*
X132909376Y-52355924D01*
X132700000Y-52436205D01*
X132500000Y-52436205D01*
X132290624Y-52355924D01*
X132040205Y-52441530D01*
X131811299Y-52574345D01*
X131612702Y-52749266D01*
X131452046Y-52959570D01*
X131335506Y-53197175D01*
X131285928Y-53360625D01*
X130514910Y-53360625D01*
X130498120Y-53276220D01*
X130396354Y-53030535D01*
X130248613Y-52809425D01*
X130060575Y-52621387D01*
X129839465Y-52473646D01*
X129593780Y-52371880D01*
X129332963Y-52320000D01*
X129067037Y-52320000D01*
X128806220Y-52371880D01*
X128560535Y-52473646D01*
X128339425Y-52621387D01*
X128151387Y-52809425D01*
X128003646Y-53030535D01*
X127901880Y-53276220D01*
X127850000Y-53537037D01*
X127850000Y-53802963D01*
X127901880Y-54063780D01*
X128003646Y-54309465D01*
X128151387Y-54530575D01*
X128220812Y-54600000D01*
X106279188Y-54600000D01*
X106348613Y-54530575D01*
X106496354Y-54309465D01*
X106598120Y-54063780D01*
X106650000Y-53802963D01*
X106650000Y-53537037D01*
X106598120Y-53276220D01*
X106496354Y-53030535D01*
X106348613Y-52809425D01*
X106160575Y-52621387D01*
X105939465Y-52473646D01*
X105693780Y-52371880D01*
X105432963Y-52320000D01*
X105167037Y-52320000D01*
X104906220Y-52371880D01*
X104660535Y-52473646D01*
X104439425Y-52621387D01*
X104251387Y-52809425D01*
X104103646Y-53030535D01*
X104001880Y-53276220D01*
X103950000Y-53537037D01*
X103950000Y-53802963D01*
X104001880Y-54063780D01*
X104103646Y-54309465D01*
X104251387Y-54530575D01*
X104320812Y-54600000D01*
X103678529Y-54600000D01*
X103181773Y-54103245D01*
X103198120Y-54063780D01*
X103250000Y-53802963D01*
X103250000Y-53537037D01*
X103198120Y-53276220D01*
X103096354Y-53030535D01*
X102948613Y-52809425D01*
X102760575Y-52621387D01*
X102539465Y-52473646D01*
X102293780Y-52371880D01*
X102032963Y-52320000D01*
X101767037Y-52320000D01*
X101506220Y-52371880D01*
X101260535Y-52473646D01*
X101039425Y-52621387D01*
X100851387Y-52809425D01*
X100703646Y-53030535D01*
X100601880Y-53276220D01*
X100550000Y-53537037D01*
X100550000Y-53802963D01*
X100601880Y-54063780D01*
X100618227Y-54103245D01*
X100121473Y-54600000D01*
X99479188Y-54600000D01*
X99548613Y-54530575D01*
X99696354Y-54309465D01*
X99798120Y-54063780D01*
X99850000Y-53802963D01*
X99850000Y-53537037D01*
X99798120Y-53276220D01*
X99696354Y-53030535D01*
X99548613Y-52809425D01*
X99360575Y-52621387D01*
X99139465Y-52473646D01*
X98893780Y-52371880D01*
X98632963Y-52320000D01*
X98367037Y-52320000D01*
X98106220Y-52371880D01*
X97860535Y-52473646D01*
X97639425Y-52621387D01*
X97451387Y-52809425D01*
X97303646Y-53030535D01*
X97201880Y-53276220D01*
X97150000Y-53537037D01*
X97150000Y-53802963D01*
X97201880Y-54063780D01*
X97303646Y-54309465D01*
X97451387Y-54530575D01*
X97520812Y-54600000D01*
X96076778Y-54600000D01*
X96087298Y-54590734D01*
X96247954Y-54380430D01*
X96364494Y-54142825D01*
X96414072Y-53979375D01*
X96333453Y-53770000D01*
X95200000Y-53770000D01*
X95200000Y-53790000D01*
X95000000Y-53790000D01*
X95000000Y-53770000D01*
X93866547Y-53770000D01*
X93785928Y-53979375D01*
X93835506Y-54142825D01*
X93952046Y-54380430D01*
X94112702Y-54590734D01*
X94123222Y-54600000D01*
X92679188Y-54600000D01*
X92748613Y-54530575D01*
X92896354Y-54309465D01*
X92998120Y-54063780D01*
X93050000Y-53802963D01*
X93050000Y-53537037D01*
X93014910Y-53360625D01*
X93785928Y-53360625D01*
X93866547Y-53570000D01*
X95000000Y-53570000D01*
X95000000Y-52436205D01*
X95200000Y-52436205D01*
X95200000Y-53570000D01*
X96333453Y-53570000D01*
X96414072Y-53360625D01*
X96364494Y-53197175D01*
X96247954Y-52959570D01*
X96087298Y-52749266D01*
X95888701Y-52574345D01*
X95659795Y-52441530D01*
X95409376Y-52355924D01*
X95200000Y-52436205D01*
X95000000Y-52436205D01*
X94790624Y-52355924D01*
X94540205Y-52441530D01*
X94311299Y-52574345D01*
X94112702Y-52749266D01*
X93952046Y-52959570D01*
X93835506Y-53197175D01*
X93785928Y-53360625D01*
X93014910Y-53360625D01*
X92998120Y-53276220D01*
X92896354Y-53030535D01*
X92748613Y-52809425D01*
X92560575Y-52621387D01*
X92339465Y-52473646D01*
X92093780Y-52371880D01*
X91832963Y-52320000D01*
X91567037Y-52320000D01*
X91306220Y-52371880D01*
X91060535Y-52473646D01*
X90839425Y-52621387D01*
X90651387Y-52809425D01*
X90503646Y-53030535D01*
X90401880Y-53276220D01*
X90350000Y-53537037D01*
X90350000Y-53802963D01*
X90401880Y-54063780D01*
X90503646Y-54309465D01*
X90651387Y-54530575D01*
X90720812Y-54600000D01*
X74062132Y-54600000D01*
X73650000Y-54187868D01*
X73650000Y-50812132D01*
X73987132Y-50475000D01*
X133762868Y-50475000D01*
X134100000Y-50812132D01*
%TD*%
M02*
