M48
; DRILL file {KiCad (5.1.6-0)} date Monday, July 03, 2023 at 12:35:31 PM
; FORMAT={-:-/ absolute / inch / decimal}
; #@! TF.CreationDate,2023-07-03T12:35:31-07:00
; #@! TF.GenerationSoftware,Kicad,Pcbnew,(5.1.6-0)
; #@! TF.FileFunction,Plated,1,2,PTH
FMAT,2
INCH
T1C0.0118
T2C0.0197
T3C0.0315
T4C0.0394
T5C0.0472
T6C0.0512
T7C0.1260
%
G90
G05
T1
X2.2933Y-2.687
X2.2933Y-2.7362
X2.2933Y-2.7854
X2.2933Y-2.8346
X2.2933Y-2.8839
X2.2933Y-2.9331
X2.2933Y-2.9823
X2.2933Y-3.0315
X2.2933Y-3.0807
X2.2933Y-3.1299
X2.2933Y-3.1791
X2.2933Y-3.2283
X2.2933Y-3.2776
X2.2933Y-3.3268
X2.2933Y-3.376
X2.2933Y-3.4252
X2.2933Y-3.4744
X2.2933Y-3.5236
X2.2933Y-3.5728
X2.2933Y-3.622
X2.2933Y-3.6713
X2.2933Y-3.7205
X2.2933Y-3.7697
X2.2933Y-3.8189
X2.3288Y-2.4131
X2.3288Y-2.5706
X2.3288Y-3.9092
X2.4075Y-2.4918
X2.4075Y-3.9879
X2.4863Y-2.4131
X2.6044Y-2.0194
X2.6044Y-2.1769
X2.6044Y-4.2635
X2.7619Y-4.2635
X2.88Y-2.6887
X2.88Y-2.9249
X2.88Y-3.0824
X2.88Y-3.2399
X2.88Y-3.7123
X2.88Y-3.8698
X2.88Y-4.0273
X2.88Y-4.2241
X2.9232Y-2.6378
X2.9528Y-2.0079
X2.9528Y-2.0571
X2.9528Y-2.1063
X2.9626Y-2.5984
X2.9981Y-4.2635
X3.002Y-2.0079
X3.002Y-2.0571
X3.002Y-2.1063
X3.002Y-2.5591
X3.0413Y-2.5197
X3.0512Y-2.0079
X3.0512Y-2.0571
X3.0512Y-2.1063
X3.0512Y-2.6476
X3.0768Y-2.4131
X3.0807Y-2.4803
X3.1004Y-2.0079
X3.1004Y-2.0571
X3.1004Y-2.1063
X3.1004Y-2.5984
X3.1004Y-2.6476
X3.1496Y-2.0079
X3.1496Y-2.0571
X3.1496Y-2.1063
X3.1496Y-2.3917
X3.1496Y-2.5492
X3.1496Y-2.5984
X3.1496Y-2.6476
X3.1556Y-4.2635
X3.1988Y-2.0079
X3.1988Y-2.0571
X3.1988Y-2.1063
X3.1988Y-2.5492
X3.1988Y-2.5984
X3.1988Y-2.6476
X3.248Y-2.0079
X3.248Y-2.0571
X3.248Y-2.1063
X3.248Y-2.3327
X3.248Y-2.5492
X3.248Y-2.5984
X3.248Y-2.6476
X3.2737Y-2.2556
X3.2737Y-4.2241
X3.2972Y-2.0079
X3.2972Y-2.0571
X3.2972Y-2.1063
X3.2972Y-2.5492
X3.2972Y-2.5984
X3.2972Y-2.6476
X3.3465Y-2.2244
X3.3465Y-2.5492
X3.3465Y-2.5984
X3.3465Y-2.6476
X3.3524Y-4.1454
X3.3918Y-2.8855
X3.3918Y-3.043
X3.3918Y-3.2005
X3.3918Y-3.4367
X3.3918Y-3.5942
X3.3918Y-3.7517
X3.3918Y-3.9092
X3.3918Y-4.2635
X3.3957Y-2.5492
X3.3957Y-2.5984
X3.3957Y-2.6476
X3.4311Y-4.0273
X3.4449Y-2.5492
X3.4449Y-2.5984
X3.4449Y-2.6476
X3.4705Y-2.8068
X3.4705Y-2.9643
X3.4705Y-3.2792
X3.4705Y-3.6729
X3.4705Y-3.8304
X3.4744Y-3.061
X3.4941Y-2.4016
X3.4941Y-2.4508
X3.4941Y-2.5
X3.4941Y-2.5492
X3.4941Y-2.5984
X3.4941Y-2.6476
X3.5099Y-3.9485
X3.5099Y-4.2241
X3.5433Y-2.4016
X3.5433Y-2.4508
X3.5433Y-2.5
X3.5433Y-2.5492
X3.5433Y-2.5984
X3.5493Y-2.7281
X3.5493Y-2.8855
X3.5493Y-3.043
X3.5493Y-3.2005
X3.5493Y-3.4367
X3.5493Y-3.5942
X3.5493Y-3.7517
X3.5493Y-4.0666
X3.5886Y-3.8698
X3.628Y-3.9879
X3.628Y-4.2635
X3.6674Y-2.8462
X3.6674Y-3.791
X3.7067Y-3.9092
X3.7461Y-4.0273
X3.7461Y-4.2241
X3.7855Y-2.5312
X3.7855Y-2.6887
X3.7855Y-2.9643
X3.7855Y-3.1218
X3.7855Y-3.2792
X3.7855Y-3.4367
X3.8249Y-3.5548
X3.8249Y-3.9485
X3.8642Y-2.6099
X3.8642Y-3.2005
X3.8642Y-3.358
X3.8642Y-4.2635
X3.8976Y-2.5295
X3.9036Y-2.8462
X3.9036Y-3.0036
X3.9036Y-3.4761
X3.9036Y-3.6336
X3.9036Y-4.0273
X3.943Y-3.2792
X3.9823Y-2.9249
X3.9823Y-3.0824
X3.9823Y-3.3973
X3.9823Y-3.5548
X3.9823Y-3.7123
X3.9823Y-4.2241
X4.0217Y-2.5706
X4.0217Y-3.9879
X4.0611Y-2.8462
X4.0611Y-3.0036
X4.0611Y-3.1611
X4.0611Y-3.6336
X4.0611Y-3.791
X4.1004Y-3.358
X4.1004Y-4.2635
X4.1398Y-2.5312
X4.1398Y-2.9249
X4.1398Y-3.0824
X4.1398Y-3.7123
X4.1398Y-4.0273
X4.1535Y-3.2185
X4.1792Y-3.5155
X4.2186Y-2.8462
X4.2186Y-3.0036
X4.2186Y-3.1611
X4.2186Y-3.3973
X4.2186Y-3.6336
X4.2186Y-3.791
X4.2579Y-2.5706
X4.2579Y-3.9879
X4.2579Y-4.2241
X4.2815Y-3.2185
X4.2973Y-3.0824
X4.2973Y-3.7123
X4.2973Y-4.106
X4.3367Y-3.4367
X4.3504Y-3.1693
X4.376Y-2.5312
X4.376Y-2.8855
X4.376Y-3.5548
X4.376Y-3.791
X4.376Y-4.0273
X4.376Y-4.1847
X4.4154Y-3.0036
X4.4154Y-3.6729
X4.4291Y-2.8248
X4.4548Y-4.106
X4.4548Y-4.2635
X4.4941Y-2.5706
X4.4941Y-2.7674
X4.4941Y-2.9249
X4.4941Y-3.3186
X4.4941Y-3.7517
X4.4941Y-3.9879
X4.5335Y-3.5548
X4.5335Y-4.1847
X4.5472Y-3.3957
X4.5571Y-3.1004
X4.5729Y-2.6493
X4.5729Y-2.8462
X4.5729Y-4.0666
X4.6123Y-2.5312
X4.6123Y-2.9643
X4.6123Y-3.4367
X4.6123Y-3.6336
X4.6123Y-4.2635
X4.6516Y-3.9879
X4.6516Y-4.1454
X4.691Y-2.6099
X4.691Y-2.8855
X4.691Y-3.1218
X4.691Y-3.3186
X4.7047Y-3.2185
X4.7304Y-2.7281
X4.7304Y-3.0036
X4.7304Y-4.0666
X4.7304Y-4.2241
X4.7697Y-2.5312
X4.7697Y-3.3973
X4.7697Y-3.9485
X4.7736Y-3.2185
X4.8091Y-2.6493
X4.8091Y-2.8068
X4.8091Y-3.5155
X4.8091Y-4.1454
X4.8485Y-3.1218
X4.8485Y-4.0273
X4.8485Y-4.2635
X4.8524Y-3.002
X4.8701Y-3.0512
X4.8878Y-2.5706
X4.8878Y-2.7281
X4.9016Y-3.2185
X4.9114Y-2.4508
X4.9272Y-3.9485
X4.9272Y-4.106
X4.9331Y-3.0512
X4.9666Y-2.6493
X4.9666Y-2.8068
X4.9666Y-2.9643
X4.9666Y-3.3186
X4.9666Y-4.2241
X4.9803Y-3.0413
X4.9823Y-3.1004
X5.006Y-2.5312
X5.006Y-4.0273
X5.0453Y-3.043
X5.0453Y-3.9092
X5.0453Y-4.1454
X5.0492Y-3.1004
X5.0492Y-3.2677
X5.0492Y-3.3169
X5.0492Y-3.4843
X5.0492Y-3.5335
X5.0847Y-4.2635
X5.1241Y-3.8304
X5.1241Y-3.9879
X5.1634Y-4.106
X5.2028Y-3.7517
X5.2028Y-3.9092
X5.2028Y-4.2241
X5.2323Y-3.2677
X5.2323Y-3.5335
X5.2422Y-2.5706
X5.2422Y-2.8068
X5.2422Y-2.9643
X5.2422Y-3.1218
X5.2422Y-3.358
X5.2422Y-3.5942
X5.2422Y-4.0273
X5.2461Y-3.2185
X5.2461Y-3.4744
X5.2815Y-2.6887
X5.2815Y-3.8304
X5.2815Y-4.1454
X5.3209Y-3.043
X5.3209Y-3.2005
X5.3209Y-3.6729
X5.3209Y-3.9485
X5.3209Y-4.2635
X5.3603Y-2.0194
X5.3603Y-2.5312
X5.3603Y-4.0666
X5.3642Y-2.8937
X5.3997Y-2.9724
X5.3997Y-3.1218
X5.3997Y-3.2792
X5.3997Y-3.5942
X5.3997Y-3.7517
X5.3997Y-4.1847
X5.4035Y-2.2162
X5.4035Y-2.4131
X5.439Y-3.8698
X5.4784Y-3.043
X5.4784Y-3.2005
X5.4784Y-3.358
X5.4784Y-3.6729
X5.4784Y-3.9879
X5.4784Y-4.2635
X5.5118Y-2.8937
X5.5178Y-2.0194
X5.5178Y-2.4525
X5.5178Y-3.791
X5.5178Y-4.106
X5.5571Y-2.1769
X5.5571Y-2.9724
X5.5571Y-3.1218
X5.5571Y-3.2792
X5.5571Y-3.5942
X5.5571Y-3.9092
X5.5965Y-2.5706
X5.5965Y-3.7123
X5.5965Y-4.0273
X5.5965Y-4.1847
X5.6359Y-2.4131
X5.6359Y-3.043
X5.6359Y-3.2005
X5.6359Y-3.358
X5.6359Y-3.8304
X5.6496Y-2.8937
X5.6752Y-2.0194
X5.6752Y-2.2162
X5.6752Y-3.6336
X5.6752Y-3.9485
X5.6752Y-4.106
X5.6752Y-4.2635
X5.7146Y-2.4918
X5.7146Y-2.9643
X5.7146Y-3.1218
X5.7146Y-3.2792
X5.7146Y-3.7517
X5.7283Y-2.8346
X5.754Y-2.0981
X5.754Y-3.5548
X5.754Y-3.8698
X5.754Y-4.0273
X5.754Y-4.1847
X5.7934Y-3.043
X5.7934Y-3.2005
X5.7934Y-3.358
X5.7934Y-3.6729
X5.8327Y-2.0194
X5.8327Y-2.1769
X5.8327Y-2.3344
X5.8327Y-2.5312
X5.8327Y-2.8462
X5.8327Y-3.791
X5.8327Y-3.9485
X5.8327Y-4.106
X5.8327Y-4.2635
X5.8721Y-2.9643
X5.8721Y-3.1218
X5.8721Y-3.2792
X5.8721Y-3.4367
X5.9115Y-2.0981
X5.9115Y-2.2556
X5.9115Y-2.4131
X5.9115Y-3.7123
X5.9115Y-3.8698
X5.9115Y-4.0273
X5.9115Y-4.1847
X5.9154Y-2.8346
X5.9508Y-2.5706
X5.9508Y-3.2005
X5.9508Y-3.358
X5.9508Y-3.5155
X5.9902Y-2.0194
X5.9902Y-2.1769
X5.9902Y-2.7674
X5.9902Y-2.9249
X5.9902Y-4.2635
X6.0296Y-2.3344
X6.0296Y-2.4918
X6.0296Y-3.1218
X6.0296Y-3.2792
X6.0296Y-3.4367
X6.0296Y-3.5942
X6.0335Y-3.7517
X6.0335Y-3.9092
X6.0335Y-4.0666
X6.0689Y-2.0981
X6.1083Y-2.9643
X6.1083Y-3.2005
X6.1083Y-3.358
X6.1083Y-3.5155
X6.1083Y-3.6729
X6.1083Y-3.8304
X6.1083Y-3.9879
X6.1083Y-4.1454
X6.122Y-2.8346
X6.1417Y-2.4705
X6.1477Y-2.0194
X6.1871Y-2.3344
X6.1871Y-2.8462
X6.1871Y-3.1218
X6.1871Y-3.2792
X6.1871Y-3.9092
X6.1871Y-4.0666
X6.1871Y-4.2241
X6.2264Y-2.0981
X6.2264Y-3.0036
X6.2264Y-3.6336
X6.2658Y-2.5706
X6.2658Y-3.2005
X6.2658Y-3.791
X6.2658Y-3.9879
X6.2658Y-4.1454
X6.3052Y-2.0194
X6.3052Y-2.6887
X6.3052Y-3.4367
X6.3052Y-4.2635
X6.3189Y-3.1201
X6.3273Y-3.0709
X6.3445Y-2.1375
X6.3445Y-2.4131
X6.3445Y-3.5942
X6.3445Y-3.8698
X6.3445Y-4.0666
X6.3839Y-2.6099
X6.3839Y-4.1847
X6.4139Y-3.0709
X6.4233Y-2.7281
X6.4272Y-2.1063
X6.4272Y-3.1102
X6.4626Y-2.0194
X6.4626Y-2.4525
X6.4626Y-3.0036
X6.4626Y-3.1611
X6.4626Y-3.3186
X6.4626Y-3.6336
X6.4626Y-3.9092
X6.4626Y-4.2635
X6.502Y-2.295
X6.502Y-2.5706
X6.5256Y-2.4311
X6.5354Y-3.8878
X6.5414Y-2.0981
X6.5414Y-3.4761
X6.5414Y-3.9879
X6.5808Y-2.8068
X6.5808Y-3.2005
X6.5808Y-4.2241
X6.5945Y-2.7461
X6.6043Y-3.5827
X6.6201Y-2.0194
X6.6201Y-2.6099
X6.6201Y-2.9249
X6.6201Y-3.3186
X6.624Y-3.002
X6.6595Y-2.1769
X6.6595Y-2.4525
X6.6595Y-3.5942
X6.6595Y-3.9485
X6.6732Y-3.8878
X6.6989Y-3.1218
X6.6989Y-4.2635
X6.7382Y-2.0588
X6.7382Y-3.0036
X6.7382Y-3.7517
X6.7776Y-2.6099
X6.7776Y-2.7674
X6.7776Y-3.6336
X6.7815Y-2.4606
X6.817Y-3.0824
X6.817Y-3.4367
X6.8234Y-2.4777
X6.8563Y-2.6887
X6.8563Y-3.3186
X6.8563Y-3.9092
X6.8563Y-4.2635
X6.868Y-2.4332
X6.8799Y-2.3917
X6.8957Y-2.5706
X6.8957Y-3.0036
X6.8957Y-3.1611
X6.8957Y-3.5942
X6.8957Y-3.791
X6.8957Y-4.0273
X6.9351Y-2.8855
X6.9745Y-2.4918
X6.9745Y-3.0824
X6.9745Y-3.2399
X6.9745Y-3.9485
X7.0138Y-2.6099
X7.0138Y-2.9643
X7.0138Y-3.358
X7.0138Y-3.6336
X7.0532Y-2.4131
X7.0532Y-2.7281
X7.0532Y-3.1611
X7.0926Y-2.8462
X7.0926Y-3.043
X7.0926Y-3.2792
X7.0926Y-3.4367
X7.0926Y-3.7123
X7.0926Y-3.9092
X7.1319Y-2.4918
X7.1319Y-4.0273
T2
X6.9429Y-2.2146
X6.9706Y-2.1478
X6.9706Y-2.2814
X7.0374Y-2.1201
X7.0374Y-2.3091
X7.1042Y-2.1478
X7.1042Y-2.2814
X7.1319Y-2.2146
X2.3169Y-4.1831
X2.3446Y-4.1163
X2.3446Y-4.2499
X2.4114Y-4.0886
X2.4114Y-4.2776
X2.4782Y-4.1163
X2.4782Y-4.2499
X2.5059Y-4.1831
X2.3169Y-2.2146
X2.3446Y-2.1478
X2.3446Y-2.2814
X2.4114Y-2.1201
X2.4114Y-2.3091
X2.4782Y-2.1478
X2.4782Y-2.2814
X2.5059Y-2.2146
X6.9429Y-4.1831
X6.9706Y-4.1163
X6.9706Y-4.2499
X7.0374Y-4.0886
X7.0374Y-4.2776
X7.1042Y-4.1163
X7.1042Y-4.2499
X7.1319Y-4.1831
T3
X6.2106Y-3.5236
X6.2106Y-3.7205
X4.0748Y-3.5433
X4.2717Y-3.5433
X2.7362Y-2.2323
X2.7362Y-2.3819
X4.7244Y-3.5433
X4.9213Y-3.5433
X6.998Y-3.5236
X6.998Y-3.7205
X3.4744Y-3.5433
X3.6713Y-3.5433
T4
X5.4724Y-3.4449
X5.6102Y-3.4449
X5.748Y-3.4449
X5.0197Y-2.313
X5.0866Y-2.113
X5.1535Y-2.313
X5.2205Y-2.113
X5.2874Y-2.313
X5.3543Y-2.113
X5.4213Y-2.313
X5.4882Y-2.113
X5.5551Y-2.313
X5.622Y-2.113
X5.689Y-2.313
X3.5433Y-2.313
X3.6102Y-2.113
X3.6772Y-2.313
X3.7441Y-2.113
X3.811Y-2.313
X3.878Y-2.113
X3.9449Y-2.313
X4.0118Y-2.113
X4.0787Y-2.313
X4.1457Y-2.113
X4.2126Y-2.313
X6.4665Y-4.1339
X6.6043Y-4.1339
X6.7421Y-4.1339
T5
X2.5886Y-3.4843
X2.8839Y-3.4843
X4.1791Y-4.1362
X4.6791Y-3.8362
X2.5886Y-2.815
X2.8839Y-2.815
T6
X2.7067Y-4.1339
X2.9035Y-4.1339
X3.1004Y-4.1339
X3.4449Y-4.1339
X3.6417Y-4.1339
T7
X7.0374Y-4.1831
X7.0374Y-2.2146
X2.4114Y-4.1831
X2.4114Y-2.2146
T0
M30
